%TF.GenerationSoftware,KiCad,Pcbnew,6.0.2+dfsg-1*%
%TF.CreationDate,2024-04-13T11:51:50+02:00*%
%TF.ProjectId,ps2_to_amiga,7073325f-746f-45f6-916d-6967612e6b69,rev?*%
%TF.SameCoordinates,Original*%
%TF.FileFunction,Copper,L2,Bot*%
%TF.FilePolarity,Positive*%
%FSLAX46Y46*%
G04 Gerber Fmt 4.6, Leading zero omitted, Abs format (unit mm)*
G04 Created by KiCad (PCBNEW 6.0.2+dfsg-1) date 2024-04-13 11:51:50*
%MOMM*%
%LPD*%
G01*
G04 APERTURE LIST*
%TA.AperFunction,ComponentPad*%
%ADD10R,1.700000X1.700000*%
%TD*%
%TA.AperFunction,ComponentPad*%
%ADD11O,1.700000X1.700000*%
%TD*%
%TA.AperFunction,ComponentPad*%
%ADD12C,2.200000*%
%TD*%
%TA.AperFunction,ComponentPad*%
%ADD13C,2.500000*%
%TD*%
%TA.AperFunction,ComponentPad*%
%ADD14C,1.500000*%
%TD*%
%TA.AperFunction,Conductor*%
%ADD15C,0.250000*%
%TD*%
%TA.AperFunction,Conductor*%
%ADD16C,0.304800*%
%TD*%
G04 APERTURE END LIST*
D10*
%TO.P,J2,1,MISO*%
%TO.N,PS2_DAT*%
X150500000Y-83000000D03*
D11*
%TO.P,J2,2,VCC*%
%TO.N,+5V*%
X150500000Y-85540000D03*
%TO.P,J2,3,SCK*%
%TO.N,PS2_CLK*%
X147960000Y-83000000D03*
%TO.P,J2,4,MOSI*%
%TO.N,AMIGA_RST*%
X147960000Y-85540000D03*
%TO.P,J2,5,~{RST}*%
%TO.N,/ISP_RST*%
X145420000Y-83000000D03*
%TO.P,J2,6,GND*%
%TO.N,GND*%
X145420000Y-85540000D03*
%TD*%
D12*
%TO.P,J4,1*%
%TO.N,PS2_CLK*%
X160000000Y-72500000D03*
D13*
%TO.P,J4,2*%
%TO.N,PS2_DAT*%
X160000000Y-80000000D03*
%TO.P,J4,3*%
%TO.N,unconnected-(J4-Pad3)*%
X160000000Y-87500000D03*
%TO.P,J4,4*%
%TO.N,GND*%
X157500000Y-75000000D03*
%TO.P,J4,5*%
%TO.N,+5V*%
X157500000Y-85000000D03*
%TO.P,J4,6*%
%TO.N,GND*%
X170000000Y-85000000D03*
X170000000Y-75000000D03*
%TD*%
D14*
%TO.P,J1,1,Pin_1*%
%TO.N,+5V*%
X139000000Y-77000000D03*
%TO.P,J1,2,Pin_2*%
%TO.N,AMIGA_CLK*%
X141000000Y-78500000D03*
%TO.P,J1,3,Pin_3*%
%TO.N,AMIGA_DAT*%
X139000000Y-80000000D03*
%TO.P,J1,4,Pin_4*%
%TO.N,AMIGA_RST*%
X141000000Y-81500000D03*
%TO.P,J1,5,Pin_5*%
%TO.N,GND*%
X139000000Y-83000000D03*
%TD*%
D15*
%TO.N,PS2_CLK*%
X147960000Y-83000000D02*
X149960000Y-81000000D01*
X149960000Y-81000000D02*
X152250000Y-81000000D01*
X152250000Y-81000000D02*
X153250000Y-80000000D01*
X153250000Y-80000000D02*
X153250000Y-74250000D01*
X153250000Y-74250000D02*
X155000000Y-72500000D01*
X155000000Y-72500000D02*
X160000000Y-72500000D01*
%TO.N,AMIGA_RST*%
X141000000Y-81500000D02*
X143811489Y-84311489D01*
X143811489Y-84311489D02*
X146731489Y-84311489D01*
X146731489Y-84311489D02*
X147960000Y-85540000D01*
D16*
%TO.N,+5V*%
X139000000Y-77000000D02*
X141196127Y-77000000D01*
X141196127Y-77000000D02*
X146675911Y-82479784D01*
X146675911Y-82479784D02*
X146675911Y-83492038D01*
X146675911Y-83492038D02*
X147467962Y-84284089D01*
X147467962Y-84284089D02*
X149244089Y-84284089D01*
X149244089Y-84284089D02*
X150500000Y-85540000D01*
%TD*%
%TA.AperFunction,Conductor*%
%TO.N,GND*%
G36*
X158564536Y-71528002D02*
G01*
X158611029Y-71581658D01*
X158621133Y-71651932D01*
X158603848Y-71699835D01*
X158562384Y-71767498D01*
X158560489Y-71772073D01*
X158560488Y-71772075D01*
X158553593Y-71788720D01*
X158509044Y-71844000D01*
X158437185Y-71866500D01*
X155078768Y-71866500D01*
X155067585Y-71865973D01*
X155060092Y-71864298D01*
X155052166Y-71864547D01*
X155052165Y-71864547D01*
X154992002Y-71866438D01*
X154988044Y-71866500D01*
X154960144Y-71866500D01*
X154956154Y-71867004D01*
X154944320Y-71867936D01*
X154900111Y-71869326D01*
X154892497Y-71871538D01*
X154892492Y-71871539D01*
X154880659Y-71874977D01*
X154861296Y-71878988D01*
X154841203Y-71881526D01*
X154833836Y-71884443D01*
X154833831Y-71884444D01*
X154800092Y-71897802D01*
X154788865Y-71901646D01*
X154746407Y-71913982D01*
X154739581Y-71918019D01*
X154728972Y-71924293D01*
X154711224Y-71932988D01*
X154692383Y-71940448D01*
X154685967Y-71945110D01*
X154685966Y-71945110D01*
X154656613Y-71966436D01*
X154646693Y-71972952D01*
X154615465Y-71991420D01*
X154615462Y-71991422D01*
X154608638Y-71995458D01*
X154594317Y-72009779D01*
X154579284Y-72022619D01*
X154562893Y-72034528D01*
X154557842Y-72040634D01*
X154534702Y-72068605D01*
X154526712Y-72077384D01*
X152857747Y-73746348D01*
X152849461Y-73753888D01*
X152842982Y-73758000D01*
X152837557Y-73763777D01*
X152796357Y-73807651D01*
X152793602Y-73810493D01*
X152773865Y-73830230D01*
X152771385Y-73833427D01*
X152763682Y-73842447D01*
X152733414Y-73874679D01*
X152729595Y-73881625D01*
X152729593Y-73881628D01*
X152723652Y-73892434D01*
X152712801Y-73908953D01*
X152700386Y-73924959D01*
X152697241Y-73932228D01*
X152697238Y-73932232D01*
X152682826Y-73965537D01*
X152677609Y-73976187D01*
X152656305Y-74014940D01*
X152654334Y-74022615D01*
X152654334Y-74022616D01*
X152651267Y-74034562D01*
X152644863Y-74053266D01*
X152636819Y-74071855D01*
X152635580Y-74079678D01*
X152635577Y-74079688D01*
X152629901Y-74115524D01*
X152627495Y-74127144D01*
X152616500Y-74169970D01*
X152616500Y-74190224D01*
X152614949Y-74209934D01*
X152611780Y-74229943D01*
X152612526Y-74237835D01*
X152615941Y-74273961D01*
X152616500Y-74285819D01*
X152616500Y-79685405D01*
X152596498Y-79753526D01*
X152579595Y-79774501D01*
X152024499Y-80329596D01*
X151962187Y-80363621D01*
X151935404Y-80366500D01*
X150038767Y-80366500D01*
X150027584Y-80365973D01*
X150020091Y-80364298D01*
X150012165Y-80364547D01*
X150012164Y-80364547D01*
X149952014Y-80366438D01*
X149948055Y-80366500D01*
X149920144Y-80366500D01*
X149916210Y-80366997D01*
X149916209Y-80366997D01*
X149916144Y-80367005D01*
X149904307Y-80367938D01*
X149872490Y-80368938D01*
X149868029Y-80369078D01*
X149860110Y-80369327D01*
X149842454Y-80374456D01*
X149840658Y-80374978D01*
X149821306Y-80378986D01*
X149814235Y-80379880D01*
X149801203Y-80381526D01*
X149793834Y-80384443D01*
X149793832Y-80384444D01*
X149760097Y-80397800D01*
X149748869Y-80401645D01*
X149706407Y-80413982D01*
X149699584Y-80418017D01*
X149699582Y-80418018D01*
X149688972Y-80424293D01*
X149671224Y-80432988D01*
X149652383Y-80440448D01*
X149645967Y-80445110D01*
X149645966Y-80445110D01*
X149616613Y-80466436D01*
X149606693Y-80472952D01*
X149575465Y-80491420D01*
X149575462Y-80491422D01*
X149568638Y-80495458D01*
X149554317Y-80509779D01*
X149539284Y-80522619D01*
X149522893Y-80534528D01*
X149517842Y-80540634D01*
X149494702Y-80568605D01*
X149486712Y-80577384D01*
X148417345Y-81646750D01*
X148355033Y-81680776D01*
X148306154Y-81681702D01*
X148093373Y-81643800D01*
X148093367Y-81643799D01*
X148088284Y-81642894D01*
X148014452Y-81641992D01*
X147870081Y-81640228D01*
X147870079Y-81640228D01*
X147864911Y-81640165D01*
X147644091Y-81673955D01*
X147431756Y-81743357D01*
X147374622Y-81773099D01*
X147292837Y-81815674D01*
X147233607Y-81846507D01*
X147229474Y-81849610D01*
X147229471Y-81849612D01*
X147174642Y-81890779D01*
X147108157Y-81915685D01*
X147038761Y-81900693D01*
X147009894Y-81879114D01*
X141682741Y-76551961D01*
X141676887Y-76545695D01*
X141646597Y-76510973D01*
X141641603Y-76505248D01*
X141593025Y-76471107D01*
X141587731Y-76467175D01*
X141546982Y-76435223D01*
X141546983Y-76435223D01*
X141541006Y-76430537D01*
X141534082Y-76427411D01*
X141527951Y-76423698D01*
X141523331Y-76421062D01*
X141516949Y-76417640D01*
X141510730Y-76413269D01*
X141455413Y-76391701D01*
X141449334Y-76389146D01*
X141414313Y-76373334D01*
X141395215Y-76364711D01*
X141387739Y-76363325D01*
X141380861Y-76361170D01*
X141375736Y-76359710D01*
X141368772Y-76357922D01*
X141361693Y-76355162D01*
X141354161Y-76354170D01*
X141354159Y-76354170D01*
X141328931Y-76350849D01*
X141302827Y-76347413D01*
X141296329Y-76346384D01*
X141237930Y-76335560D01*
X141230350Y-76335997D01*
X141230349Y-76335997D01*
X141180160Y-76338891D01*
X141172907Y-76339100D01*
X140139169Y-76339100D01*
X140071048Y-76319098D01*
X140035956Y-76285371D01*
X139970908Y-76192473D01*
X139970906Y-76192470D01*
X139967749Y-76187962D01*
X139812038Y-76032251D01*
X139782566Y-76011614D01*
X139732759Y-75976739D01*
X139631654Y-75905944D01*
X139432076Y-75812880D01*
X139219371Y-75755885D01*
X139000000Y-75736693D01*
X138780629Y-75755885D01*
X138567924Y-75812880D01*
X138516336Y-75836936D01*
X138373334Y-75903618D01*
X138373329Y-75903621D01*
X138368347Y-75905944D01*
X138363840Y-75909100D01*
X138363838Y-75909101D01*
X138192473Y-76029092D01*
X138192470Y-76029094D01*
X138187962Y-76032251D01*
X138032251Y-76187962D01*
X138029094Y-76192470D01*
X138029092Y-76192473D01*
X137909101Y-76363838D01*
X137905944Y-76368347D01*
X137903621Y-76373329D01*
X137903618Y-76373334D01*
X137880304Y-76423332D01*
X137812880Y-76567924D01*
X137755885Y-76780629D01*
X137736693Y-77000000D01*
X137755885Y-77219371D01*
X137812880Y-77432076D01*
X137843902Y-77498603D01*
X137903618Y-77626666D01*
X137903621Y-77626671D01*
X137905944Y-77631653D01*
X137909100Y-77636160D01*
X137909101Y-77636162D01*
X137992612Y-77755427D01*
X138032251Y-77812038D01*
X138187962Y-77967749D01*
X138192471Y-77970906D01*
X138192473Y-77970908D01*
X138257649Y-78016545D01*
X138368346Y-78094056D01*
X138567924Y-78187120D01*
X138780629Y-78244115D01*
X139000000Y-78263307D01*
X139219371Y-78244115D01*
X139432076Y-78187120D01*
X139585862Y-78115409D01*
X139656054Y-78104748D01*
X139720867Y-78133728D01*
X139759723Y-78193148D01*
X139760818Y-78262217D01*
X139757309Y-78275312D01*
X139757308Y-78275320D01*
X139755885Y-78280629D01*
X139736693Y-78500000D01*
X139755885Y-78719371D01*
X139757308Y-78724680D01*
X139757309Y-78724688D01*
X139760818Y-78737783D01*
X139759130Y-78808760D01*
X139719336Y-78867556D01*
X139654072Y-78895505D01*
X139585862Y-78884591D01*
X139545656Y-78865843D01*
X139432076Y-78812880D01*
X139219371Y-78755885D01*
X139000000Y-78736693D01*
X138780629Y-78755885D01*
X138567924Y-78812880D01*
X138474562Y-78856415D01*
X138373334Y-78903618D01*
X138373329Y-78903621D01*
X138368347Y-78905944D01*
X138363840Y-78909100D01*
X138363838Y-78909101D01*
X138192473Y-79029092D01*
X138192470Y-79029094D01*
X138187962Y-79032251D01*
X138032251Y-79187962D01*
X138029094Y-79192470D01*
X138029092Y-79192473D01*
X137945372Y-79312038D01*
X137905944Y-79368347D01*
X137903621Y-79373329D01*
X137903618Y-79373334D01*
X137861409Y-79463852D01*
X137812880Y-79567924D01*
X137755885Y-79780629D01*
X137736693Y-80000000D01*
X137755885Y-80219371D01*
X137812880Y-80432076D01*
X137843345Y-80497409D01*
X137903618Y-80626666D01*
X137903621Y-80626671D01*
X137905944Y-80631653D01*
X137909100Y-80636160D01*
X137909101Y-80636162D01*
X137992612Y-80755427D01*
X138032251Y-80812038D01*
X138187962Y-80967749D01*
X138192471Y-80970906D01*
X138192473Y-80970908D01*
X138257649Y-81016545D01*
X138368346Y-81094056D01*
X138567924Y-81187120D01*
X138780629Y-81244115D01*
X139000000Y-81263307D01*
X139219371Y-81244115D01*
X139432076Y-81187120D01*
X139585862Y-81115409D01*
X139656054Y-81104748D01*
X139720867Y-81133728D01*
X139759723Y-81193148D01*
X139760818Y-81262217D01*
X139757309Y-81275312D01*
X139757308Y-81275319D01*
X139755885Y-81280629D01*
X139736693Y-81500000D01*
X139755885Y-81719371D01*
X139757306Y-81724675D01*
X139757308Y-81724685D01*
X139760987Y-81738412D01*
X139759299Y-81809389D01*
X139719506Y-81868185D01*
X139654242Y-81896135D01*
X139586031Y-81885221D01*
X139436887Y-81815674D01*
X139426595Y-81811928D01*
X139224599Y-81757804D01*
X139213804Y-81755901D01*
X139005475Y-81737674D01*
X138994525Y-81737674D01*
X138786196Y-81755901D01*
X138775401Y-81757804D01*
X138573405Y-81811928D01*
X138563113Y-81815674D01*
X138373583Y-81904054D01*
X138364093Y-81909534D01*
X138322851Y-81938411D01*
X138314477Y-81948887D01*
X138321545Y-81962334D01*
X139000000Y-82640790D01*
X140038388Y-83679177D01*
X140050162Y-83685606D01*
X140062176Y-83676310D01*
X140090466Y-83635907D01*
X140095946Y-83626417D01*
X140184326Y-83436887D01*
X140188072Y-83426595D01*
X140242196Y-83224599D01*
X140244099Y-83213804D01*
X140262326Y-83005475D01*
X140262326Y-82994525D01*
X140244099Y-82786196D01*
X140242195Y-82775394D01*
X140238589Y-82761937D01*
X140240279Y-82690961D01*
X140280074Y-82632166D01*
X140345339Y-82604219D01*
X140413546Y-82615133D01*
X140567924Y-82687120D01*
X140780629Y-82744115D01*
X141000000Y-82763307D01*
X141219371Y-82744115D01*
X141236266Y-82739588D01*
X141250717Y-82735716D01*
X141321694Y-82737406D01*
X141372423Y-82768328D01*
X143307837Y-84703742D01*
X143315377Y-84712028D01*
X143319489Y-84718507D01*
X143325266Y-84723932D01*
X143369140Y-84765132D01*
X143371982Y-84767887D01*
X143391719Y-84787624D01*
X143394916Y-84790104D01*
X143403936Y-84797807D01*
X143436168Y-84828075D01*
X143443114Y-84831894D01*
X143443117Y-84831896D01*
X143453923Y-84837837D01*
X143470442Y-84848688D01*
X143486448Y-84861103D01*
X143493717Y-84864248D01*
X143493721Y-84864251D01*
X143527026Y-84878663D01*
X143537676Y-84883880D01*
X143576429Y-84905184D01*
X143584104Y-84907155D01*
X143584105Y-84907155D01*
X143596051Y-84910222D01*
X143614755Y-84916626D01*
X143618721Y-84918342D01*
X143633344Y-84924670D01*
X143641167Y-84925909D01*
X143641177Y-84925912D01*
X143677013Y-84931588D01*
X143688633Y-84933994D01*
X143723778Y-84943017D01*
X143731459Y-84944989D01*
X143751713Y-84944989D01*
X143771423Y-84946540D01*
X143791432Y-84949709D01*
X143799324Y-84948963D01*
X143835450Y-84945548D01*
X143847308Y-84944989D01*
X144009985Y-84944989D01*
X144078106Y-84964991D01*
X144124599Y-85018647D01*
X144134703Y-85088921D01*
X144131402Y-85104662D01*
X144084389Y-85274184D01*
X144085912Y-85282607D01*
X144098292Y-85286000D01*
X145548000Y-85286000D01*
X145616121Y-85306002D01*
X145662614Y-85359658D01*
X145674000Y-85412000D01*
X145674000Y-86858517D01*
X145678064Y-86872359D01*
X145691478Y-86874393D01*
X145698184Y-86873534D01*
X145708262Y-86871392D01*
X145912255Y-86810191D01*
X145921842Y-86806433D01*
X146113095Y-86712739D01*
X146121945Y-86707464D01*
X146295328Y-86583792D01*
X146303200Y-86577139D01*
X146454052Y-86426812D01*
X146460730Y-86418965D01*
X146588022Y-86241819D01*
X146589279Y-86242722D01*
X146636373Y-86199362D01*
X146706311Y-86187145D01*
X146771751Y-86214678D01*
X146799579Y-86246511D01*
X146859987Y-86345088D01*
X147006250Y-86513938D01*
X147178126Y-86656632D01*
X147371000Y-86769338D01*
X147375825Y-86771180D01*
X147375826Y-86771181D01*
X147448612Y-86798975D01*
X147579692Y-86849030D01*
X147584760Y-86850061D01*
X147584763Y-86850062D01*
X147679862Y-86869410D01*
X147798597Y-86893567D01*
X147803772Y-86893757D01*
X147803774Y-86893757D01*
X148016673Y-86901564D01*
X148016677Y-86901564D01*
X148021837Y-86901753D01*
X148026957Y-86901097D01*
X148026959Y-86901097D01*
X148238288Y-86874025D01*
X148238289Y-86874025D01*
X148243416Y-86873368D01*
X148248366Y-86871883D01*
X148452429Y-86810661D01*
X148452434Y-86810659D01*
X148457384Y-86809174D01*
X148657994Y-86710896D01*
X148839860Y-86581173D01*
X148856911Y-86564182D01*
X148994435Y-86427137D01*
X148998096Y-86423489D01*
X149128453Y-86242077D01*
X149129776Y-86243028D01*
X149176645Y-86199857D01*
X149246580Y-86187625D01*
X149312026Y-86215144D01*
X149339875Y-86246994D01*
X149399987Y-86345088D01*
X149546250Y-86513938D01*
X149718126Y-86656632D01*
X149911000Y-86769338D01*
X149915825Y-86771180D01*
X149915826Y-86771181D01*
X149988612Y-86798975D01*
X150119692Y-86849030D01*
X150124760Y-86850061D01*
X150124763Y-86850062D01*
X150219862Y-86869410D01*
X150338597Y-86893567D01*
X150343772Y-86893757D01*
X150343774Y-86893757D01*
X150556673Y-86901564D01*
X150556677Y-86901564D01*
X150561837Y-86901753D01*
X150566957Y-86901097D01*
X150566959Y-86901097D01*
X150778288Y-86874025D01*
X150778289Y-86874025D01*
X150783416Y-86873368D01*
X150788366Y-86871883D01*
X150992429Y-86810661D01*
X150992434Y-86810659D01*
X150997384Y-86809174D01*
X151197994Y-86710896D01*
X151379860Y-86581173D01*
X151396911Y-86564182D01*
X151534435Y-86427137D01*
X151538096Y-86423489D01*
X151668453Y-86242077D01*
X151681995Y-86214678D01*
X151765136Y-86046453D01*
X151765137Y-86046451D01*
X151767430Y-86041811D01*
X151821239Y-85864704D01*
X151830865Y-85833023D01*
X151830865Y-85833021D01*
X151832370Y-85828069D01*
X151861529Y-85606590D01*
X151861926Y-85590338D01*
X151863074Y-85543365D01*
X151863074Y-85543361D01*
X151863156Y-85540000D01*
X151844852Y-85317361D01*
X151790431Y-85100702D01*
X151701354Y-84895840D01*
X151620258Y-84770484D01*
X151582822Y-84712617D01*
X151582820Y-84712614D01*
X151580014Y-84708277D01*
X151576532Y-84704450D01*
X151432798Y-84546488D01*
X151401746Y-84482642D01*
X151410141Y-84412143D01*
X151455317Y-84357375D01*
X151481761Y-84343706D01*
X151588297Y-84303767D01*
X151596705Y-84300615D01*
X151713261Y-84213261D01*
X151800615Y-84096705D01*
X151851745Y-83960316D01*
X151858500Y-83898134D01*
X151858500Y-82101866D01*
X151851745Y-82039684D01*
X151800615Y-81903295D01*
X151749479Y-81835064D01*
X151724631Y-81768559D01*
X151739684Y-81699177D01*
X151789858Y-81648946D01*
X151850305Y-81633500D01*
X152171233Y-81633500D01*
X152182416Y-81634027D01*
X152189909Y-81635702D01*
X152197835Y-81635453D01*
X152197836Y-81635453D01*
X152257986Y-81633562D01*
X152261945Y-81633500D01*
X152289856Y-81633500D01*
X152293791Y-81633003D01*
X152293856Y-81632995D01*
X152305693Y-81632062D01*
X152337951Y-81631048D01*
X152341970Y-81630922D01*
X152349889Y-81630673D01*
X152369343Y-81625021D01*
X152388700Y-81621013D01*
X152400930Y-81619468D01*
X152400931Y-81619468D01*
X152408797Y-81618474D01*
X152416168Y-81615555D01*
X152416170Y-81615555D01*
X152449912Y-81602196D01*
X152461142Y-81598351D01*
X152495983Y-81588229D01*
X152495984Y-81588229D01*
X152503593Y-81586018D01*
X152510412Y-81581985D01*
X152510417Y-81581983D01*
X152521028Y-81575707D01*
X152538776Y-81567012D01*
X152557617Y-81559552D01*
X152593387Y-81533564D01*
X152603307Y-81527048D01*
X152634535Y-81508580D01*
X152634538Y-81508578D01*
X152641362Y-81504542D01*
X152655683Y-81490221D01*
X152670717Y-81477380D01*
X152671738Y-81476638D01*
X152687107Y-81465472D01*
X152715298Y-81431395D01*
X152723288Y-81422616D01*
X153642247Y-80503657D01*
X153650537Y-80496113D01*
X153657018Y-80492000D01*
X153703659Y-80442332D01*
X153706413Y-80439491D01*
X153726135Y-80419769D01*
X153728612Y-80416576D01*
X153736317Y-80407555D01*
X153761159Y-80381100D01*
X153766586Y-80375321D01*
X153770645Y-80367938D01*
X153776346Y-80357568D01*
X153787202Y-80341041D01*
X153794757Y-80331302D01*
X153794758Y-80331300D01*
X153799614Y-80325040D01*
X153817174Y-80284460D01*
X153822391Y-80273812D01*
X153839875Y-80242009D01*
X153839876Y-80242007D01*
X153843695Y-80235060D01*
X153848733Y-80215437D01*
X153855137Y-80196734D01*
X153860033Y-80185420D01*
X153860033Y-80185419D01*
X153863181Y-80178145D01*
X153864420Y-80170322D01*
X153864423Y-80170312D01*
X153870099Y-80134476D01*
X153872505Y-80122856D01*
X153881528Y-80087711D01*
X153881528Y-80087710D01*
X153883500Y-80080030D01*
X153883500Y-80059776D01*
X153885051Y-80040065D01*
X153886980Y-80027886D01*
X153888220Y-80020057D01*
X153884059Y-79976038D01*
X153883500Y-79964181D01*
X153883500Y-79953839D01*
X158237173Y-79953839D01*
X158237397Y-79958505D01*
X158237397Y-79958511D01*
X158243234Y-80080030D01*
X158249713Y-80214908D01*
X158300704Y-80471256D01*
X158389026Y-80717252D01*
X158395999Y-80730229D01*
X158497209Y-80918591D01*
X158512737Y-80947491D01*
X158515532Y-80951234D01*
X158515534Y-80951237D01*
X158666330Y-81153177D01*
X158666335Y-81153183D01*
X158669122Y-81156915D01*
X158672431Y-81160195D01*
X158672436Y-81160201D01*
X158788564Y-81275319D01*
X158854743Y-81340923D01*
X158858505Y-81343681D01*
X158858508Y-81343684D01*
X159031971Y-81470872D01*
X159065524Y-81495474D01*
X159069667Y-81497654D01*
X159069669Y-81497655D01*
X159292684Y-81614989D01*
X159292689Y-81614991D01*
X159296834Y-81617172D01*
X159385841Y-81648255D01*
X159531658Y-81699177D01*
X159543590Y-81703344D01*
X159548183Y-81704216D01*
X159795785Y-81751224D01*
X159795788Y-81751224D01*
X159800374Y-81752095D01*
X159930959Y-81757226D01*
X160056875Y-81762174D01*
X160056881Y-81762174D01*
X160061543Y-81762357D01*
X160140977Y-81753657D01*
X160316707Y-81734412D01*
X160316712Y-81734411D01*
X160321360Y-81733902D01*
X160391245Y-81715503D01*
X160569594Y-81668548D01*
X160569596Y-81668547D01*
X160574117Y-81667357D01*
X160625112Y-81645448D01*
X160697204Y-81614474D01*
X160814262Y-81564182D01*
X160863741Y-81533564D01*
X161032547Y-81429104D01*
X161032548Y-81429104D01*
X161036519Y-81426646D01*
X161040082Y-81423629D01*
X161040087Y-81423626D01*
X161232439Y-81260787D01*
X161232440Y-81260786D01*
X161236005Y-81257768D01*
X161336705Y-81142942D01*
X161405257Y-81064774D01*
X161405261Y-81064769D01*
X161408339Y-81061259D01*
X161411719Y-81056005D01*
X161547205Y-80845367D01*
X161549733Y-80841437D01*
X161657083Y-80603129D01*
X161679789Y-80522620D01*
X161726760Y-80356076D01*
X161726761Y-80356073D01*
X161728030Y-80351572D01*
X161741968Y-80242009D01*
X161760616Y-80095421D01*
X161760616Y-80095417D01*
X161761014Y-80092291D01*
X161763431Y-80000000D01*
X161759655Y-79949185D01*
X161744407Y-79744000D01*
X161744406Y-79743996D01*
X161744061Y-79739348D01*
X161733176Y-79691240D01*
X161694065Y-79518400D01*
X161686377Y-79484423D01*
X161683841Y-79477901D01*
X161593340Y-79245176D01*
X161593339Y-79245173D01*
X161591647Y-79240823D01*
X161578578Y-79217956D01*
X161523230Y-79121118D01*
X161461951Y-79013902D01*
X161300138Y-78808643D01*
X161109763Y-78629557D01*
X160928348Y-78503704D01*
X160898851Y-78483241D01*
X160898848Y-78483239D01*
X160895009Y-78480576D01*
X160887024Y-78476638D01*
X160664781Y-78367040D01*
X160664778Y-78367039D01*
X160660593Y-78364975D01*
X160629738Y-78355098D01*
X160416123Y-78286720D01*
X160411665Y-78285293D01*
X160153693Y-78243279D01*
X160039942Y-78241790D01*
X159897022Y-78239919D01*
X159897019Y-78239919D01*
X159892345Y-78239858D01*
X159633362Y-78275104D01*
X159628876Y-78276412D01*
X159628874Y-78276412D01*
X159600988Y-78284540D01*
X159382433Y-78348243D01*
X159378180Y-78350203D01*
X159378179Y-78350204D01*
X159341659Y-78367040D01*
X159145072Y-78457668D01*
X159106067Y-78483241D01*
X158930404Y-78598410D01*
X158930399Y-78598414D01*
X158926491Y-78600976D01*
X158731494Y-78775018D01*
X158564363Y-78975970D01*
X158561934Y-78979973D01*
X158512712Y-79061089D01*
X158428771Y-79199419D01*
X158327697Y-79440455D01*
X158263359Y-79693783D01*
X158262891Y-79698434D01*
X158262890Y-79698438D01*
X158255149Y-79775319D01*
X158237173Y-79953839D01*
X153883500Y-79953839D01*
X153883500Y-76409133D01*
X156455612Y-76409133D01*
X156464325Y-76420653D01*
X156562018Y-76492284D01*
X156569928Y-76497227D01*
X156792890Y-76614533D01*
X156801453Y-76618256D01*
X157039304Y-76701318D01*
X157048313Y-76703732D01*
X157295842Y-76750727D01*
X157305098Y-76751781D01*
X157556857Y-76761673D01*
X157566171Y-76761347D01*
X157816615Y-76733920D01*
X157825792Y-76732219D01*
X158069431Y-76668074D01*
X158078251Y-76665037D01*
X158309736Y-76565583D01*
X158318008Y-76561276D01*
X158532249Y-76428700D01*
X158539188Y-76423658D01*
X158547518Y-76411019D01*
X158546414Y-76409133D01*
X168955612Y-76409133D01*
X168964325Y-76420653D01*
X169062018Y-76492284D01*
X169069928Y-76497227D01*
X169292890Y-76614533D01*
X169301453Y-76618256D01*
X169539304Y-76701318D01*
X169548313Y-76703732D01*
X169795842Y-76750727D01*
X169805098Y-76751781D01*
X170056857Y-76761673D01*
X170066171Y-76761347D01*
X170316615Y-76733920D01*
X170325792Y-76732219D01*
X170569431Y-76668074D01*
X170578251Y-76665037D01*
X170809736Y-76565583D01*
X170818008Y-76561276D01*
X171032249Y-76428700D01*
X171039188Y-76423658D01*
X171047518Y-76411019D01*
X171041456Y-76400666D01*
X170012812Y-75372022D01*
X169998868Y-75364408D01*
X169997035Y-75364539D01*
X169990420Y-75368790D01*
X168962270Y-76396940D01*
X168955612Y-76409133D01*
X158546414Y-76409133D01*
X158541456Y-76400666D01*
X157512812Y-75372022D01*
X157498868Y-75364408D01*
X157497035Y-75364539D01*
X157490420Y-75368790D01*
X156462270Y-76396940D01*
X156455612Y-76409133D01*
X153883500Y-76409133D01*
X153883500Y-74958523D01*
X155737898Y-74958523D01*
X155749987Y-75210175D01*
X155751124Y-75219435D01*
X155800274Y-75466535D01*
X155802768Y-75475528D01*
X155887900Y-75712639D01*
X155891700Y-75721174D01*
X156010946Y-75943101D01*
X156015957Y-75950968D01*
X156079446Y-76035990D01*
X156090704Y-76044439D01*
X156103123Y-76037667D01*
X157127978Y-75012812D01*
X157135592Y-74998868D01*
X157135461Y-74997035D01*
X157131210Y-74990420D01*
X156101321Y-73960531D01*
X156088013Y-73953264D01*
X156077974Y-73960386D01*
X156067761Y-73972666D01*
X156062346Y-73980258D01*
X155931646Y-74195646D01*
X155927408Y-74203963D01*
X155829981Y-74436299D01*
X155827020Y-74445149D01*
X155765006Y-74689331D01*
X155763384Y-74698528D01*
X155738143Y-74949198D01*
X155737898Y-74958523D01*
X153883500Y-74958523D01*
X153883500Y-74564594D01*
X153903502Y-74496473D01*
X153920405Y-74475499D01*
X155225500Y-73170405D01*
X155287812Y-73136379D01*
X155314595Y-73133500D01*
X156775164Y-73133500D01*
X156843285Y-73153502D01*
X156889778Y-73207158D01*
X156899882Y-73277432D01*
X156870388Y-73342012D01*
X156827916Y-73373926D01*
X156649558Y-73456151D01*
X156641406Y-73460670D01*
X156462353Y-73578062D01*
X156453216Y-73588803D01*
X156457789Y-73598579D01*
X158899913Y-76040703D01*
X158912293Y-76047463D01*
X158920634Y-76041219D01*
X159046765Y-75845127D01*
X159051212Y-75836936D01*
X159154691Y-75607222D01*
X159157882Y-75598455D01*
X159226269Y-75355976D01*
X159228129Y-75346834D01*
X159260116Y-75095396D01*
X159260597Y-75089108D01*
X159262847Y-75003160D01*
X159262696Y-74996851D01*
X159259848Y-74958523D01*
X168237898Y-74958523D01*
X168249987Y-75210175D01*
X168251124Y-75219435D01*
X168300274Y-75466535D01*
X168302768Y-75475528D01*
X168387900Y-75712639D01*
X168391700Y-75721174D01*
X168510946Y-75943101D01*
X168515957Y-75950968D01*
X168579446Y-76035990D01*
X168590704Y-76044439D01*
X168603123Y-76037667D01*
X169627978Y-75012812D01*
X169635592Y-74998868D01*
X169635461Y-74997035D01*
X169631210Y-74990420D01*
X168601321Y-73960531D01*
X168588013Y-73953264D01*
X168577974Y-73960386D01*
X168567761Y-73972666D01*
X168562346Y-73980258D01*
X168431646Y-74195646D01*
X168427408Y-74203963D01*
X168329981Y-74436299D01*
X168327020Y-74445149D01*
X168265006Y-74689331D01*
X168263384Y-74698528D01*
X168238143Y-74949198D01*
X168237898Y-74958523D01*
X159259848Y-74958523D01*
X159243912Y-74744074D01*
X159242536Y-74734868D01*
X159186929Y-74489126D01*
X159184205Y-74480215D01*
X159092888Y-74245392D01*
X159088877Y-74236983D01*
X158973213Y-74034613D01*
X158956776Y-73965545D01*
X158980289Y-73898556D01*
X159036287Y-73854912D01*
X159106991Y-73848472D01*
X159148441Y-73864658D01*
X159263268Y-73935025D01*
X159263278Y-73935030D01*
X159267498Y-73937616D01*
X159272068Y-73939509D01*
X159272072Y-73939511D01*
X159472706Y-74022616D01*
X159501409Y-74034505D01*
X159579555Y-74053266D01*
X159742784Y-74092454D01*
X159742790Y-74092455D01*
X159747597Y-74093609D01*
X160000000Y-74113474D01*
X160252403Y-74093609D01*
X160257210Y-74092455D01*
X160257216Y-74092454D01*
X160420445Y-74053266D01*
X160498591Y-74034505D01*
X160527294Y-74022616D01*
X160727928Y-73939511D01*
X160727932Y-73939509D01*
X160732502Y-73937616D01*
X160948376Y-73805328D01*
X161140898Y-73640898D01*
X161185392Y-73588803D01*
X168953216Y-73588803D01*
X168957789Y-73598579D01*
X169987188Y-74627978D01*
X170001132Y-74635592D01*
X170002965Y-74635461D01*
X170009580Y-74631210D01*
X171038419Y-73602371D01*
X171044803Y-73590681D01*
X171035391Y-73578570D01*
X170898593Y-73483670D01*
X170890565Y-73478942D01*
X170664593Y-73367505D01*
X170655960Y-73364017D01*
X170415998Y-73287205D01*
X170406938Y-73285029D01*
X170158260Y-73244529D01*
X170148973Y-73243717D01*
X169897053Y-73240419D01*
X169887742Y-73240989D01*
X169638097Y-73274964D01*
X169628978Y-73276902D01*
X169387098Y-73347404D01*
X169378367Y-73350667D01*
X169149558Y-73456151D01*
X169141406Y-73460670D01*
X168962353Y-73578062D01*
X168953216Y-73588803D01*
X161185392Y-73588803D01*
X161305328Y-73448376D01*
X161437616Y-73232502D01*
X161446407Y-73211280D01*
X161532611Y-73003164D01*
X161532612Y-73003162D01*
X161534505Y-72998591D01*
X161554821Y-72913968D01*
X161592454Y-72757216D01*
X161592455Y-72757210D01*
X161593609Y-72752403D01*
X161613474Y-72500000D01*
X161593609Y-72247597D01*
X161534505Y-72001409D01*
X161532040Y-71995458D01*
X161439511Y-71772072D01*
X161439509Y-71772068D01*
X161437616Y-71767498D01*
X161396152Y-71699835D01*
X161377614Y-71631301D01*
X161399070Y-71563625D01*
X161453709Y-71518292D01*
X161503585Y-71508000D01*
X171866000Y-71508000D01*
X171934121Y-71528002D01*
X171980614Y-71581658D01*
X171992000Y-71634000D01*
X171992000Y-74709586D01*
X171971998Y-74777707D01*
X171918342Y-74824200D01*
X171848068Y-74834304D01*
X171783488Y-74804810D01*
X171745104Y-74745084D01*
X171743107Y-74737394D01*
X171686929Y-74489126D01*
X171684205Y-74480215D01*
X171592888Y-74245392D01*
X171588877Y-74236983D01*
X171463854Y-74018240D01*
X171458643Y-74010514D01*
X171421391Y-73963261D01*
X171409466Y-73954790D01*
X171397934Y-73961276D01*
X170372022Y-74987188D01*
X170364408Y-75001132D01*
X170364539Y-75002965D01*
X170368790Y-75009580D01*
X171399913Y-76040703D01*
X171412293Y-76047463D01*
X171420634Y-76041219D01*
X171546765Y-75845127D01*
X171551212Y-75836936D01*
X171654691Y-75607222D01*
X171657882Y-75598455D01*
X171726269Y-75355976D01*
X171728129Y-75346834D01*
X171741007Y-75245604D01*
X171769446Y-75180552D01*
X171828540Y-75141202D01*
X171899527Y-75140048D01*
X171959870Y-75177455D01*
X171990409Y-75241547D01*
X171992000Y-75261505D01*
X171992000Y-84709586D01*
X171971998Y-84777707D01*
X171918342Y-84824200D01*
X171848068Y-84834304D01*
X171783488Y-84804810D01*
X171745104Y-84745084D01*
X171743107Y-84737394D01*
X171686929Y-84489126D01*
X171684205Y-84480215D01*
X171592888Y-84245392D01*
X171588877Y-84236983D01*
X171463854Y-84018240D01*
X171458643Y-84010514D01*
X171421391Y-83963261D01*
X171409466Y-83954790D01*
X171397934Y-83961276D01*
X170372022Y-84987188D01*
X170364408Y-85001132D01*
X170364539Y-85002965D01*
X170368790Y-85009580D01*
X171399913Y-86040703D01*
X171412293Y-86047463D01*
X171420634Y-86041219D01*
X171546765Y-85845127D01*
X171551212Y-85836936D01*
X171654691Y-85607222D01*
X171657882Y-85598455D01*
X171726269Y-85355976D01*
X171728129Y-85346834D01*
X171741007Y-85245604D01*
X171769446Y-85180552D01*
X171828540Y-85141202D01*
X171899527Y-85140048D01*
X171959870Y-85177455D01*
X171990409Y-85241547D01*
X171992000Y-85261505D01*
X171992000Y-88366000D01*
X171971998Y-88434121D01*
X171918342Y-88480614D01*
X171866000Y-88492000D01*
X161676862Y-88492000D01*
X161608741Y-88471998D01*
X161562248Y-88418342D01*
X161552144Y-88348068D01*
X161561980Y-88314249D01*
X161603822Y-88221365D01*
X161657083Y-88103129D01*
X161713011Y-87904826D01*
X161726760Y-87856076D01*
X161726761Y-87856073D01*
X161728030Y-87851572D01*
X161744832Y-87719496D01*
X161760616Y-87595421D01*
X161760616Y-87595417D01*
X161761014Y-87592291D01*
X161762034Y-87553366D01*
X161763348Y-87503160D01*
X161763431Y-87500000D01*
X161744061Y-87239348D01*
X161737198Y-87209015D01*
X161687408Y-86988980D01*
X161686377Y-86984423D01*
X161651119Y-86893757D01*
X161593340Y-86745176D01*
X161593339Y-86745173D01*
X161591647Y-86740823D01*
X161587692Y-86733902D01*
X161541404Y-86652916D01*
X161461951Y-86513902D01*
X161379358Y-86409133D01*
X168955612Y-86409133D01*
X168964325Y-86420653D01*
X169062018Y-86492284D01*
X169069928Y-86497227D01*
X169292890Y-86614533D01*
X169301453Y-86618256D01*
X169539304Y-86701318D01*
X169548313Y-86703732D01*
X169795842Y-86750727D01*
X169805098Y-86751781D01*
X170056857Y-86761673D01*
X170066171Y-86761347D01*
X170316615Y-86733920D01*
X170325792Y-86732219D01*
X170569431Y-86668074D01*
X170578251Y-86665037D01*
X170809736Y-86565583D01*
X170818008Y-86561276D01*
X171032249Y-86428700D01*
X171039188Y-86423658D01*
X171047518Y-86411019D01*
X171041456Y-86400666D01*
X170012812Y-85372022D01*
X169998868Y-85364408D01*
X169997035Y-85364539D01*
X169990420Y-85368790D01*
X168962270Y-86396940D01*
X168955612Y-86409133D01*
X161379358Y-86409133D01*
X161300138Y-86308643D01*
X161109763Y-86129557D01*
X160895009Y-85980576D01*
X160890816Y-85978508D01*
X160664781Y-85867040D01*
X160664778Y-85867039D01*
X160660593Y-85864975D01*
X160614449Y-85850204D01*
X160416123Y-85786720D01*
X160411665Y-85785293D01*
X160153693Y-85743279D01*
X160039942Y-85741790D01*
X159897022Y-85739919D01*
X159897019Y-85739919D01*
X159892345Y-85739858D01*
X159633362Y-85775104D01*
X159382433Y-85848243D01*
X159378180Y-85850203D01*
X159378179Y-85850204D01*
X159264710Y-85902514D01*
X159194473Y-85912869D01*
X159129787Y-85883606D01*
X159091190Y-85824018D01*
X159090937Y-85753021D01*
X159097077Y-85736337D01*
X159100060Y-85729715D01*
X159157083Y-85603129D01*
X159175833Y-85536646D01*
X159226760Y-85356076D01*
X159226761Y-85356073D01*
X159228030Y-85351572D01*
X159244840Y-85219435D01*
X159260616Y-85095421D01*
X159260616Y-85095417D01*
X159261014Y-85092291D01*
X159261103Y-85088921D01*
X159263348Y-85003160D01*
X159263431Y-85000000D01*
X159263197Y-84996851D01*
X159260349Y-84958523D01*
X168237898Y-84958523D01*
X168249987Y-85210175D01*
X168251124Y-85219435D01*
X168300274Y-85466535D01*
X168302768Y-85475528D01*
X168387900Y-85712639D01*
X168391700Y-85721174D01*
X168510946Y-85943101D01*
X168515957Y-85950968D01*
X168579446Y-86035990D01*
X168590704Y-86044439D01*
X168603123Y-86037667D01*
X169627978Y-85012812D01*
X169635592Y-84998868D01*
X169635461Y-84997035D01*
X169631210Y-84990420D01*
X168601321Y-83960531D01*
X168588013Y-83953264D01*
X168577974Y-83960386D01*
X168567761Y-83972666D01*
X168562346Y-83980258D01*
X168431646Y-84195646D01*
X168427408Y-84203963D01*
X168329981Y-84436299D01*
X168327020Y-84445149D01*
X168265006Y-84689331D01*
X168263384Y-84698528D01*
X168238143Y-84949198D01*
X168237898Y-84958523D01*
X159260349Y-84958523D01*
X159244407Y-84744000D01*
X159244406Y-84743996D01*
X159244061Y-84739348D01*
X159240843Y-84725123D01*
X159187408Y-84488980D01*
X159186377Y-84484423D01*
X159131656Y-84343706D01*
X159093340Y-84245176D01*
X159093339Y-84245173D01*
X159091647Y-84240823D01*
X158961951Y-84013902D01*
X158800138Y-83808643D01*
X158609763Y-83629557D01*
X158551017Y-83588803D01*
X168953216Y-83588803D01*
X168957789Y-83598579D01*
X169987188Y-84627978D01*
X170001132Y-84635592D01*
X170002965Y-84635461D01*
X170009580Y-84631210D01*
X171038419Y-83602371D01*
X171044803Y-83590681D01*
X171035391Y-83578570D01*
X170898593Y-83483670D01*
X170890565Y-83478942D01*
X170664593Y-83367505D01*
X170655960Y-83364017D01*
X170415998Y-83287205D01*
X170406938Y-83285029D01*
X170158260Y-83244529D01*
X170148973Y-83243717D01*
X169897053Y-83240419D01*
X169887742Y-83240989D01*
X169638097Y-83274964D01*
X169628978Y-83276902D01*
X169387098Y-83347404D01*
X169378367Y-83350667D01*
X169149558Y-83456151D01*
X169141406Y-83460670D01*
X168962353Y-83578062D01*
X168953216Y-83588803D01*
X158551017Y-83588803D01*
X158449954Y-83518693D01*
X158398851Y-83483241D01*
X158398848Y-83483239D01*
X158395009Y-83480576D01*
X158354644Y-83460670D01*
X158164781Y-83367040D01*
X158164778Y-83367039D01*
X158160593Y-83364975D01*
X158114449Y-83350204D01*
X157916123Y-83286720D01*
X157911665Y-83285293D01*
X157653693Y-83243279D01*
X157539942Y-83241790D01*
X157397022Y-83239919D01*
X157397019Y-83239919D01*
X157392345Y-83239858D01*
X157133362Y-83275104D01*
X156882433Y-83348243D01*
X156878180Y-83350203D01*
X156878179Y-83350204D01*
X156837863Y-83368790D01*
X156645072Y-83457668D01*
X156606141Y-83483192D01*
X156430404Y-83598410D01*
X156430399Y-83598414D01*
X156426491Y-83600976D01*
X156231494Y-83775018D01*
X156064363Y-83975970D01*
X156061934Y-83979973D01*
X155935657Y-84188072D01*
X155928771Y-84199419D01*
X155827697Y-84440455D01*
X155763359Y-84693783D01*
X155762891Y-84698434D01*
X155762890Y-84698438D01*
X155755897Y-84767887D01*
X155737173Y-84953839D01*
X155737397Y-84958505D01*
X155737397Y-84958511D01*
X155740135Y-85015507D01*
X155749713Y-85214908D01*
X155800704Y-85471256D01*
X155889026Y-85717252D01*
X155891242Y-85721376D01*
X155978411Y-85883606D01*
X156012737Y-85947491D01*
X156015532Y-85951234D01*
X156015534Y-85951237D01*
X156166330Y-86153177D01*
X156166335Y-86153183D01*
X156169122Y-86156915D01*
X156172431Y-86160195D01*
X156172436Y-86160201D01*
X156270859Y-86257768D01*
X156354743Y-86340923D01*
X156358505Y-86343681D01*
X156358508Y-86343684D01*
X156538924Y-86475970D01*
X156565524Y-86495474D01*
X156569667Y-86497654D01*
X156569669Y-86497655D01*
X156792684Y-86614989D01*
X156792689Y-86614991D01*
X156796834Y-86617172D01*
X156899188Y-86652916D01*
X157032351Y-86699419D01*
X157043590Y-86703344D01*
X157048183Y-86704216D01*
X157295785Y-86751224D01*
X157295788Y-86751224D01*
X157300374Y-86752095D01*
X157430959Y-86757226D01*
X157556875Y-86762174D01*
X157556881Y-86762174D01*
X157561543Y-86762357D01*
X157640977Y-86753657D01*
X157816707Y-86734412D01*
X157816712Y-86734411D01*
X157821360Y-86733902D01*
X157900095Y-86713173D01*
X158069594Y-86668548D01*
X158069596Y-86668547D01*
X158074117Y-86667357D01*
X158236571Y-86597561D01*
X158307056Y-86589049D01*
X158370953Y-86619994D01*
X158407977Y-86680573D01*
X158406372Y-86751551D01*
X158402506Y-86762054D01*
X158327697Y-86940455D01*
X158263359Y-87193783D01*
X158262891Y-87198434D01*
X158262890Y-87198438D01*
X158259229Y-87234794D01*
X158237173Y-87453839D01*
X158237397Y-87458505D01*
X158237397Y-87458511D01*
X158241954Y-87553366D01*
X158249713Y-87714908D01*
X158300704Y-87971256D01*
X158389026Y-88217252D01*
X158436908Y-88306364D01*
X158451529Y-88375837D01*
X158426270Y-88442188D01*
X158369149Y-88484350D01*
X158325914Y-88492000D01*
X142585588Y-88492000D01*
X142517467Y-88471998D01*
X142470974Y-88418342D01*
X142460796Y-88383408D01*
X142444367Y-88265633D01*
X142444366Y-88265630D01*
X142443964Y-88262745D01*
X142359115Y-87901987D01*
X142241341Y-87550597D01*
X142091647Y-87211572D01*
X142084332Y-87198438D01*
X141912732Y-86890359D01*
X141911310Y-86887806D01*
X141701870Y-86582060D01*
X141700022Y-86579834D01*
X141700014Y-86579824D01*
X141466969Y-86299179D01*
X141466966Y-86299176D01*
X141465112Y-86296943D01*
X141203057Y-86034888D01*
X141176968Y-86013224D01*
X140929786Y-85807966D01*
X144088257Y-85807966D01*
X144118565Y-85942446D01*
X144121645Y-85952275D01*
X144201770Y-86149603D01*
X144206413Y-86158794D01*
X144317694Y-86340388D01*
X144323777Y-86348699D01*
X144463213Y-86509667D01*
X144470580Y-86516883D01*
X144634434Y-86652916D01*
X144642881Y-86658831D01*
X144826756Y-86766279D01*
X144836042Y-86770729D01*
X145035001Y-86846703D01*
X145044899Y-86849579D01*
X145148250Y-86870606D01*
X145162299Y-86869410D01*
X145166000Y-86859065D01*
X145166000Y-85812115D01*
X145161525Y-85796876D01*
X145160135Y-85795671D01*
X145152452Y-85794000D01*
X144103225Y-85794000D01*
X144089694Y-85797973D01*
X144088257Y-85807966D01*
X140929786Y-85807966D01*
X140920176Y-85799986D01*
X140920166Y-85799978D01*
X140917940Y-85798130D01*
X140612194Y-85588690D01*
X140393138Y-85466676D01*
X140290985Y-85409777D01*
X140290981Y-85409775D01*
X140288428Y-85408353D01*
X139949403Y-85258659D01*
X139598013Y-85140885D01*
X139595180Y-85140219D01*
X139595174Y-85140217D01*
X139404711Y-85095421D01*
X139237255Y-85056036D01*
X139234370Y-85055634D01*
X139234367Y-85055633D01*
X138904222Y-85009580D01*
X138870206Y-85004835D01*
X138867322Y-85004702D01*
X138867315Y-85004701D01*
X138697516Y-84996851D01*
X138531344Y-84989168D01*
X138521212Y-84988085D01*
X138517351Y-84987739D01*
X138512539Y-84986929D01*
X138505999Y-84986849D01*
X138504859Y-84986835D01*
X138504855Y-84986835D01*
X138500000Y-84986776D01*
X138473704Y-84990542D01*
X138472412Y-84990727D01*
X138454549Y-84992000D01*
X129132437Y-84992000D01*
X129064316Y-84971998D01*
X129017823Y-84918342D01*
X129007719Y-84848068D01*
X129037213Y-84783488D01*
X129077895Y-84752417D01*
X129208632Y-84689638D01*
X129208633Y-84689637D01*
X129212651Y-84687708D01*
X129216357Y-84685232D01*
X129437146Y-84537706D01*
X129437150Y-84537703D01*
X129440848Y-84535232D01*
X129645283Y-84352124D01*
X129821880Y-84142037D01*
X129841240Y-84110995D01*
X129886970Y-84037668D01*
X129967112Y-83909164D01*
X130078084Y-83658151D01*
X130084358Y-83635907D01*
X130105458Y-83561089D01*
X130152581Y-83394006D01*
X130167183Y-83285293D01*
X130188689Y-83125181D01*
X130188690Y-83125173D01*
X130189116Y-83121999D01*
X130189217Y-83118788D01*
X130192849Y-83003222D01*
X130192849Y-83003217D01*
X130192950Y-83000000D01*
X130190888Y-82970872D01*
X133387634Y-82970872D01*
X133400953Y-83174072D01*
X133451079Y-83371443D01*
X133481249Y-83436887D01*
X133530629Y-83543999D01*
X133536333Y-83556373D01*
X133653861Y-83722671D01*
X133799726Y-83864767D01*
X133804522Y-83867972D01*
X133804525Y-83867974D01*
X133871844Y-83912955D01*
X133969043Y-83977901D01*
X133974346Y-83980179D01*
X133974349Y-83980181D01*
X134109837Y-84038391D01*
X134156142Y-84058285D01*
X134229609Y-84074909D01*
X134349120Y-84101952D01*
X134349126Y-84101953D01*
X134354757Y-84103227D01*
X134360528Y-84103454D01*
X134360530Y-84103454D01*
X134421504Y-84105850D01*
X134558237Y-84111222D01*
X134663588Y-84095947D01*
X134754045Y-84082832D01*
X134754050Y-84082831D01*
X134759766Y-84082002D01*
X134765238Y-84080144D01*
X134765240Y-84080144D01*
X134853567Y-84050161D01*
X138314393Y-84050161D01*
X138323687Y-84062175D01*
X138364088Y-84090464D01*
X138373584Y-84095947D01*
X138563113Y-84184326D01*
X138573405Y-84188072D01*
X138775401Y-84242196D01*
X138786196Y-84244099D01*
X138994525Y-84262326D01*
X139005475Y-84262326D01*
X139213804Y-84244099D01*
X139224599Y-84242196D01*
X139426595Y-84188072D01*
X139436887Y-84184326D01*
X139626416Y-84095947D01*
X139635912Y-84090464D01*
X139677148Y-84061590D01*
X139685523Y-84051112D01*
X139678457Y-84037668D01*
X139012811Y-83372021D01*
X138998868Y-83364408D01*
X138997034Y-83364539D01*
X138990420Y-83368790D01*
X138320820Y-84038391D01*
X138314393Y-84050161D01*
X134853567Y-84050161D01*
X134947131Y-84018400D01*
X134947133Y-84018399D01*
X134952595Y-84016545D01*
X135130267Y-83917044D01*
X135135184Y-83912955D01*
X135260605Y-83808643D01*
X135286831Y-83786831D01*
X135417044Y-83630267D01*
X135516545Y-83452595D01*
X135536434Y-83394006D01*
X135580144Y-83265240D01*
X135580144Y-83265238D01*
X135582002Y-83259766D01*
X135582831Y-83254050D01*
X135582832Y-83254045D01*
X135610689Y-83061911D01*
X135611222Y-83058237D01*
X135612604Y-83005475D01*
X137737674Y-83005475D01*
X137755901Y-83213804D01*
X137757804Y-83224599D01*
X137811928Y-83426595D01*
X137815674Y-83436887D01*
X137904054Y-83626417D01*
X137909534Y-83635907D01*
X137938411Y-83677149D01*
X137948887Y-83685523D01*
X137962334Y-83678455D01*
X138627979Y-83012811D01*
X138635592Y-82998868D01*
X138635461Y-82997034D01*
X138631210Y-82990420D01*
X137961609Y-82320820D01*
X137949839Y-82314393D01*
X137937824Y-82323689D01*
X137909534Y-82364093D01*
X137904054Y-82373583D01*
X137815674Y-82563113D01*
X137811928Y-82573405D01*
X137757804Y-82775401D01*
X137755901Y-82786196D01*
X137737674Y-82994525D01*
X137737674Y-83005475D01*
X135612604Y-83005475D01*
X135612747Y-83000000D01*
X135594114Y-82797218D01*
X135591006Y-82786196D01*
X135540408Y-82606791D01*
X135538839Y-82601227D01*
X135473015Y-82467749D01*
X135451328Y-82423772D01*
X135448773Y-82418591D01*
X135426989Y-82389418D01*
X135330385Y-82260051D01*
X135326932Y-82255427D01*
X135177397Y-82117198D01*
X135088470Y-82061089D01*
X135010057Y-82011614D01*
X135005177Y-82008535D01*
X134816037Y-81933076D01*
X134810377Y-81931950D01*
X134810373Y-81931949D01*
X134621982Y-81894476D01*
X134621977Y-81894476D01*
X134616314Y-81893349D01*
X134610539Y-81893273D01*
X134610535Y-81893273D01*
X134508527Y-81891938D01*
X134412695Y-81890683D01*
X134406998Y-81891662D01*
X134406997Y-81891662D01*
X134267193Y-81915685D01*
X134212000Y-81925169D01*
X134020950Y-81995651D01*
X134015989Y-81998603D01*
X134015988Y-81998603D01*
X133850912Y-82096813D01*
X133850909Y-82096815D01*
X133845944Y-82099769D01*
X133692842Y-82234036D01*
X133566772Y-82393955D01*
X133564083Y-82399066D01*
X133564081Y-82399069D01*
X133554624Y-82417044D01*
X133471956Y-82574170D01*
X133470242Y-82579691D01*
X133470240Y-82579695D01*
X133413376Y-82762828D01*
X133411569Y-82768647D01*
X133387634Y-82970872D01*
X130190888Y-82970872D01*
X130173566Y-82726236D01*
X130171554Y-82716888D01*
X130116739Y-82462281D01*
X130116738Y-82462279D01*
X130115803Y-82457934D01*
X130020811Y-82200448D01*
X129918922Y-82011614D01*
X129892600Y-81962831D01*
X129890487Y-81958915D01*
X129727431Y-81738155D01*
X129723747Y-81734412D01*
X129626575Y-81635702D01*
X129534896Y-81542572D01*
X129531357Y-81539871D01*
X129531350Y-81539865D01*
X129440947Y-81470872D01*
X135387634Y-81470872D01*
X135400953Y-81674072D01*
X135451079Y-81871443D01*
X135536333Y-82056373D01*
X135653861Y-82222671D01*
X135799726Y-82364767D01*
X135804522Y-82367972D01*
X135804525Y-82367974D01*
X135877964Y-82417044D01*
X135969043Y-82477901D01*
X135974346Y-82480179D01*
X135974349Y-82480181D01*
X136058989Y-82516545D01*
X136156142Y-82558285D01*
X136222963Y-82573405D01*
X136349120Y-82601952D01*
X136349126Y-82601953D01*
X136354757Y-82603227D01*
X136360528Y-82603454D01*
X136360530Y-82603454D01*
X136421504Y-82605850D01*
X136558237Y-82611222D01*
X136662919Y-82596044D01*
X136754045Y-82582832D01*
X136754050Y-82582831D01*
X136759766Y-82582002D01*
X136765238Y-82580144D01*
X136765240Y-82580144D01*
X136947131Y-82518400D01*
X136947133Y-82518399D01*
X136952595Y-82516545D01*
X137130267Y-82417044D01*
X137158029Y-82393955D01*
X137282393Y-82290522D01*
X137286831Y-82286831D01*
X137417044Y-82130267D01*
X137516545Y-81952595D01*
X137522445Y-81935216D01*
X137580144Y-81765240D01*
X137580144Y-81765238D01*
X137582002Y-81759766D01*
X137582831Y-81754050D01*
X137582832Y-81754045D01*
X137609421Y-81570659D01*
X137611222Y-81558237D01*
X137612747Y-81500000D01*
X137594114Y-81297218D01*
X137589436Y-81280629D01*
X137555471Y-81160201D01*
X137538839Y-81101227D01*
X137448773Y-80918591D01*
X137426989Y-80889418D01*
X137330385Y-80760051D01*
X137326932Y-80755427D01*
X137177397Y-80617198D01*
X137088470Y-80561089D01*
X137010057Y-80511614D01*
X137005177Y-80508535D01*
X136816037Y-80433076D01*
X136810377Y-80431950D01*
X136810373Y-80431949D01*
X136621982Y-80394476D01*
X136621977Y-80394476D01*
X136616314Y-80393349D01*
X136610539Y-80393273D01*
X136610535Y-80393273D01*
X136508527Y-80391938D01*
X136412695Y-80390683D01*
X136406998Y-80391662D01*
X136406997Y-80391662D01*
X136217697Y-80424190D01*
X136212000Y-80425169D01*
X136020950Y-80495651D01*
X136015989Y-80498603D01*
X136015988Y-80498603D01*
X135850912Y-80596813D01*
X135850909Y-80596815D01*
X135845944Y-80599769D01*
X135692842Y-80734036D01*
X135566772Y-80893955D01*
X135564083Y-80899066D01*
X135564081Y-80899069D01*
X135554624Y-80917044D01*
X135471956Y-81074170D01*
X135470242Y-81079691D01*
X135470240Y-81079695D01*
X135413376Y-81262828D01*
X135411569Y-81268647D01*
X135387634Y-81470872D01*
X129440947Y-81470872D01*
X129320264Y-81378770D01*
X129316724Y-81376068D01*
X129248097Y-81337635D01*
X129081154Y-81244142D01*
X129081151Y-81244141D01*
X129077268Y-81241966D01*
X129073129Y-81240365D01*
X129073121Y-81240361D01*
X128847762Y-81153177D01*
X128821306Y-81142942D01*
X128816981Y-81141939D01*
X128816976Y-81141938D01*
X128656525Y-81104748D01*
X128553944Y-81080971D01*
X128280519Y-81057290D01*
X128276084Y-81057534D01*
X128276080Y-81057534D01*
X128010927Y-81072126D01*
X128010920Y-81072127D01*
X128006484Y-81072371D01*
X127737308Y-81125913D01*
X127478362Y-81216849D01*
X127474411Y-81218902D01*
X127474405Y-81218904D01*
X127245838Y-81337635D01*
X127234811Y-81343363D01*
X127231196Y-81345946D01*
X127231190Y-81345950D01*
X127015138Y-81500343D01*
X127015134Y-81500346D01*
X127011517Y-81502931D01*
X126812934Y-81692370D01*
X126693306Y-81844118D01*
X126648706Y-81900693D01*
X126643024Y-81907900D01*
X126640792Y-81911742D01*
X126640789Y-81911747D01*
X126507415Y-82141366D01*
X126507412Y-82141372D01*
X126505177Y-82145220D01*
X126503503Y-82149353D01*
X126500784Y-82156066D01*
X126456672Y-82211695D01*
X126389487Y-82234644D01*
X126320560Y-82217628D01*
X126271774Y-82166048D01*
X126258000Y-82108764D01*
X126258000Y-79970872D01*
X133387634Y-79970872D01*
X133400953Y-80174072D01*
X133451079Y-80371443D01*
X133536333Y-80556373D01*
X133653861Y-80722671D01*
X133799726Y-80864767D01*
X133804522Y-80867972D01*
X133804525Y-80867974D01*
X133941016Y-80959174D01*
X133969043Y-80977901D01*
X133974346Y-80980179D01*
X133974349Y-80980181D01*
X134058989Y-81016545D01*
X134156142Y-81058285D01*
X134222234Y-81073240D01*
X134349120Y-81101952D01*
X134349126Y-81101953D01*
X134354757Y-81103227D01*
X134360528Y-81103454D01*
X134360530Y-81103454D01*
X134421504Y-81105850D01*
X134558237Y-81111222D01*
X134662919Y-81096044D01*
X134754045Y-81082832D01*
X134754050Y-81082831D01*
X134759766Y-81082002D01*
X134765238Y-81080144D01*
X134765240Y-81080144D01*
X134947131Y-81018400D01*
X134947133Y-81018399D01*
X134952595Y-81016545D01*
X135130267Y-80917044D01*
X135158029Y-80893955D01*
X135282393Y-80790522D01*
X135286831Y-80786831D01*
X135417044Y-80630267D01*
X135516545Y-80452595D01*
X135520029Y-80442333D01*
X135580144Y-80265240D01*
X135580144Y-80265238D01*
X135582002Y-80259766D01*
X135582831Y-80254050D01*
X135582832Y-80254045D01*
X135601853Y-80122856D01*
X135611222Y-80058237D01*
X135612747Y-80000000D01*
X135594114Y-79797218D01*
X135589436Y-79780629D01*
X135540408Y-79606791D01*
X135538839Y-79601227D01*
X135448773Y-79418591D01*
X135426989Y-79389418D01*
X135330385Y-79260051D01*
X135326932Y-79255427D01*
X135177397Y-79117198D01*
X135088470Y-79061089D01*
X135010057Y-79011614D01*
X135005177Y-79008535D01*
X134816037Y-78933076D01*
X134810377Y-78931950D01*
X134810373Y-78931949D01*
X134621982Y-78894476D01*
X134621977Y-78894476D01*
X134616314Y-78893349D01*
X134610539Y-78893273D01*
X134610535Y-78893273D01*
X134508527Y-78891938D01*
X134412695Y-78890683D01*
X134406998Y-78891662D01*
X134406997Y-78891662D01*
X134305509Y-78909101D01*
X134212000Y-78925169D01*
X134020950Y-78995651D01*
X134015989Y-78998603D01*
X134015988Y-78998603D01*
X133850912Y-79096813D01*
X133850909Y-79096815D01*
X133845944Y-79099769D01*
X133692842Y-79234036D01*
X133689267Y-79238571D01*
X133689266Y-79238572D01*
X133684060Y-79245176D01*
X133566772Y-79393955D01*
X133564083Y-79399066D01*
X133564081Y-79399069D01*
X133554624Y-79417044D01*
X133471956Y-79574170D01*
X133470242Y-79579691D01*
X133470240Y-79579695D01*
X133413376Y-79762828D01*
X133411569Y-79768647D01*
X133387634Y-79970872D01*
X126258000Y-79970872D01*
X126258000Y-77883439D01*
X126278002Y-77815318D01*
X126331658Y-77768825D01*
X126401932Y-77758721D01*
X126466512Y-77788215D01*
X126496713Y-77827120D01*
X126542419Y-77918591D01*
X126577621Y-77989042D01*
X126733663Y-78214815D01*
X126798116Y-78284540D01*
X126874378Y-78367040D01*
X126919959Y-78416350D01*
X126923413Y-78419162D01*
X127129337Y-78586810D01*
X127129341Y-78586813D01*
X127132794Y-78589624D01*
X127151650Y-78600976D01*
X127348303Y-78719371D01*
X127367919Y-78731181D01*
X127429620Y-78757308D01*
X127616542Y-78836460D01*
X127616547Y-78836462D01*
X127620645Y-78838197D01*
X127624942Y-78839336D01*
X127624947Y-78839338D01*
X127731373Y-78867556D01*
X127885927Y-78908535D01*
X128158475Y-78940793D01*
X128432848Y-78934327D01*
X128475847Y-78927170D01*
X128699183Y-78889997D01*
X128699187Y-78889996D01*
X128703573Y-78889266D01*
X128707814Y-78887925D01*
X128707817Y-78887924D01*
X128961002Y-78807852D01*
X128961004Y-78807851D01*
X128965248Y-78806509D01*
X128969259Y-78804583D01*
X128969264Y-78804581D01*
X129208632Y-78689638D01*
X129208633Y-78689637D01*
X129212651Y-78687708D01*
X129233059Y-78674072D01*
X129437146Y-78537706D01*
X129437150Y-78537703D01*
X129440848Y-78535232D01*
X129512704Y-78470872D01*
X135387634Y-78470872D01*
X135400953Y-78674072D01*
X135451079Y-78871443D01*
X135536333Y-79056373D01*
X135653861Y-79222671D01*
X135799726Y-79364767D01*
X135804522Y-79367972D01*
X135804525Y-79367974D01*
X135877964Y-79417044D01*
X135969043Y-79477901D01*
X135974346Y-79480179D01*
X135974349Y-79480181D01*
X136058989Y-79516545D01*
X136156142Y-79558285D01*
X136226344Y-79574170D01*
X136349120Y-79601952D01*
X136349126Y-79601953D01*
X136354757Y-79603227D01*
X136360528Y-79603454D01*
X136360530Y-79603454D01*
X136421504Y-79605850D01*
X136558237Y-79611222D01*
X136662919Y-79596044D01*
X136754045Y-79582832D01*
X136754050Y-79582831D01*
X136759766Y-79582002D01*
X136765238Y-79580144D01*
X136765240Y-79580144D01*
X136947131Y-79518400D01*
X136947133Y-79518399D01*
X136952595Y-79516545D01*
X137130267Y-79417044D01*
X137158029Y-79393955D01*
X137282393Y-79290522D01*
X137286831Y-79286831D01*
X137417044Y-79130267D01*
X137516545Y-78952595D01*
X137522445Y-78935216D01*
X137580144Y-78765240D01*
X137580144Y-78765238D01*
X137582002Y-78759766D01*
X137582831Y-78754050D01*
X137582832Y-78754045D01*
X137605397Y-78598410D01*
X137611222Y-78558237D01*
X137612747Y-78500000D01*
X137594114Y-78297218D01*
X137590539Y-78284540D01*
X137562408Y-78184795D01*
X137538839Y-78101227D01*
X137448773Y-77918591D01*
X137444565Y-77912955D01*
X137330385Y-77760051D01*
X137326932Y-77755427D01*
X137177397Y-77617198D01*
X137088470Y-77561089D01*
X137010057Y-77511614D01*
X137005177Y-77508535D01*
X136816037Y-77433076D01*
X136810377Y-77431950D01*
X136810373Y-77431949D01*
X136621982Y-77394476D01*
X136621977Y-77394476D01*
X136616314Y-77393349D01*
X136610539Y-77393273D01*
X136610535Y-77393273D01*
X136508527Y-77391938D01*
X136412695Y-77390683D01*
X136406998Y-77391662D01*
X136406997Y-77391662D01*
X136393356Y-77394006D01*
X136212000Y-77425169D01*
X136020950Y-77495651D01*
X136015989Y-77498603D01*
X136015988Y-77498603D01*
X135850912Y-77596813D01*
X135850909Y-77596815D01*
X135845944Y-77599769D01*
X135692842Y-77734036D01*
X135689267Y-77738571D01*
X135689266Y-77738572D01*
X135679066Y-77751511D01*
X135566772Y-77893955D01*
X135564083Y-77899066D01*
X135564081Y-77899069D01*
X135554624Y-77917044D01*
X135471956Y-78074170D01*
X135470242Y-78079691D01*
X135470240Y-78079695D01*
X135413376Y-78262828D01*
X135411569Y-78268647D01*
X135387634Y-78470872D01*
X129512704Y-78470872D01*
X129645283Y-78352124D01*
X129821880Y-78142037D01*
X129841240Y-78110995D01*
X129875534Y-78056005D01*
X129967112Y-77909164D01*
X130078084Y-77658151D01*
X130084697Y-77634705D01*
X130105458Y-77561089D01*
X130152581Y-77394006D01*
X130158305Y-77351392D01*
X130188689Y-77125181D01*
X130188690Y-77125173D01*
X130189116Y-77121999D01*
X130189217Y-77118788D01*
X130192849Y-77003222D01*
X130192849Y-77003217D01*
X130192950Y-77000000D01*
X130190888Y-76970872D01*
X133387634Y-76970872D01*
X133400953Y-77174072D01*
X133451079Y-77371443D01*
X133536333Y-77556373D01*
X133653861Y-77722671D01*
X133799726Y-77864767D01*
X133804522Y-77867972D01*
X133804525Y-77867974D01*
X133877964Y-77917044D01*
X133969043Y-77977901D01*
X133974346Y-77980179D01*
X133974349Y-77980181D01*
X134058989Y-78016545D01*
X134156142Y-78058285D01*
X134226344Y-78074170D01*
X134349120Y-78101952D01*
X134349126Y-78101953D01*
X134354757Y-78103227D01*
X134360528Y-78103454D01*
X134360530Y-78103454D01*
X134421504Y-78105850D01*
X134558237Y-78111222D01*
X134662919Y-78096044D01*
X134754045Y-78082832D01*
X134754050Y-78082831D01*
X134759766Y-78082002D01*
X134765238Y-78080144D01*
X134765240Y-78080144D01*
X134947131Y-78018400D01*
X134947133Y-78018399D01*
X134952595Y-78016545D01*
X135130267Y-77917044D01*
X135135184Y-77912955D01*
X135282393Y-77790522D01*
X135286831Y-77786831D01*
X135417044Y-77630267D01*
X135516545Y-77452595D01*
X135522445Y-77435216D01*
X135580144Y-77265240D01*
X135580144Y-77265238D01*
X135582002Y-77259766D01*
X135582831Y-77254050D01*
X135582832Y-77254045D01*
X135610689Y-77061911D01*
X135611222Y-77058237D01*
X135612747Y-77000000D01*
X135594114Y-76797218D01*
X135589436Y-76780629D01*
X135556835Y-76665037D01*
X135538839Y-76601227D01*
X135472732Y-76467175D01*
X135451328Y-76423772D01*
X135448773Y-76418591D01*
X135426989Y-76389418D01*
X135330385Y-76260051D01*
X135326932Y-76255427D01*
X135177397Y-76117198D01*
X135048941Y-76036148D01*
X135010057Y-76011614D01*
X135005177Y-76008535D01*
X134816037Y-75933076D01*
X134810377Y-75931950D01*
X134810373Y-75931949D01*
X134621982Y-75894476D01*
X134621977Y-75894476D01*
X134616314Y-75893349D01*
X134610539Y-75893273D01*
X134610535Y-75893273D01*
X134508527Y-75891938D01*
X134412695Y-75890683D01*
X134406998Y-75891662D01*
X134406997Y-75891662D01*
X134305509Y-75909101D01*
X134212000Y-75925169D01*
X134020950Y-75995651D01*
X134015989Y-75998603D01*
X134015988Y-75998603D01*
X133850912Y-76096813D01*
X133850909Y-76096815D01*
X133845944Y-76099769D01*
X133692842Y-76234036D01*
X133566772Y-76393955D01*
X133564083Y-76399066D01*
X133564081Y-76399069D01*
X133547525Y-76430537D01*
X133471956Y-76574170D01*
X133470242Y-76579691D01*
X133470240Y-76579695D01*
X133413836Y-76761347D01*
X133411569Y-76768647D01*
X133387634Y-76970872D01*
X130190888Y-76970872D01*
X130173566Y-76726236D01*
X130168202Y-76701318D01*
X130116739Y-76462281D01*
X130116738Y-76462279D01*
X130115803Y-76457934D01*
X130020811Y-76200448D01*
X129918922Y-76011614D01*
X129892600Y-75962831D01*
X129890487Y-75958915D01*
X129727431Y-75738155D01*
X129534896Y-75542572D01*
X129531357Y-75539871D01*
X129531350Y-75539865D01*
X129320264Y-75378770D01*
X129316724Y-75376068D01*
X129080782Y-75243934D01*
X129031120Y-75193197D01*
X129016773Y-75123666D01*
X129042294Y-75057415D01*
X129099582Y-75015480D01*
X129142348Y-75008000D01*
X138446793Y-75008000D01*
X138467697Y-75009746D01*
X138487461Y-75013071D01*
X138493537Y-75013145D01*
X138495131Y-75013165D01*
X138495136Y-75013165D01*
X138500000Y-75013224D01*
X138504821Y-75012533D01*
X138506637Y-75012415D01*
X138515770Y-75011551D01*
X138663223Y-75004734D01*
X138867315Y-74995299D01*
X138867322Y-74995298D01*
X138870206Y-74995165D01*
X139199734Y-74949198D01*
X139234367Y-74944367D01*
X139234370Y-74944366D01*
X139237255Y-74943964D01*
X139434764Y-74897511D01*
X139595174Y-74859783D01*
X139595180Y-74859781D01*
X139598013Y-74859115D01*
X139949403Y-74741341D01*
X140288428Y-74591647D01*
X140336998Y-74564594D01*
X140609641Y-74412732D01*
X140612194Y-74411310D01*
X140917940Y-74201870D01*
X140920166Y-74200022D01*
X140920176Y-74200014D01*
X141200821Y-73966969D01*
X141200824Y-73966966D01*
X141203057Y-73965112D01*
X141465112Y-73703057D01*
X141466969Y-73700821D01*
X141700014Y-73420176D01*
X141700022Y-73420166D01*
X141701870Y-73417940D01*
X141911310Y-73112194D01*
X141923523Y-73090268D01*
X142090223Y-72790985D01*
X142090225Y-72790981D01*
X142091647Y-72788428D01*
X142241341Y-72449403D01*
X142359115Y-72098013D01*
X142364958Y-72073173D01*
X142410032Y-71881526D01*
X142443964Y-71737255D01*
X142460032Y-71622072D01*
X142460796Y-71616592D01*
X142490018Y-71551888D01*
X142549582Y-71513254D01*
X142585588Y-71508000D01*
X158496415Y-71508000D01*
X158564536Y-71528002D01*
G37*
%TD.AperFunction*%
%TD*%
M02*
