%TF.GenerationSoftware,KiCad,Pcbnew,6.0.2+dfsg-1*%
%TF.CreationDate,2024-04-13T11:51:50+02:00*%
%TF.ProjectId,ps2_to_amiga,7073325f-746f-45f6-916d-6967612e6b69,rev?*%
%TF.SameCoordinates,Original*%
%TF.FileFunction,Legend,Top*%
%TF.FilePolarity,Positive*%
%FSLAX46Y46*%
G04 Gerber Fmt 4.6, Leading zero omitted, Abs format (unit mm)*
G04 Created by KiCad (PCBNEW 6.0.2+dfsg-1) date 2024-04-13 11:51:50*
%MOMM*%
%LPD*%
G01*
G04 APERTURE LIST*
%ADD10C,0.150000*%
%ADD11C,0.125000*%
%ADD12C,0.120000*%
G04 APERTURE END LIST*
D10*
X143452380Y-86976190D02*
X142452380Y-86976190D01*
X143404761Y-86547619D02*
X143452380Y-86404761D01*
X143452380Y-86166666D01*
X143404761Y-86071428D01*
X143357142Y-86023809D01*
X143261904Y-85976190D01*
X143166666Y-85976190D01*
X143071428Y-86023809D01*
X143023809Y-86071428D01*
X142976190Y-86166666D01*
X142928571Y-86357142D01*
X142880952Y-86452380D01*
X142833333Y-86500000D01*
X142738095Y-86547619D01*
X142642857Y-86547619D01*
X142547619Y-86500000D01*
X142500000Y-86452380D01*
X142452380Y-86357142D01*
X142452380Y-86119047D01*
X142500000Y-85976190D01*
X143452380Y-85547619D02*
X142452380Y-85547619D01*
X142452380Y-85166666D01*
X142500000Y-85071428D01*
X142547619Y-85023809D01*
X142642857Y-84976190D01*
X142785714Y-84976190D01*
X142880952Y-85023809D01*
X142928571Y-85071428D01*
X142976190Y-85166666D01*
X142976190Y-85547619D01*
X144497619Y-87644047D02*
X144497619Y-88108333D01*
X144466666Y-88201190D01*
X144404761Y-88263095D01*
X144311904Y-88294047D01*
X144250000Y-88294047D01*
X145116666Y-88294047D02*
X144807142Y-88294047D01*
X144807142Y-87644047D01*
X145704761Y-88232142D02*
X145673809Y-88263095D01*
X145580952Y-88294047D01*
X145519047Y-88294047D01*
X145426190Y-88263095D01*
X145364285Y-88201190D01*
X145333333Y-88139285D01*
X145302380Y-88015476D01*
X145302380Y-87922619D01*
X145333333Y-87798809D01*
X145364285Y-87736904D01*
X145426190Y-87675000D01*
X145519047Y-87644047D01*
X145580952Y-87644047D01*
X145673809Y-87675000D01*
X145704761Y-87705952D01*
X146169047Y-87644047D02*
X146169047Y-88108333D01*
X146138095Y-88201190D01*
X146076190Y-88263095D01*
X145983333Y-88294047D01*
X145921428Y-88294047D01*
X146788095Y-88294047D02*
X146478571Y-88294047D01*
X146478571Y-87644047D01*
X147376190Y-88232142D02*
X147345238Y-88263095D01*
X147252380Y-88294047D01*
X147190476Y-88294047D01*
X147097619Y-88263095D01*
X147035714Y-88201190D01*
X147004761Y-88139285D01*
X146973809Y-88015476D01*
X146973809Y-87922619D01*
X147004761Y-87798809D01*
X147035714Y-87736904D01*
X147097619Y-87675000D01*
X147190476Y-87644047D01*
X147252380Y-87644047D01*
X147345238Y-87675000D01*
X147376190Y-87705952D01*
X147840476Y-87644047D02*
X147840476Y-88108333D01*
X147809523Y-88201190D01*
X147747619Y-88263095D01*
X147654761Y-88294047D01*
X147592857Y-88294047D01*
X148459523Y-88294047D02*
X148150000Y-88294047D01*
X148150000Y-87644047D01*
X149047619Y-88232142D02*
X149016666Y-88263095D01*
X148923809Y-88294047D01*
X148861904Y-88294047D01*
X148769047Y-88263095D01*
X148707142Y-88201190D01*
X148676190Y-88139285D01*
X148645238Y-88015476D01*
X148645238Y-87922619D01*
X148676190Y-87798809D01*
X148707142Y-87736904D01*
X148769047Y-87675000D01*
X148861904Y-87644047D01*
X148923809Y-87644047D01*
X149016666Y-87675000D01*
X149047619Y-87705952D01*
X149511904Y-87644047D02*
X149511904Y-88108333D01*
X149480952Y-88201190D01*
X149419047Y-88263095D01*
X149326190Y-88294047D01*
X149264285Y-88294047D01*
X150130952Y-88294047D02*
X149821428Y-88294047D01*
X149821428Y-87644047D01*
X150719047Y-88232142D02*
X150688095Y-88263095D01*
X150595238Y-88294047D01*
X150533333Y-88294047D01*
X150440476Y-88263095D01*
X150378571Y-88201190D01*
X150347619Y-88139285D01*
X150316666Y-88015476D01*
X150316666Y-87922619D01*
X150347619Y-87798809D01*
X150378571Y-87736904D01*
X150440476Y-87675000D01*
X150533333Y-87644047D01*
X150595238Y-87644047D01*
X150688095Y-87675000D01*
X150719047Y-87705952D01*
D11*
X140607142Y-80339285D02*
X140607142Y-79589285D01*
X140607142Y-80303571D02*
X140535714Y-80339285D01*
X140392857Y-80339285D01*
X140321428Y-80303571D01*
X140285714Y-80267857D01*
X140250000Y-80196428D01*
X140250000Y-79982142D01*
X140285714Y-79910714D01*
X140321428Y-79875000D01*
X140392857Y-79839285D01*
X140535714Y-79839285D01*
X140607142Y-79875000D01*
X141285714Y-80339285D02*
X141285714Y-79946428D01*
X141250000Y-79875000D01*
X141178571Y-79839285D01*
X141035714Y-79839285D01*
X140964285Y-79875000D01*
X141285714Y-80303571D02*
X141214285Y-80339285D01*
X141035714Y-80339285D01*
X140964285Y-80303571D01*
X140928571Y-80232142D01*
X140928571Y-80160714D01*
X140964285Y-80089285D01*
X141035714Y-80053571D01*
X141214285Y-80053571D01*
X141285714Y-80017857D01*
X141535714Y-79839285D02*
X141821428Y-79839285D01*
X141642857Y-79589285D02*
X141642857Y-80232142D01*
X141678571Y-80303571D01*
X141750000Y-80339285D01*
X141821428Y-80339285D01*
X140482142Y-82839285D02*
X140482142Y-83446428D01*
X140446428Y-83517857D01*
X140410714Y-83553571D01*
X140339285Y-83589285D01*
X140232142Y-83589285D01*
X140160714Y-83553571D01*
X140482142Y-83303571D02*
X140410714Y-83339285D01*
X140267857Y-83339285D01*
X140196428Y-83303571D01*
X140160714Y-83267857D01*
X140125000Y-83196428D01*
X140125000Y-82982142D01*
X140160714Y-82910714D01*
X140196428Y-82875000D01*
X140267857Y-82839285D01*
X140410714Y-82839285D01*
X140482142Y-82875000D01*
X140839285Y-82839285D02*
X140839285Y-83339285D01*
X140839285Y-82910714D02*
X140875000Y-82875000D01*
X140946428Y-82839285D01*
X141053571Y-82839285D01*
X141125000Y-82875000D01*
X141160714Y-82946428D01*
X141160714Y-83339285D01*
X141839285Y-83339285D02*
X141839285Y-82589285D01*
X141839285Y-83303571D02*
X141767857Y-83339285D01*
X141625000Y-83339285D01*
X141553571Y-83303571D01*
X141517857Y-83267857D01*
X141482142Y-83196428D01*
X141482142Y-82982142D01*
X141517857Y-82910714D01*
X141553571Y-82875000D01*
X141625000Y-82839285D01*
X141767857Y-82839285D01*
X141839285Y-82875000D01*
X138678571Y-78803571D02*
X138607142Y-78839285D01*
X138464285Y-78839285D01*
X138392857Y-78803571D01*
X138357142Y-78767857D01*
X138321428Y-78696428D01*
X138321428Y-78482142D01*
X138357142Y-78410714D01*
X138392857Y-78375000D01*
X138464285Y-78339285D01*
X138607142Y-78339285D01*
X138678571Y-78375000D01*
X139107142Y-78839285D02*
X139035714Y-78803571D01*
X139000000Y-78732142D01*
X139000000Y-78089285D01*
X139392857Y-78839285D02*
X139392857Y-78089285D01*
X139464285Y-78553571D02*
X139678571Y-78839285D01*
X139678571Y-78339285D02*
X139392857Y-78625000D01*
X140892857Y-76589285D02*
X140535714Y-76589285D01*
X140500000Y-76946428D01*
X140535714Y-76910714D01*
X140607142Y-76875000D01*
X140785714Y-76875000D01*
X140857142Y-76910714D01*
X140892857Y-76946428D01*
X140928571Y-77017857D01*
X140928571Y-77196428D01*
X140892857Y-77267857D01*
X140857142Y-77303571D01*
X140785714Y-77339285D01*
X140607142Y-77339285D01*
X140535714Y-77303571D01*
X140500000Y-77267857D01*
X141178571Y-76839285D02*
X141357142Y-77339285D01*
X141535714Y-76839285D01*
X138428571Y-81839285D02*
X138428571Y-81339285D01*
X138428571Y-81482142D02*
X138464285Y-81410714D01*
X138500000Y-81375000D01*
X138571428Y-81339285D01*
X138642857Y-81339285D01*
X138857142Y-81803571D02*
X138928571Y-81839285D01*
X139071428Y-81839285D01*
X139142857Y-81803571D01*
X139178571Y-81732142D01*
X139178571Y-81696428D01*
X139142857Y-81625000D01*
X139071428Y-81589285D01*
X138964285Y-81589285D01*
X138892857Y-81553571D01*
X138857142Y-81482142D01*
X138857142Y-81446428D01*
X138892857Y-81375000D01*
X138964285Y-81339285D01*
X139071428Y-81339285D01*
X139142857Y-81375000D01*
X139392857Y-81339285D02*
X139678571Y-81339285D01*
X139500000Y-81089285D02*
X139500000Y-81732142D01*
X139535714Y-81803571D01*
X139607142Y-81839285D01*
X139678571Y-81839285D01*
D10*
%TO.C,U1*%
X143238095Y-73702380D02*
X143238095Y-74511904D01*
X143285714Y-74607142D01*
X143333333Y-74654761D01*
X143428571Y-74702380D01*
X143619047Y-74702380D01*
X143714285Y-74654761D01*
X143761904Y-74607142D01*
X143809523Y-74511904D01*
X143809523Y-73702380D01*
X144809523Y-74702380D02*
X144238095Y-74702380D01*
X144523809Y-74702380D02*
X144523809Y-73702380D01*
X144428571Y-73845238D01*
X144333333Y-73940476D01*
X144238095Y-73988095D01*
%TO.C,J2*%
X142452380Y-84083333D02*
X143166666Y-84083333D01*
X143309523Y-84130952D01*
X143404761Y-84226190D01*
X143452380Y-84369047D01*
X143452380Y-84464285D01*
X142547619Y-83654761D02*
X142500000Y-83607142D01*
X142452380Y-83511904D01*
X142452380Y-83273809D01*
X142500000Y-83178571D01*
X142547619Y-83130952D01*
X142642857Y-83083333D01*
X142738095Y-83083333D01*
X142880952Y-83130952D01*
X143452380Y-83702380D01*
X143452380Y-83083333D01*
%TO.C,J4*%
X151952380Y-87833333D02*
X152666666Y-87833333D01*
X152809523Y-87880952D01*
X152904761Y-87976190D01*
X152952380Y-88119047D01*
X152952380Y-88214285D01*
X152285714Y-86928571D02*
X152952380Y-86928571D01*
X151904761Y-87166666D02*
X152619047Y-87404761D01*
X152619047Y-86785714D01*
%TO.C,J1*%
X136666666Y-83452380D02*
X136666666Y-84166666D01*
X136619047Y-84309523D01*
X136523809Y-84404761D01*
X136380952Y-84452380D01*
X136285714Y-84452380D01*
X137666666Y-84452380D02*
X137095238Y-84452380D01*
X137380952Y-84452380D02*
X137380952Y-83452380D01*
X137285714Y-83595238D01*
X137190476Y-83690476D01*
X137095238Y-83738095D01*
%TO.C,C1*%
X151357142Y-73416666D02*
X151404761Y-73464285D01*
X151452380Y-73607142D01*
X151452380Y-73702380D01*
X151404761Y-73845238D01*
X151309523Y-73940476D01*
X151214285Y-73988095D01*
X151023809Y-74035714D01*
X150880952Y-74035714D01*
X150690476Y-73988095D01*
X150595238Y-73940476D01*
X150500000Y-73845238D01*
X150452380Y-73702380D01*
X150452380Y-73607142D01*
X150500000Y-73464285D01*
X150547619Y-73416666D01*
X151452380Y-72464285D02*
X151452380Y-73035714D01*
X151452380Y-72750000D02*
X150452380Y-72750000D01*
X150595238Y-72845238D01*
X150690476Y-72940476D01*
X150738095Y-73035714D01*
%TO.C,U1*%
X145000000Y-74995000D02*
X145000000Y-75200000D01*
X150500000Y-74995000D02*
X150500000Y-75295000D01*
X145000000Y-80505000D02*
X145000000Y-80205000D01*
X150500000Y-80505000D02*
X150500000Y-80205000D01*
X145000000Y-75200000D02*
X143250000Y-75200000D01*
X145000000Y-80505000D02*
X150500000Y-80505000D01*
X145000000Y-74995000D02*
X150500000Y-74995000D01*
D12*
%TO.C,J2*%
X149230000Y-84270000D02*
X151830000Y-84270000D01*
X144090000Y-81670000D02*
X144090000Y-86870000D01*
X151830000Y-86870000D02*
X144090000Y-86870000D01*
X151830000Y-81670000D02*
X151830000Y-83000000D01*
X149230000Y-81670000D02*
X144090000Y-81670000D01*
X149230000Y-81670000D02*
X149230000Y-84270000D01*
X150500000Y-81670000D02*
X151830000Y-81670000D01*
X151830000Y-84270000D02*
X151830000Y-86870000D01*
%TO.C,J4*%
X170000000Y-83000000D02*
X170000000Y-77000000D01*
X170000000Y-89000000D02*
X170000000Y-87000000D01*
X170000000Y-73000000D02*
X170000000Y-71000000D01*
X172500000Y-71000000D02*
X153500000Y-71000000D01*
X153500000Y-71000000D02*
X153500000Y-89000000D01*
X153500000Y-89000000D02*
X172500000Y-89000000D01*
X172500000Y-89000000D02*
X172500000Y-71000000D01*
%TO.C,C1*%
X148461252Y-72340000D02*
X147038748Y-72340000D01*
X148461252Y-74160000D02*
X147038748Y-74160000D01*
%TD*%
M02*
