%TF.GenerationSoftware,KiCad,Pcbnew,6.0.2+dfsg-1*%
%TF.CreationDate,2024-04-13T11:51:50+02:00*%
%TF.ProjectId,ps2_to_amiga,7073325f-746f-45f6-916d-6967612e6b69,rev?*%
%TF.SameCoordinates,Original*%
%TF.FileFunction,Legend,Bot*%
%TF.FilePolarity,Positive*%
%FSLAX46Y46*%
G04 Gerber Fmt 4.6, Leading zero omitted, Abs format (unit mm)*
G04 Created by KiCad (PCBNEW 6.0.2+dfsg-1) date 2024-04-13 11:51:50*
%MOMM*%
%LPD*%
G01*
G04 APERTURE LIST*
%ADD10C,0.150000*%
%ADD11C,0.125000*%
%ADD12C,0.010000*%
G04 APERTURE END LIST*
D10*
X152657738Y-79060242D02*
X152657738Y-78603042D01*
X152657738Y-78668357D02*
X152627500Y-78635700D01*
X152567023Y-78603042D01*
X152476309Y-78603042D01*
X152415833Y-78635700D01*
X152385595Y-78701014D01*
X152385595Y-79060242D01*
X152385595Y-78701014D02*
X152355357Y-78635700D01*
X152294880Y-78603042D01*
X152204166Y-78603042D01*
X152143690Y-78635700D01*
X152113452Y-78701014D01*
X152113452Y-79060242D01*
X151538928Y-79060242D02*
X151538928Y-78701014D01*
X151569166Y-78635700D01*
X151629642Y-78603042D01*
X151750595Y-78603042D01*
X151811071Y-78635700D01*
X151538928Y-79027585D02*
X151599404Y-79060242D01*
X151750595Y-79060242D01*
X151811071Y-79027585D01*
X151841309Y-78962271D01*
X151841309Y-78896957D01*
X151811071Y-78831642D01*
X151750595Y-78798985D01*
X151599404Y-78798985D01*
X151538928Y-78766328D01*
X150964404Y-79060242D02*
X150964404Y-78374442D01*
X150964404Y-79027585D02*
X151024880Y-79060242D01*
X151145833Y-79060242D01*
X151206309Y-79027585D01*
X151236547Y-78994928D01*
X151266785Y-78929614D01*
X151266785Y-78733671D01*
X151236547Y-78668357D01*
X151206309Y-78635700D01*
X151145833Y-78603042D01*
X151024880Y-78603042D01*
X150964404Y-78635700D01*
X150420119Y-79027585D02*
X150480595Y-79060242D01*
X150601547Y-79060242D01*
X150662023Y-79027585D01*
X150692261Y-78962271D01*
X150692261Y-78701014D01*
X150662023Y-78635700D01*
X150601547Y-78603042D01*
X150480595Y-78603042D01*
X150420119Y-78635700D01*
X150389880Y-78701014D01*
X150389880Y-78766328D01*
X150692261Y-78831642D01*
X149633928Y-79060242D02*
X149633928Y-78374442D01*
X149633928Y-78635700D02*
X149573452Y-78603042D01*
X149452500Y-78603042D01*
X149392023Y-78635700D01*
X149361785Y-78668357D01*
X149331547Y-78733671D01*
X149331547Y-78929614D01*
X149361785Y-78994928D01*
X149392023Y-79027585D01*
X149452500Y-79060242D01*
X149573452Y-79060242D01*
X149633928Y-79027585D01*
X149119880Y-78603042D02*
X148968690Y-79060242D01*
X148817500Y-78603042D02*
X148968690Y-79060242D01*
X149029166Y-79223528D01*
X149059404Y-79256185D01*
X149119880Y-79288842D01*
X148122023Y-79027585D02*
X148061547Y-79060242D01*
X147940595Y-79060242D01*
X147880119Y-79027585D01*
X147849880Y-78962271D01*
X147849880Y-78929614D01*
X147880119Y-78864300D01*
X147940595Y-78831642D01*
X148031309Y-78831642D01*
X148091785Y-78798985D01*
X148122023Y-78733671D01*
X148122023Y-78701014D01*
X148091785Y-78635700D01*
X148031309Y-78603042D01*
X147940595Y-78603042D01*
X147880119Y-78635700D01*
X147305595Y-78603042D02*
X147305595Y-79060242D01*
X147577738Y-78603042D02*
X147577738Y-78962271D01*
X147547500Y-79027585D01*
X147487023Y-79060242D01*
X147396309Y-79060242D01*
X147335833Y-79027585D01*
X147305595Y-78994928D01*
X147003214Y-78603042D02*
X147003214Y-79060242D01*
X147003214Y-78668357D02*
X146972976Y-78635700D01*
X146912500Y-78603042D01*
X146821785Y-78603042D01*
X146761309Y-78635700D01*
X146731071Y-78701014D01*
X146731071Y-79060242D01*
X146186785Y-79027585D02*
X146247261Y-79060242D01*
X146368214Y-79060242D01*
X146428690Y-79027585D01*
X146458928Y-78962271D01*
X146458928Y-78701014D01*
X146428690Y-78635700D01*
X146368214Y-78603042D01*
X146247261Y-78603042D01*
X146186785Y-78635700D01*
X146156547Y-78701014D01*
X146156547Y-78766328D01*
X146458928Y-78831642D01*
X145914642Y-79027585D02*
X145854166Y-79060242D01*
X145733214Y-79060242D01*
X145672738Y-79027585D01*
X145642500Y-78962271D01*
X145642500Y-78929614D01*
X145672738Y-78864300D01*
X145733214Y-78831642D01*
X145823928Y-78831642D01*
X145884404Y-78798985D01*
X145914642Y-78733671D01*
X145914642Y-78701014D01*
X145884404Y-78635700D01*
X145823928Y-78603042D01*
X145733214Y-78603042D01*
X145672738Y-78635700D01*
X145461071Y-78603042D02*
X145219166Y-78603042D01*
X145370357Y-78374442D02*
X145370357Y-78962271D01*
X145340119Y-79027585D01*
X145279642Y-79060242D01*
X145219166Y-79060242D01*
X145007500Y-79060242D02*
X145007500Y-78603042D01*
X145007500Y-78733671D02*
X144977261Y-78668357D01*
X144947023Y-78635700D01*
X144886547Y-78603042D01*
X144826071Y-78603042D01*
X144342261Y-79060242D02*
X144342261Y-78701014D01*
X144372500Y-78635700D01*
X144432976Y-78603042D01*
X144553928Y-78603042D01*
X144614404Y-78635700D01*
X144342261Y-79027585D02*
X144402738Y-79060242D01*
X144553928Y-79060242D01*
X144614404Y-79027585D01*
X144644642Y-78962271D01*
X144644642Y-78896957D01*
X144614404Y-78831642D01*
X144553928Y-78798985D01*
X144402738Y-78798985D01*
X144342261Y-78766328D01*
D11*
X153178571Y-80560242D02*
X153178571Y-79874442D01*
X152988095Y-79874442D01*
X152940476Y-79907100D01*
X152916666Y-79939757D01*
X152892857Y-80005071D01*
X152892857Y-80103042D01*
X152916666Y-80168357D01*
X152940476Y-80201014D01*
X152988095Y-80233671D01*
X153178571Y-80233671D01*
X152702380Y-80527585D02*
X152630952Y-80560242D01*
X152511904Y-80560242D01*
X152464285Y-80527585D01*
X152440476Y-80494928D01*
X152416666Y-80429614D01*
X152416666Y-80364300D01*
X152440476Y-80298985D01*
X152464285Y-80266328D01*
X152511904Y-80233671D01*
X152607142Y-80201014D01*
X152654761Y-80168357D01*
X152678571Y-80135700D01*
X152702380Y-80070385D01*
X152702380Y-80005071D01*
X152678571Y-79939757D01*
X152654761Y-79907100D01*
X152607142Y-79874442D01*
X152488095Y-79874442D01*
X152416666Y-79907100D01*
X151845238Y-79841785D02*
X152273809Y-80723528D01*
X151702380Y-79939757D02*
X151678571Y-79907100D01*
X151630952Y-79874442D01*
X151511904Y-79874442D01*
X151464285Y-79907100D01*
X151440476Y-79939757D01*
X151416666Y-80005071D01*
X151416666Y-80070385D01*
X151440476Y-80168357D01*
X151726190Y-80560242D01*
X151416666Y-80560242D01*
X150892857Y-80103042D02*
X150702380Y-80103042D01*
X150821428Y-79874442D02*
X150821428Y-80462271D01*
X150797619Y-80527585D01*
X150750000Y-80560242D01*
X150702380Y-80560242D01*
X150464285Y-80560242D02*
X150511904Y-80527585D01*
X150535714Y-80494928D01*
X150559523Y-80429614D01*
X150559523Y-80233671D01*
X150535714Y-80168357D01*
X150511904Y-80135700D01*
X150464285Y-80103042D01*
X150392857Y-80103042D01*
X150345238Y-80135700D01*
X150321428Y-80168357D01*
X150297619Y-80233671D01*
X150297619Y-80429614D01*
X150321428Y-80494928D01*
X150345238Y-80527585D01*
X150392857Y-80560242D01*
X150464285Y-80560242D01*
X149726190Y-80364300D02*
X149488095Y-80364300D01*
X149773809Y-80560242D02*
X149607142Y-79874442D01*
X149440476Y-80560242D01*
X149273809Y-80560242D02*
X149273809Y-80103042D01*
X149273809Y-80168357D02*
X149250000Y-80135700D01*
X149202380Y-80103042D01*
X149130952Y-80103042D01*
X149083333Y-80135700D01*
X149059523Y-80201014D01*
X149059523Y-80560242D01*
X149059523Y-80201014D02*
X149035714Y-80135700D01*
X148988095Y-80103042D01*
X148916666Y-80103042D01*
X148869047Y-80135700D01*
X148845238Y-80201014D01*
X148845238Y-80560242D01*
X148607142Y-80560242D02*
X148607142Y-80103042D01*
X148607142Y-79874442D02*
X148630952Y-79907100D01*
X148607142Y-79939757D01*
X148583333Y-79907100D01*
X148607142Y-79874442D01*
X148607142Y-79939757D01*
X148154761Y-80103042D02*
X148154761Y-80658214D01*
X148178571Y-80723528D01*
X148202380Y-80756185D01*
X148250000Y-80788842D01*
X148321428Y-80788842D01*
X148369047Y-80756185D01*
X148154761Y-80527585D02*
X148202380Y-80560242D01*
X148297619Y-80560242D01*
X148345238Y-80527585D01*
X148369047Y-80494928D01*
X148392857Y-80429614D01*
X148392857Y-80233671D01*
X148369047Y-80168357D01*
X148345238Y-80135700D01*
X148297619Y-80103042D01*
X148202380Y-80103042D01*
X148154761Y-80135700D01*
X147702380Y-80560242D02*
X147702380Y-80201014D01*
X147726190Y-80135700D01*
X147773809Y-80103042D01*
X147869047Y-80103042D01*
X147916666Y-80135700D01*
X147702380Y-80527585D02*
X147750000Y-80560242D01*
X147869047Y-80560242D01*
X147916666Y-80527585D01*
X147940476Y-80462271D01*
X147940476Y-80396957D01*
X147916666Y-80331642D01*
X147869047Y-80298985D01*
X147750000Y-80298985D01*
X147702380Y-80266328D01*
X147083333Y-80560242D02*
X147083333Y-79874442D01*
X146797619Y-80560242D02*
X147011904Y-80168357D01*
X146797619Y-79874442D02*
X147083333Y-80266328D01*
X146416666Y-80201014D02*
X146345238Y-80233671D01*
X146321428Y-80266328D01*
X146297619Y-80331642D01*
X146297619Y-80429614D01*
X146321428Y-80494928D01*
X146345238Y-80527585D01*
X146392857Y-80560242D01*
X146583333Y-80560242D01*
X146583333Y-79874442D01*
X146416666Y-79874442D01*
X146369047Y-79907100D01*
X146345238Y-79939757D01*
X146321428Y-80005071D01*
X146321428Y-80070385D01*
X146345238Y-80135700D01*
X146369047Y-80168357D01*
X146416666Y-80201014D01*
X146583333Y-80201014D01*
X145619047Y-80560242D02*
X145619047Y-80103042D01*
X145619047Y-80233671D02*
X145595238Y-80168357D01*
X145571428Y-80135700D01*
X145523809Y-80103042D01*
X145476190Y-80103042D01*
X145119047Y-80527585D02*
X145166666Y-80560242D01*
X145261904Y-80560242D01*
X145309523Y-80527585D01*
X145333333Y-80462271D01*
X145333333Y-80201014D01*
X145309523Y-80135700D01*
X145261904Y-80103042D01*
X145166666Y-80103042D01*
X145119047Y-80135700D01*
X145095238Y-80201014D01*
X145095238Y-80266328D01*
X145333333Y-80331642D01*
X144928571Y-80103042D02*
X144809523Y-80560242D01*
X144690476Y-80103042D01*
X144142857Y-79939757D02*
X144119047Y-79907100D01*
X144071428Y-79874442D01*
X143952380Y-79874442D01*
X143904761Y-79907100D01*
X143880952Y-79939757D01*
X143857142Y-80005071D01*
X143857142Y-80070385D01*
X143880952Y-80168357D01*
X144166666Y-80560242D01*
X143857142Y-80560242D01*
D12*
%TO.C,REF\u002A\u002A*%
X148460256Y-77200968D02*
X148403384Y-77222087D01*
X148403384Y-77222087D02*
X148402733Y-77222493D01*
X148402733Y-77222493D02*
X148367560Y-77248380D01*
X148367560Y-77248380D02*
X148341593Y-77278633D01*
X148341593Y-77278633D02*
X148323330Y-77318058D01*
X148323330Y-77318058D02*
X148311268Y-77371462D01*
X148311268Y-77371462D02*
X148303904Y-77443651D01*
X148303904Y-77443651D02*
X148299736Y-77539432D01*
X148299736Y-77539432D02*
X148299371Y-77553078D01*
X148299371Y-77553078D02*
X148294124Y-77758842D01*
X148294124Y-77758842D02*
X148338284Y-77781678D01*
X148338284Y-77781678D02*
X148370237Y-77797110D01*
X148370237Y-77797110D02*
X148389530Y-77804423D01*
X148389530Y-77804423D02*
X148390422Y-77804514D01*
X148390422Y-77804514D02*
X148393761Y-77791022D01*
X148393761Y-77791022D02*
X148396413Y-77754626D01*
X148396413Y-77754626D02*
X148398044Y-77701452D01*
X148398044Y-77701452D02*
X148398400Y-77658393D01*
X148398400Y-77658393D02*
X148398408Y-77588641D01*
X148398408Y-77588641D02*
X148401597Y-77544837D01*
X148401597Y-77544837D02*
X148412712Y-77523944D01*
X148412712Y-77523944D02*
X148436499Y-77522925D01*
X148436499Y-77522925D02*
X148477704Y-77538741D01*
X148477704Y-77538741D02*
X148539914Y-77567815D01*
X148539914Y-77567815D02*
X148585659Y-77591963D01*
X148585659Y-77591963D02*
X148609187Y-77612913D01*
X148609187Y-77612913D02*
X148616104Y-77635747D01*
X148616104Y-77635747D02*
X148616114Y-77636877D01*
X148616114Y-77636877D02*
X148604701Y-77676212D01*
X148604701Y-77676212D02*
X148570908Y-77697462D01*
X148570908Y-77697462D02*
X148519191Y-77700539D01*
X148519191Y-77700539D02*
X148481939Y-77700006D01*
X148481939Y-77700006D02*
X148462297Y-77710735D01*
X148462297Y-77710735D02*
X148450048Y-77736505D01*
X148450048Y-77736505D02*
X148442998Y-77769337D01*
X148442998Y-77769337D02*
X148453158Y-77787966D01*
X148453158Y-77787966D02*
X148456983Y-77790632D01*
X148456983Y-77790632D02*
X148492999Y-77801340D01*
X148492999Y-77801340D02*
X148543434Y-77802856D01*
X148543434Y-77802856D02*
X148595374Y-77795759D01*
X148595374Y-77795759D02*
X148632178Y-77782788D01*
X148632178Y-77782788D02*
X148683062Y-77739585D01*
X148683062Y-77739585D02*
X148711986Y-77679446D01*
X148711986Y-77679446D02*
X148717714Y-77632462D01*
X148717714Y-77632462D02*
X148713343Y-77590082D01*
X148713343Y-77590082D02*
X148697525Y-77555488D01*
X148697525Y-77555488D02*
X148666203Y-77524763D01*
X148666203Y-77524763D02*
X148615322Y-77493990D01*
X148615322Y-77493990D02*
X148540824Y-77459252D01*
X148540824Y-77459252D02*
X148536286Y-77457288D01*
X148536286Y-77457288D02*
X148469179Y-77426287D01*
X148469179Y-77426287D02*
X148427768Y-77400862D01*
X148427768Y-77400862D02*
X148410019Y-77378014D01*
X148410019Y-77378014D02*
X148413893Y-77354745D01*
X148413893Y-77354745D02*
X148437357Y-77328056D01*
X148437357Y-77328056D02*
X148444373Y-77321914D01*
X148444373Y-77321914D02*
X148491370Y-77298100D01*
X148491370Y-77298100D02*
X148540067Y-77299103D01*
X148540067Y-77299103D02*
X148582478Y-77322451D01*
X148582478Y-77322451D02*
X148610616Y-77365675D01*
X148610616Y-77365675D02*
X148613231Y-77374160D01*
X148613231Y-77374160D02*
X148638692Y-77415308D01*
X148638692Y-77415308D02*
X148670999Y-77435128D01*
X148670999Y-77435128D02*
X148717714Y-77454770D01*
X148717714Y-77454770D02*
X148717714Y-77403950D01*
X148717714Y-77403950D02*
X148703504Y-77330082D01*
X148703504Y-77330082D02*
X148661325Y-77262327D01*
X148661325Y-77262327D02*
X148639376Y-77239661D01*
X148639376Y-77239661D02*
X148589483Y-77210569D01*
X148589483Y-77210569D02*
X148526033Y-77197400D01*
X148526033Y-77197400D02*
X148460256Y-77200968D01*
X148460256Y-77200968D02*
X148460256Y-77200968D01*
G36*
X148589483Y-77210569D02*
G01*
X148639376Y-77239661D01*
X148661325Y-77262327D01*
X148703504Y-77330082D01*
X148717714Y-77403950D01*
X148717714Y-77454770D01*
X148670999Y-77435128D01*
X148638692Y-77415308D01*
X148613231Y-77374160D01*
X148610616Y-77365675D01*
X148582478Y-77322451D01*
X148540067Y-77299103D01*
X148491370Y-77298100D01*
X148444373Y-77321914D01*
X148437357Y-77328056D01*
X148413893Y-77354745D01*
X148410019Y-77378014D01*
X148427768Y-77400862D01*
X148469179Y-77426287D01*
X148536286Y-77457288D01*
X148540824Y-77459252D01*
X148615322Y-77493990D01*
X148666203Y-77524763D01*
X148697525Y-77555488D01*
X148713343Y-77590082D01*
X148717714Y-77632462D01*
X148711986Y-77679446D01*
X148683062Y-77739585D01*
X148632178Y-77782788D01*
X148595374Y-77795759D01*
X148543434Y-77802856D01*
X148492999Y-77801340D01*
X148456983Y-77790632D01*
X148453158Y-77787966D01*
X148442998Y-77769337D01*
X148450048Y-77736505D01*
X148462297Y-77710735D01*
X148481939Y-77700006D01*
X148519191Y-77700539D01*
X148570908Y-77697462D01*
X148604701Y-77676212D01*
X148616114Y-77636877D01*
X148616104Y-77635747D01*
X148609187Y-77612913D01*
X148585659Y-77591963D01*
X148539914Y-77567815D01*
X148477704Y-77538741D01*
X148436499Y-77522925D01*
X148412712Y-77523944D01*
X148401597Y-77544837D01*
X148398408Y-77588641D01*
X148398400Y-77658393D01*
X148398044Y-77701452D01*
X148396413Y-77754626D01*
X148393761Y-77791022D01*
X148390422Y-77804514D01*
X148389530Y-77804423D01*
X148370237Y-77797110D01*
X148338284Y-77781678D01*
X148294124Y-77758842D01*
X148299371Y-77553078D01*
X148299736Y-77539432D01*
X148303904Y-77443651D01*
X148311268Y-77371462D01*
X148323330Y-77318058D01*
X148341593Y-77278633D01*
X148367560Y-77248380D01*
X148402733Y-77222493D01*
X148403384Y-77222087D01*
X148460256Y-77200968D01*
X148526033Y-77197400D01*
X148589483Y-77210569D01*
G37*
X148589483Y-77210569D02*
X148639376Y-77239661D01*
X148661325Y-77262327D01*
X148703504Y-77330082D01*
X148717714Y-77403950D01*
X148717714Y-77454770D01*
X148670999Y-77435128D01*
X148638692Y-77415308D01*
X148613231Y-77374160D01*
X148610616Y-77365675D01*
X148582478Y-77322451D01*
X148540067Y-77299103D01*
X148491370Y-77298100D01*
X148444373Y-77321914D01*
X148437357Y-77328056D01*
X148413893Y-77354745D01*
X148410019Y-77378014D01*
X148427768Y-77400862D01*
X148469179Y-77426287D01*
X148536286Y-77457288D01*
X148540824Y-77459252D01*
X148615322Y-77493990D01*
X148666203Y-77524763D01*
X148697525Y-77555488D01*
X148713343Y-77590082D01*
X148717714Y-77632462D01*
X148711986Y-77679446D01*
X148683062Y-77739585D01*
X148632178Y-77782788D01*
X148595374Y-77795759D01*
X148543434Y-77802856D01*
X148492999Y-77801340D01*
X148456983Y-77790632D01*
X148453158Y-77787966D01*
X148442998Y-77769337D01*
X148450048Y-77736505D01*
X148462297Y-77710735D01*
X148481939Y-77700006D01*
X148519191Y-77700539D01*
X148570908Y-77697462D01*
X148604701Y-77676212D01*
X148616114Y-77636877D01*
X148616104Y-77635747D01*
X148609187Y-77612913D01*
X148585659Y-77591963D01*
X148539914Y-77567815D01*
X148477704Y-77538741D01*
X148436499Y-77522925D01*
X148412712Y-77523944D01*
X148401597Y-77544837D01*
X148398408Y-77588641D01*
X148398400Y-77658393D01*
X148398044Y-77701452D01*
X148396413Y-77754626D01*
X148393761Y-77791022D01*
X148390422Y-77804514D01*
X148389530Y-77804423D01*
X148370237Y-77797110D01*
X148338284Y-77781678D01*
X148294124Y-77758842D01*
X148299371Y-77553078D01*
X148299736Y-77539432D01*
X148303904Y-77443651D01*
X148311268Y-77371462D01*
X148323330Y-77318058D01*
X148341593Y-77278633D01*
X148367560Y-77248380D01*
X148402733Y-77222493D01*
X148403384Y-77222087D01*
X148460256Y-77200968D01*
X148526033Y-77197400D01*
X148589483Y-77210569D01*
X147309883Y-77315358D02*
X147310067Y-77423837D01*
X147310067Y-77423837D02*
X147310781Y-77507287D01*
X147310781Y-77507287D02*
X147312325Y-77569704D01*
X147312325Y-77569704D02*
X147314999Y-77615085D01*
X147314999Y-77615085D02*
X147319106Y-77647429D01*
X147319106Y-77647429D02*
X147324945Y-77670733D01*
X147324945Y-77670733D02*
X147332818Y-77688995D01*
X147332818Y-77688995D02*
X147338779Y-77699418D01*
X147338779Y-77699418D02*
X147388145Y-77755945D01*
X147388145Y-77755945D02*
X147450736Y-77791377D01*
X147450736Y-77791377D02*
X147519987Y-77804090D01*
X147519987Y-77804090D02*
X147589332Y-77792463D01*
X147589332Y-77792463D02*
X147630625Y-77771568D01*
X147630625Y-77771568D02*
X147673975Y-77735422D01*
X147673975Y-77735422D02*
X147703519Y-77691276D01*
X147703519Y-77691276D02*
X147721345Y-77633462D01*
X147721345Y-77633462D02*
X147729537Y-77556313D01*
X147729537Y-77556313D02*
X147730698Y-77499714D01*
X147730698Y-77499714D02*
X147730542Y-77495647D01*
X147730542Y-77495647D02*
X147629143Y-77495647D01*
X147629143Y-77495647D02*
X147628524Y-77560550D01*
X147628524Y-77560550D02*
X147625686Y-77603514D01*
X147625686Y-77603514D02*
X147619160Y-77631622D01*
X147619160Y-77631622D02*
X147607477Y-77651953D01*
X147607477Y-77651953D02*
X147593517Y-77667288D01*
X147593517Y-77667288D02*
X147546635Y-77696890D01*
X147546635Y-77696890D02*
X147496299Y-77699419D01*
X147496299Y-77699419D02*
X147448724Y-77674705D01*
X147448724Y-77674705D02*
X147445021Y-77671356D01*
X147445021Y-77671356D02*
X147429217Y-77653935D01*
X147429217Y-77653935D02*
X147419307Y-77633209D01*
X147419307Y-77633209D02*
X147413942Y-77602362D01*
X147413942Y-77602362D02*
X147411772Y-77554577D01*
X147411772Y-77554577D02*
X147411429Y-77501748D01*
X147411429Y-77501748D02*
X147412173Y-77435381D01*
X147412173Y-77435381D02*
X147415252Y-77391106D01*
X147415252Y-77391106D02*
X147421939Y-77362009D01*
X147421939Y-77362009D02*
X147433504Y-77341173D01*
X147433504Y-77341173D02*
X147442987Y-77330107D01*
X147442987Y-77330107D02*
X147487040Y-77302198D01*
X147487040Y-77302198D02*
X147537776Y-77298843D01*
X147537776Y-77298843D02*
X147586204Y-77320159D01*
X147586204Y-77320159D02*
X147595550Y-77328073D01*
X147595550Y-77328073D02*
X147611460Y-77345647D01*
X147611460Y-77345647D02*
X147621390Y-77366587D01*
X147621390Y-77366587D02*
X147626722Y-77397782D01*
X147626722Y-77397782D02*
X147628837Y-77446122D01*
X147628837Y-77446122D02*
X147629143Y-77495647D01*
X147629143Y-77495647D02*
X147730542Y-77495647D01*
X147730542Y-77495647D02*
X147727190Y-77408568D01*
X147727190Y-77408568D02*
X147715274Y-77340086D01*
X147715274Y-77340086D02*
X147692865Y-77288600D01*
X147692865Y-77288600D02*
X147657876Y-77248443D01*
X147657876Y-77248443D02*
X147630625Y-77227861D01*
X147630625Y-77227861D02*
X147581093Y-77205625D01*
X147581093Y-77205625D02*
X147523684Y-77195304D01*
X147523684Y-77195304D02*
X147470318Y-77198067D01*
X147470318Y-77198067D02*
X147440457Y-77209212D01*
X147440457Y-77209212D02*
X147428739Y-77212383D01*
X147428739Y-77212383D02*
X147420963Y-77200557D01*
X147420963Y-77200557D02*
X147415535Y-77168866D01*
X147415535Y-77168866D02*
X147411429Y-77120593D01*
X147411429Y-77120593D02*
X147406933Y-77066829D01*
X147406933Y-77066829D02*
X147400687Y-77034482D01*
X147400687Y-77034482D02*
X147389324Y-77015985D01*
X147389324Y-77015985D02*
X147369472Y-77003770D01*
X147369472Y-77003770D02*
X147357000Y-76998362D01*
X147357000Y-76998362D02*
X147309829Y-76978601D01*
X147309829Y-76978601D02*
X147309883Y-77315358D01*
X147309883Y-77315358D02*
X147309883Y-77315358D01*
G36*
X147729537Y-77556313D02*
G01*
X147721345Y-77633462D01*
X147703519Y-77691276D01*
X147673975Y-77735422D01*
X147630625Y-77771568D01*
X147589332Y-77792463D01*
X147519987Y-77804090D01*
X147450736Y-77791377D01*
X147388145Y-77755945D01*
X147338779Y-77699418D01*
X147332818Y-77688995D01*
X147324945Y-77670733D01*
X147319106Y-77647429D01*
X147314999Y-77615085D01*
X147312325Y-77569704D01*
X147310781Y-77507287D01*
X147310734Y-77501748D01*
X147411429Y-77501748D01*
X147411772Y-77554577D01*
X147413942Y-77602362D01*
X147419307Y-77633209D01*
X147429217Y-77653935D01*
X147445021Y-77671356D01*
X147448724Y-77674705D01*
X147496299Y-77699419D01*
X147546635Y-77696890D01*
X147593517Y-77667288D01*
X147607477Y-77651953D01*
X147619160Y-77631622D01*
X147625686Y-77603514D01*
X147628524Y-77560550D01*
X147629143Y-77495647D01*
X147628837Y-77446122D01*
X147626722Y-77397782D01*
X147621390Y-77366587D01*
X147611460Y-77345647D01*
X147595550Y-77328073D01*
X147586204Y-77320159D01*
X147537776Y-77298843D01*
X147487040Y-77302198D01*
X147442987Y-77330107D01*
X147433504Y-77341173D01*
X147421939Y-77362009D01*
X147415252Y-77391106D01*
X147412173Y-77435381D01*
X147411429Y-77501748D01*
X147310734Y-77501748D01*
X147310067Y-77423837D01*
X147309883Y-77315358D01*
X147309829Y-76978601D01*
X147357000Y-76998362D01*
X147369472Y-77003770D01*
X147389324Y-77015985D01*
X147400687Y-77034482D01*
X147406933Y-77066829D01*
X147411429Y-77120593D01*
X147415535Y-77168866D01*
X147420963Y-77200557D01*
X147428739Y-77212383D01*
X147440457Y-77209212D01*
X147470318Y-77198067D01*
X147523684Y-77195304D01*
X147581093Y-77205625D01*
X147630625Y-77227861D01*
X147657876Y-77248443D01*
X147692865Y-77288600D01*
X147715274Y-77340086D01*
X147727190Y-77408568D01*
X147730542Y-77495647D01*
X147730698Y-77499714D01*
X147729537Y-77556313D01*
G37*
X147729537Y-77556313D02*
X147721345Y-77633462D01*
X147703519Y-77691276D01*
X147673975Y-77735422D01*
X147630625Y-77771568D01*
X147589332Y-77792463D01*
X147519987Y-77804090D01*
X147450736Y-77791377D01*
X147388145Y-77755945D01*
X147338779Y-77699418D01*
X147332818Y-77688995D01*
X147324945Y-77670733D01*
X147319106Y-77647429D01*
X147314999Y-77615085D01*
X147312325Y-77569704D01*
X147310781Y-77507287D01*
X147310734Y-77501748D01*
X147411429Y-77501748D01*
X147411772Y-77554577D01*
X147413942Y-77602362D01*
X147419307Y-77633209D01*
X147429217Y-77653935D01*
X147445021Y-77671356D01*
X147448724Y-77674705D01*
X147496299Y-77699419D01*
X147546635Y-77696890D01*
X147593517Y-77667288D01*
X147607477Y-77651953D01*
X147619160Y-77631622D01*
X147625686Y-77603514D01*
X147628524Y-77560550D01*
X147629143Y-77495647D01*
X147628837Y-77446122D01*
X147626722Y-77397782D01*
X147621390Y-77366587D01*
X147611460Y-77345647D01*
X147595550Y-77328073D01*
X147586204Y-77320159D01*
X147537776Y-77298843D01*
X147487040Y-77302198D01*
X147442987Y-77330107D01*
X147433504Y-77341173D01*
X147421939Y-77362009D01*
X147415252Y-77391106D01*
X147412173Y-77435381D01*
X147411429Y-77501748D01*
X147310734Y-77501748D01*
X147310067Y-77423837D01*
X147309883Y-77315358D01*
X147309829Y-76978601D01*
X147357000Y-76998362D01*
X147369472Y-77003770D01*
X147389324Y-77015985D01*
X147400687Y-77034482D01*
X147406933Y-77066829D01*
X147411429Y-77120593D01*
X147415535Y-77168866D01*
X147420963Y-77200557D01*
X147428739Y-77212383D01*
X147440457Y-77209212D01*
X147470318Y-77198067D01*
X147523684Y-77195304D01*
X147581093Y-77205625D01*
X147630625Y-77227861D01*
X147657876Y-77248443D01*
X147692865Y-77288600D01*
X147715274Y-77340086D01*
X147727190Y-77408568D01*
X147730542Y-77495647D01*
X147730698Y-77499714D01*
X147729537Y-77556313D01*
X147970074Y-77199755D02*
X147904142Y-77224084D01*
X147904142Y-77224084D02*
X147850727Y-77267117D01*
X147850727Y-77267117D02*
X147829836Y-77297409D01*
X147829836Y-77297409D02*
X147807061Y-77352994D01*
X147807061Y-77352994D02*
X147807534Y-77393186D01*
X147807534Y-77393186D02*
X147831438Y-77420217D01*
X147831438Y-77420217D02*
X147840283Y-77424813D01*
X147840283Y-77424813D02*
X147878470Y-77439144D01*
X147878470Y-77439144D02*
X147897972Y-77435472D01*
X147897972Y-77435472D02*
X147904578Y-77411407D01*
X147904578Y-77411407D02*
X147904914Y-77398114D01*
X147904914Y-77398114D02*
X147917008Y-77349210D01*
X147917008Y-77349210D02*
X147948529Y-77314999D01*
X147948529Y-77314999D02*
X147992341Y-77298476D01*
X147992341Y-77298476D02*
X148041305Y-77302634D01*
X148041305Y-77302634D02*
X148081106Y-77324227D01*
X148081106Y-77324227D02*
X148094550Y-77336544D01*
X148094550Y-77336544D02*
X148104079Y-77351487D01*
X148104079Y-77351487D02*
X148110515Y-77374075D01*
X148110515Y-77374075D02*
X148114683Y-77409328D01*
X148114683Y-77409328D02*
X148117403Y-77462266D01*
X148117403Y-77462266D02*
X148119498Y-77537907D01*
X148119498Y-77537907D02*
X148120040Y-77561857D01*
X148120040Y-77561857D02*
X148122019Y-77643790D01*
X148122019Y-77643790D02*
X148124269Y-77701455D01*
X148124269Y-77701455D02*
X148127643Y-77739608D01*
X148127643Y-77739608D02*
X148132994Y-77763004D01*
X148132994Y-77763004D02*
X148141176Y-77776398D01*
X148141176Y-77776398D02*
X148153041Y-77784545D01*
X148153041Y-77784545D02*
X148160638Y-77788144D01*
X148160638Y-77788144D02*
X148192898Y-77800452D01*
X148192898Y-77800452D02*
X148211889Y-77804514D01*
X148211889Y-77804514D02*
X148218164Y-77790948D01*
X148218164Y-77790948D02*
X148221994Y-77749934D01*
X148221994Y-77749934D02*
X148223400Y-77680999D01*
X148223400Y-77680999D02*
X148222402Y-77583669D01*
X148222402Y-77583669D02*
X148222092Y-77568657D01*
X148222092Y-77568657D02*
X148219899Y-77479859D01*
X148219899Y-77479859D02*
X148217307Y-77415019D01*
X148217307Y-77415019D02*
X148213618Y-77369067D01*
X148213618Y-77369067D02*
X148208136Y-77336935D01*
X148208136Y-77336935D02*
X148200165Y-77313553D01*
X148200165Y-77313553D02*
X148189007Y-77293852D01*
X148189007Y-77293852D02*
X148183170Y-77285410D01*
X148183170Y-77285410D02*
X148149704Y-77248057D01*
X148149704Y-77248057D02*
X148112273Y-77219003D01*
X148112273Y-77219003D02*
X148107691Y-77216467D01*
X148107691Y-77216467D02*
X148040574Y-77196443D01*
X148040574Y-77196443D02*
X147970074Y-77199755D01*
X147970074Y-77199755D02*
X147970074Y-77199755D01*
G36*
X148107691Y-77216467D02*
G01*
X148112273Y-77219003D01*
X148149704Y-77248057D01*
X148183170Y-77285410D01*
X148189007Y-77293852D01*
X148200165Y-77313553D01*
X148208136Y-77336935D01*
X148213618Y-77369067D01*
X148217307Y-77415019D01*
X148219899Y-77479859D01*
X148222092Y-77568657D01*
X148222402Y-77583669D01*
X148223400Y-77680999D01*
X148221994Y-77749934D01*
X148218164Y-77790948D01*
X148211889Y-77804514D01*
X148192898Y-77800452D01*
X148160638Y-77788144D01*
X148153041Y-77784545D01*
X148141176Y-77776398D01*
X148132994Y-77763004D01*
X148127643Y-77739608D01*
X148124269Y-77701455D01*
X148122019Y-77643790D01*
X148120040Y-77561857D01*
X148119498Y-77537907D01*
X148117403Y-77462266D01*
X148114683Y-77409328D01*
X148110515Y-77374075D01*
X148104079Y-77351487D01*
X148094550Y-77336544D01*
X148081106Y-77324227D01*
X148041305Y-77302634D01*
X147992341Y-77298476D01*
X147948529Y-77314999D01*
X147917008Y-77349210D01*
X147904914Y-77398114D01*
X147904578Y-77411407D01*
X147897972Y-77435472D01*
X147878470Y-77439144D01*
X147840283Y-77424813D01*
X147831438Y-77420217D01*
X147807534Y-77393186D01*
X147807061Y-77352994D01*
X147829836Y-77297409D01*
X147850727Y-77267117D01*
X147904142Y-77224084D01*
X147970074Y-77199755D01*
X148040574Y-77196443D01*
X148107691Y-77216467D01*
G37*
X148107691Y-77216467D02*
X148112273Y-77219003D01*
X148149704Y-77248057D01*
X148183170Y-77285410D01*
X148189007Y-77293852D01*
X148200165Y-77313553D01*
X148208136Y-77336935D01*
X148213618Y-77369067D01*
X148217307Y-77415019D01*
X148219899Y-77479859D01*
X148222092Y-77568657D01*
X148222402Y-77583669D01*
X148223400Y-77680999D01*
X148221994Y-77749934D01*
X148218164Y-77790948D01*
X148211889Y-77804514D01*
X148192898Y-77800452D01*
X148160638Y-77788144D01*
X148153041Y-77784545D01*
X148141176Y-77776398D01*
X148132994Y-77763004D01*
X148127643Y-77739608D01*
X148124269Y-77701455D01*
X148122019Y-77643790D01*
X148120040Y-77561857D01*
X148119498Y-77537907D01*
X148117403Y-77462266D01*
X148114683Y-77409328D01*
X148110515Y-77374075D01*
X148104079Y-77351487D01*
X148094550Y-77336544D01*
X148081106Y-77324227D01*
X148041305Y-77302634D01*
X147992341Y-77298476D01*
X147948529Y-77314999D01*
X147917008Y-77349210D01*
X147904914Y-77398114D01*
X147904578Y-77411407D01*
X147897972Y-77435472D01*
X147878470Y-77439144D01*
X147840283Y-77424813D01*
X147831438Y-77420217D01*
X147807534Y-77393186D01*
X147807061Y-77352994D01*
X147829836Y-77297409D01*
X147850727Y-77267117D01*
X147904142Y-77224084D01*
X147970074Y-77199755D01*
X148040574Y-77196443D01*
X148107691Y-77216467D01*
X146720167Y-77208663D02*
X146717952Y-77246850D01*
X146717952Y-77246850D02*
X146716216Y-77304886D01*
X146716216Y-77304886D02*
X146715101Y-77378180D01*
X146715101Y-77378180D02*
X146714743Y-77455055D01*
X146714743Y-77455055D02*
X146714743Y-77715196D01*
X146714743Y-77715196D02*
X146760674Y-77761127D01*
X146760674Y-77761127D02*
X146792325Y-77789429D01*
X146792325Y-77789429D02*
X146820110Y-77800893D01*
X146820110Y-77800893D02*
X146858085Y-77800168D01*
X146858085Y-77800168D02*
X146873160Y-77798321D01*
X146873160Y-77798321D02*
X146920274Y-77792948D01*
X146920274Y-77792948D02*
X146959244Y-77789869D01*
X146959244Y-77789869D02*
X146968743Y-77789585D01*
X146968743Y-77789585D02*
X147000767Y-77791445D01*
X147000767Y-77791445D02*
X147046568Y-77796114D01*
X147046568Y-77796114D02*
X147064326Y-77798321D01*
X147064326Y-77798321D02*
X147107943Y-77801735D01*
X147107943Y-77801735D02*
X147137255Y-77794320D01*
X147137255Y-77794320D02*
X147166320Y-77771427D01*
X147166320Y-77771427D02*
X147176812Y-77761127D01*
X147176812Y-77761127D02*
X147222743Y-77715196D01*
X147222743Y-77715196D02*
X147222743Y-77228602D01*
X147222743Y-77228602D02*
X147185774Y-77211758D01*
X147185774Y-77211758D02*
X147153941Y-77199282D01*
X147153941Y-77199282D02*
X147135317Y-77194914D01*
X147135317Y-77194914D02*
X147130542Y-77208718D01*
X147130542Y-77208718D02*
X147126079Y-77247286D01*
X147126079Y-77247286D02*
X147122225Y-77306356D01*
X147122225Y-77306356D02*
X147119278Y-77381663D01*
X147119278Y-77381663D02*
X147117857Y-77445286D01*
X147117857Y-77445286D02*
X147113886Y-77695657D01*
X147113886Y-77695657D02*
X147079241Y-77700556D01*
X147079241Y-77700556D02*
X147047732Y-77697131D01*
X147047732Y-77697131D02*
X147032292Y-77686041D01*
X147032292Y-77686041D02*
X147027977Y-77665308D01*
X147027977Y-77665308D02*
X147024292Y-77621145D01*
X147024292Y-77621145D02*
X147021531Y-77559146D01*
X147021531Y-77559146D02*
X147019988Y-77484909D01*
X147019988Y-77484909D02*
X147019765Y-77446706D01*
X147019765Y-77446706D02*
X147019543Y-77226783D01*
X147019543Y-77226783D02*
X146973834Y-77210849D01*
X146973834Y-77210849D02*
X146941482Y-77200015D01*
X146941482Y-77200015D02*
X146923885Y-77194962D01*
X146923885Y-77194962D02*
X146923377Y-77194914D01*
X146923377Y-77194914D02*
X146921612Y-77208648D01*
X146921612Y-77208648D02*
X146919671Y-77246730D01*
X146919671Y-77246730D02*
X146917718Y-77304482D01*
X146917718Y-77304482D02*
X146915916Y-77377227D01*
X146915916Y-77377227D02*
X146914657Y-77445286D01*
X146914657Y-77445286D02*
X146910686Y-77695657D01*
X146910686Y-77695657D02*
X146823600Y-77695657D01*
X146823600Y-77695657D02*
X146819604Y-77467240D01*
X146819604Y-77467240D02*
X146815608Y-77238822D01*
X146815608Y-77238822D02*
X146773153Y-77216868D01*
X146773153Y-77216868D02*
X146741808Y-77201793D01*
X146741808Y-77201793D02*
X146723256Y-77194951D01*
X146723256Y-77194951D02*
X146722721Y-77194914D01*
X146722721Y-77194914D02*
X146720167Y-77208663D01*
X146720167Y-77208663D02*
X146720167Y-77208663D01*
G36*
X147153941Y-77199282D02*
G01*
X147185774Y-77211758D01*
X147222743Y-77228602D01*
X147222743Y-77715196D01*
X147176812Y-77761127D01*
X147166320Y-77771427D01*
X147137255Y-77794320D01*
X147107943Y-77801735D01*
X147064326Y-77798321D01*
X147046568Y-77796114D01*
X147000767Y-77791445D01*
X146968743Y-77789585D01*
X146959244Y-77789869D01*
X146920274Y-77792948D01*
X146873160Y-77798321D01*
X146858085Y-77800168D01*
X146820110Y-77800893D01*
X146792325Y-77789429D01*
X146760674Y-77761127D01*
X146714743Y-77715196D01*
X146714743Y-77455055D01*
X146715101Y-77378180D01*
X146716216Y-77304886D01*
X146717952Y-77246850D01*
X146720167Y-77208663D01*
X146722721Y-77194914D01*
X146723256Y-77194951D01*
X146741808Y-77201793D01*
X146773153Y-77216868D01*
X146815608Y-77238822D01*
X146819604Y-77467240D01*
X146823600Y-77695657D01*
X146910686Y-77695657D01*
X146914657Y-77445286D01*
X146915916Y-77377227D01*
X146917718Y-77304482D01*
X146919671Y-77246730D01*
X146921612Y-77208648D01*
X146923377Y-77194914D01*
X146923885Y-77194962D01*
X146941482Y-77200015D01*
X146973834Y-77210849D01*
X147019543Y-77226783D01*
X147019765Y-77446706D01*
X147019988Y-77484909D01*
X147021531Y-77559146D01*
X147024292Y-77621145D01*
X147027977Y-77665308D01*
X147032292Y-77686041D01*
X147047732Y-77697131D01*
X147079241Y-77700556D01*
X147113886Y-77695657D01*
X147117857Y-77445286D01*
X147119278Y-77381663D01*
X147122225Y-77306356D01*
X147126079Y-77247286D01*
X147130542Y-77208718D01*
X147135317Y-77194914D01*
X147153941Y-77199282D01*
G37*
X147153941Y-77199282D02*
X147185774Y-77211758D01*
X147222743Y-77228602D01*
X147222743Y-77715196D01*
X147176812Y-77761127D01*
X147166320Y-77771427D01*
X147137255Y-77794320D01*
X147107943Y-77801735D01*
X147064326Y-77798321D01*
X147046568Y-77796114D01*
X147000767Y-77791445D01*
X146968743Y-77789585D01*
X146959244Y-77789869D01*
X146920274Y-77792948D01*
X146873160Y-77798321D01*
X146858085Y-77800168D01*
X146820110Y-77800893D01*
X146792325Y-77789429D01*
X146760674Y-77761127D01*
X146714743Y-77715196D01*
X146714743Y-77455055D01*
X146715101Y-77378180D01*
X146716216Y-77304886D01*
X146717952Y-77246850D01*
X146720167Y-77208663D01*
X146722721Y-77194914D01*
X146723256Y-77194951D01*
X146741808Y-77201793D01*
X146773153Y-77216868D01*
X146815608Y-77238822D01*
X146819604Y-77467240D01*
X146823600Y-77695657D01*
X146910686Y-77695657D01*
X146914657Y-77445286D01*
X146915916Y-77377227D01*
X146917718Y-77304482D01*
X146919671Y-77246730D01*
X146921612Y-77208648D01*
X146923377Y-77194914D01*
X146923885Y-77194962D01*
X146941482Y-77200015D01*
X146973834Y-77210849D01*
X147019543Y-77226783D01*
X147019765Y-77446706D01*
X147019988Y-77484909D01*
X147021531Y-77559146D01*
X147024292Y-77621145D01*
X147027977Y-77665308D01*
X147032292Y-77686041D01*
X147047732Y-77697131D01*
X147079241Y-77700556D01*
X147113886Y-77695657D01*
X147117857Y-77445286D01*
X147119278Y-77381663D01*
X147122225Y-77306356D01*
X147126079Y-77247286D01*
X147130542Y-77208718D01*
X147135317Y-77194914D01*
X147153941Y-77199282D01*
X149124114Y-77101289D02*
X149119861Y-77160613D01*
X149119861Y-77160613D02*
X149114975Y-77195572D01*
X149114975Y-77195572D02*
X149108205Y-77210820D01*
X149108205Y-77210820D02*
X149098298Y-77211015D01*
X149098298Y-77211015D02*
X149095086Y-77209195D01*
X149095086Y-77209195D02*
X149052356Y-77196015D01*
X149052356Y-77196015D02*
X148996773Y-77196785D01*
X148996773Y-77196785D02*
X148940263Y-77210333D01*
X148940263Y-77210333D02*
X148904918Y-77227861D01*
X148904918Y-77227861D02*
X148868679Y-77255861D01*
X148868679Y-77255861D02*
X148842187Y-77287549D01*
X148842187Y-77287549D02*
X148824001Y-77327813D01*
X148824001Y-77327813D02*
X148812678Y-77381543D01*
X148812678Y-77381543D02*
X148806778Y-77453626D01*
X148806778Y-77453626D02*
X148804857Y-77548951D01*
X148804857Y-77548951D02*
X148804823Y-77567237D01*
X148804823Y-77567237D02*
X148804800Y-77772646D01*
X148804800Y-77772646D02*
X148850509Y-77788580D01*
X148850509Y-77788580D02*
X148882973Y-77799420D01*
X148882973Y-77799420D02*
X148900785Y-77804468D01*
X148900785Y-77804468D02*
X148901309Y-77804514D01*
X148901309Y-77804514D02*
X148903063Y-77790828D01*
X148903063Y-77790828D02*
X148904556Y-77753076D01*
X148904556Y-77753076D02*
X148905674Y-77696224D01*
X148905674Y-77696224D02*
X148906303Y-77625234D01*
X148906303Y-77625234D02*
X148906400Y-77582073D01*
X148906400Y-77582073D02*
X148906602Y-77496973D01*
X148906602Y-77496973D02*
X148907642Y-77435981D01*
X148907642Y-77435981D02*
X148910169Y-77394177D01*
X148910169Y-77394177D02*
X148914836Y-77366642D01*
X148914836Y-77366642D02*
X148922293Y-77348456D01*
X148922293Y-77348456D02*
X148933189Y-77334698D01*
X148933189Y-77334698D02*
X148939993Y-77328073D01*
X148939993Y-77328073D02*
X148986728Y-77301375D01*
X148986728Y-77301375D02*
X149037728Y-77299375D01*
X149037728Y-77299375D02*
X149083999Y-77321955D01*
X149083999Y-77321955D02*
X149092556Y-77330107D01*
X149092556Y-77330107D02*
X149105107Y-77345436D01*
X149105107Y-77345436D02*
X149113812Y-77363618D01*
X149113812Y-77363618D02*
X149119369Y-77389909D01*
X149119369Y-77389909D02*
X149122474Y-77429562D01*
X149122474Y-77429562D02*
X149123824Y-77487832D01*
X149123824Y-77487832D02*
X149124114Y-77568173D01*
X149124114Y-77568173D02*
X149124114Y-77772646D01*
X149124114Y-77772646D02*
X149169823Y-77788580D01*
X149169823Y-77788580D02*
X149202287Y-77799420D01*
X149202287Y-77799420D02*
X149220099Y-77804468D01*
X149220099Y-77804468D02*
X149220623Y-77804514D01*
X149220623Y-77804514D02*
X149221963Y-77790623D01*
X149221963Y-77790623D02*
X149223172Y-77751439D01*
X149223172Y-77751439D02*
X149224199Y-77690700D01*
X149224199Y-77690700D02*
X149224998Y-77612141D01*
X149224998Y-77612141D02*
X149225519Y-77519498D01*
X149225519Y-77519498D02*
X149225714Y-77416509D01*
X149225714Y-77416509D02*
X149225714Y-77019342D01*
X149225714Y-77019342D02*
X149178543Y-76999444D01*
X149178543Y-76999444D02*
X149131371Y-76979547D01*
X149131371Y-76979547D02*
X149124114Y-77101289D01*
X149124114Y-77101289D02*
X149124114Y-77101289D01*
G36*
X149178543Y-76999444D02*
G01*
X149225714Y-77019342D01*
X149225714Y-77416509D01*
X149225519Y-77519498D01*
X149224998Y-77612141D01*
X149224199Y-77690700D01*
X149223172Y-77751439D01*
X149221963Y-77790623D01*
X149220623Y-77804514D01*
X149220099Y-77804468D01*
X149202287Y-77799420D01*
X149169823Y-77788580D01*
X149124114Y-77772646D01*
X149124114Y-77568173D01*
X149123824Y-77487832D01*
X149122474Y-77429562D01*
X149119369Y-77389909D01*
X149113812Y-77363618D01*
X149105107Y-77345436D01*
X149092556Y-77330107D01*
X149083999Y-77321955D01*
X149037728Y-77299375D01*
X148986728Y-77301375D01*
X148939993Y-77328073D01*
X148933189Y-77334698D01*
X148922293Y-77348456D01*
X148914836Y-77366642D01*
X148910169Y-77394177D01*
X148907642Y-77435981D01*
X148906602Y-77496973D01*
X148906400Y-77582073D01*
X148906303Y-77625234D01*
X148905674Y-77696224D01*
X148904556Y-77753076D01*
X148903063Y-77790828D01*
X148901309Y-77804514D01*
X148900785Y-77804468D01*
X148882973Y-77799420D01*
X148850509Y-77788580D01*
X148804800Y-77772646D01*
X148804823Y-77567237D01*
X148804857Y-77548951D01*
X148806778Y-77453626D01*
X148812678Y-77381543D01*
X148824001Y-77327813D01*
X148842187Y-77287549D01*
X148868679Y-77255861D01*
X148904918Y-77227861D01*
X148940263Y-77210333D01*
X148996773Y-77196785D01*
X149052356Y-77196015D01*
X149095086Y-77209195D01*
X149098298Y-77211015D01*
X149108205Y-77210820D01*
X149114975Y-77195572D01*
X149119861Y-77160613D01*
X149124114Y-77101289D01*
X149131371Y-76979547D01*
X149178543Y-76999444D01*
G37*
X149178543Y-76999444D02*
X149225714Y-77019342D01*
X149225714Y-77416509D01*
X149225519Y-77519498D01*
X149224998Y-77612141D01*
X149224199Y-77690700D01*
X149223172Y-77751439D01*
X149221963Y-77790623D01*
X149220623Y-77804514D01*
X149220099Y-77804468D01*
X149202287Y-77799420D01*
X149169823Y-77788580D01*
X149124114Y-77772646D01*
X149124114Y-77568173D01*
X149123824Y-77487832D01*
X149122474Y-77429562D01*
X149119369Y-77389909D01*
X149113812Y-77363618D01*
X149105107Y-77345436D01*
X149092556Y-77330107D01*
X149083999Y-77321955D01*
X149037728Y-77299375D01*
X148986728Y-77301375D01*
X148939993Y-77328073D01*
X148933189Y-77334698D01*
X148922293Y-77348456D01*
X148914836Y-77366642D01*
X148910169Y-77394177D01*
X148907642Y-77435981D01*
X148906602Y-77496973D01*
X148906400Y-77582073D01*
X148906303Y-77625234D01*
X148905674Y-77696224D01*
X148904556Y-77753076D01*
X148903063Y-77790828D01*
X148901309Y-77804514D01*
X148900785Y-77804468D01*
X148882973Y-77799420D01*
X148850509Y-77788580D01*
X148804800Y-77772646D01*
X148804823Y-77567237D01*
X148804857Y-77548951D01*
X148806778Y-77453626D01*
X148812678Y-77381543D01*
X148824001Y-77327813D01*
X148842187Y-77287549D01*
X148868679Y-77255861D01*
X148904918Y-77227861D01*
X148940263Y-77210333D01*
X148996773Y-77196785D01*
X149052356Y-77196015D01*
X149095086Y-77209195D01*
X149098298Y-77211015D01*
X149108205Y-77210820D01*
X149114975Y-77195572D01*
X149119861Y-77160613D01*
X149124114Y-77101289D01*
X149131371Y-76979547D01*
X149178543Y-76999444D01*
X148396090Y-72492348D02*
X148317546Y-72492778D01*
X148317546Y-72492778D02*
X148260702Y-72493942D01*
X148260702Y-72493942D02*
X148221895Y-72496207D01*
X148221895Y-72496207D02*
X148197462Y-72499940D01*
X148197462Y-72499940D02*
X148183738Y-72505506D01*
X148183738Y-72505506D02*
X148177060Y-72513273D01*
X148177060Y-72513273D02*
X148173764Y-72523605D01*
X148173764Y-72523605D02*
X148173444Y-72524943D01*
X148173444Y-72524943D02*
X148168438Y-72549079D01*
X148168438Y-72549079D02*
X148159171Y-72596701D01*
X148159171Y-72596701D02*
X148146608Y-72662741D01*
X148146608Y-72662741D02*
X148131713Y-72742128D01*
X148131713Y-72742128D02*
X148115449Y-72829796D01*
X148115449Y-72829796D02*
X148114881Y-72832875D01*
X148114881Y-72832875D02*
X148098590Y-72918789D01*
X148098590Y-72918789D02*
X148083348Y-72994696D01*
X148083348Y-72994696D02*
X148070139Y-73056045D01*
X148070139Y-73056045D02*
X148059946Y-73098282D01*
X148059946Y-73098282D02*
X148053752Y-73116855D01*
X148053752Y-73116855D02*
X148053457Y-73117184D01*
X148053457Y-73117184D02*
X148035212Y-73126253D01*
X148035212Y-73126253D02*
X147997595Y-73141367D01*
X147997595Y-73141367D02*
X147948729Y-73159262D01*
X147948729Y-73159262D02*
X147948457Y-73159358D01*
X147948457Y-73159358D02*
X147886907Y-73182493D01*
X147886907Y-73182493D02*
X147814343Y-73211965D01*
X147814343Y-73211965D02*
X147745943Y-73241597D01*
X147745943Y-73241597D02*
X147742706Y-73243062D01*
X147742706Y-73243062D02*
X147631298Y-73293626D01*
X147631298Y-73293626D02*
X147384601Y-73125160D01*
X147384601Y-73125160D02*
X147308923Y-73073803D01*
X147308923Y-73073803D02*
X147240369Y-73027889D01*
X147240369Y-73027889D02*
X147182912Y-72990030D01*
X147182912Y-72990030D02*
X147140524Y-72962837D01*
X147140524Y-72962837D02*
X147117175Y-72948921D01*
X147117175Y-72948921D02*
X147114958Y-72947889D01*
X147114958Y-72947889D02*
X147097990Y-72952484D01*
X147097990Y-72952484D02*
X147066299Y-72974655D01*
X147066299Y-72974655D02*
X147018648Y-73015447D01*
X147018648Y-73015447D02*
X146953802Y-73075905D01*
X146953802Y-73075905D02*
X146887603Y-73140227D01*
X146887603Y-73140227D02*
X146823786Y-73203612D01*
X146823786Y-73203612D02*
X146766671Y-73261451D01*
X146766671Y-73261451D02*
X146719695Y-73310175D01*
X146719695Y-73310175D02*
X146686297Y-73346210D01*
X146686297Y-73346210D02*
X146669915Y-73365984D01*
X146669915Y-73365984D02*
X146669306Y-73367002D01*
X146669306Y-73367002D02*
X146667495Y-73380572D01*
X146667495Y-73380572D02*
X146674317Y-73402733D01*
X146674317Y-73402733D02*
X146691460Y-73436478D01*
X146691460Y-73436478D02*
X146720607Y-73484800D01*
X146720607Y-73484800D02*
X146763445Y-73550692D01*
X146763445Y-73550692D02*
X146820552Y-73635517D01*
X146820552Y-73635517D02*
X146871234Y-73710177D01*
X146871234Y-73710177D02*
X146916539Y-73777140D01*
X146916539Y-73777140D02*
X146953850Y-73832516D01*
X146953850Y-73832516D02*
X146980548Y-73872420D01*
X146980548Y-73872420D02*
X146994015Y-73892962D01*
X146994015Y-73892962D02*
X146994863Y-73894356D01*
X146994863Y-73894356D02*
X146993219Y-73914038D01*
X146993219Y-73914038D02*
X146980755Y-73952293D01*
X146980755Y-73952293D02*
X146959952Y-74001889D01*
X146959952Y-74001889D02*
X146952538Y-74017728D01*
X146952538Y-74017728D02*
X146920186Y-74088290D01*
X146920186Y-74088290D02*
X146885672Y-74168353D01*
X146885672Y-74168353D02*
X146857635Y-74237629D01*
X146857635Y-74237629D02*
X146837432Y-74289045D01*
X146837432Y-74289045D02*
X146821385Y-74328119D01*
X146821385Y-74328119D02*
X146812112Y-74348541D01*
X146812112Y-74348541D02*
X146810959Y-74350114D01*
X146810959Y-74350114D02*
X146793904Y-74352721D01*
X146793904Y-74352721D02*
X146753702Y-74359863D01*
X146753702Y-74359863D02*
X146695698Y-74370523D01*
X146695698Y-74370523D02*
X146625237Y-74383685D01*
X146625237Y-74383685D02*
X146547665Y-74398333D01*
X146547665Y-74398333D02*
X146468328Y-74413449D01*
X146468328Y-74413449D02*
X146392569Y-74428018D01*
X146392569Y-74428018D02*
X146325736Y-74441022D01*
X146325736Y-74441022D02*
X146273172Y-74451445D01*
X146273172Y-74451445D02*
X146240224Y-74458270D01*
X146240224Y-74458270D02*
X146232143Y-74460199D01*
X146232143Y-74460199D02*
X146223795Y-74464962D01*
X146223795Y-74464962D02*
X146217494Y-74475718D01*
X146217494Y-74475718D02*
X146212955Y-74496098D01*
X146212955Y-74496098D02*
X146209896Y-74529734D01*
X146209896Y-74529734D02*
X146208033Y-74580255D01*
X146208033Y-74580255D02*
X146207082Y-74651292D01*
X146207082Y-74651292D02*
X146206760Y-74746476D01*
X146206760Y-74746476D02*
X146206743Y-74785492D01*
X146206743Y-74785492D02*
X146206743Y-75102799D01*
X146206743Y-75102799D02*
X146282943Y-75117839D01*
X146282943Y-75117839D02*
X146325337Y-75125995D01*
X146325337Y-75125995D02*
X146388600Y-75137899D01*
X146388600Y-75137899D02*
X146465038Y-75152116D01*
X146465038Y-75152116D02*
X146546957Y-75167210D01*
X146546957Y-75167210D02*
X146569600Y-75171355D01*
X146569600Y-75171355D02*
X146645194Y-75186053D01*
X146645194Y-75186053D02*
X146711047Y-75200505D01*
X146711047Y-75200505D02*
X146761634Y-75213375D01*
X146761634Y-75213375D02*
X146791426Y-75223322D01*
X146791426Y-75223322D02*
X146796388Y-75226287D01*
X146796388Y-75226287D02*
X146808574Y-75247283D01*
X146808574Y-75247283D02*
X146826047Y-75287967D01*
X146826047Y-75287967D02*
X146845423Y-75340322D01*
X146845423Y-75340322D02*
X146849266Y-75351600D01*
X146849266Y-75351600D02*
X146874661Y-75421523D01*
X146874661Y-75421523D02*
X146906183Y-75500418D01*
X146906183Y-75500418D02*
X146937031Y-75571266D01*
X146937031Y-75571266D02*
X146937183Y-75571595D01*
X146937183Y-75571595D02*
X146988553Y-75682733D01*
X146988553Y-75682733D02*
X146819601Y-75931253D01*
X146819601Y-75931253D02*
X146650648Y-76179772D01*
X146650648Y-76179772D02*
X146867571Y-76397058D01*
X146867571Y-76397058D02*
X146933181Y-76461726D01*
X146933181Y-76461726D02*
X146993021Y-76518733D01*
X146993021Y-76518733D02*
X147043733Y-76565033D01*
X147043733Y-76565033D02*
X147081954Y-76597584D01*
X147081954Y-76597584D02*
X147104325Y-76613343D01*
X147104325Y-76613343D02*
X147107534Y-76614343D01*
X147107534Y-76614343D02*
X147126374Y-76606469D01*
X147126374Y-76606469D02*
X147164820Y-76584578D01*
X147164820Y-76584578D02*
X147218670Y-76551267D01*
X147218670Y-76551267D02*
X147283724Y-76509131D01*
X147283724Y-76509131D02*
X147354060Y-76461943D01*
X147354060Y-76461943D02*
X147425445Y-76413810D01*
X147425445Y-76413810D02*
X147489092Y-76371928D01*
X147489092Y-76371928D02*
X147540959Y-76338871D01*
X147540959Y-76338871D02*
X147577005Y-76317218D01*
X147577005Y-76317218D02*
X147593133Y-76309543D01*
X147593133Y-76309543D02*
X147612811Y-76316037D01*
X147612811Y-76316037D02*
X147650125Y-76333150D01*
X147650125Y-76333150D02*
X147697379Y-76357326D01*
X147697379Y-76357326D02*
X147702388Y-76360013D01*
X147702388Y-76360013D02*
X147766023Y-76391927D01*
X147766023Y-76391927D02*
X147809659Y-76407579D01*
X147809659Y-76407579D02*
X147836798Y-76407745D01*
X147836798Y-76407745D02*
X147850943Y-76393204D01*
X147850943Y-76393204D02*
X147851025Y-76393000D01*
X147851025Y-76393000D02*
X147858095Y-76375779D01*
X147858095Y-76375779D02*
X147874958Y-76334899D01*
X147874958Y-76334899D02*
X147900305Y-76273525D01*
X147900305Y-76273525D02*
X147932829Y-76194819D01*
X147932829Y-76194819D02*
X147971222Y-76101947D01*
X147971222Y-76101947D02*
X148014178Y-75998072D01*
X148014178Y-75998072D02*
X148055778Y-75897502D01*
X148055778Y-75897502D02*
X148101496Y-75786516D01*
X148101496Y-75786516D02*
X148143474Y-75683703D01*
X148143474Y-75683703D02*
X148180452Y-75592215D01*
X148180452Y-75592215D02*
X148211173Y-75515201D01*
X148211173Y-75515201D02*
X148234378Y-75455815D01*
X148234378Y-75455815D02*
X148248810Y-75417209D01*
X148248810Y-75417209D02*
X148253257Y-75402800D01*
X148253257Y-75402800D02*
X148242104Y-75386272D01*
X148242104Y-75386272D02*
X148212931Y-75359930D01*
X148212931Y-75359930D02*
X148174029Y-75330887D01*
X148174029Y-75330887D02*
X148063243Y-75239039D01*
X148063243Y-75239039D02*
X147976649Y-75133759D01*
X147976649Y-75133759D02*
X147915284Y-75017266D01*
X147915284Y-75017266D02*
X147880185Y-74891776D01*
X147880185Y-74891776D02*
X147872392Y-74759507D01*
X147872392Y-74759507D02*
X147878057Y-74698457D01*
X147878057Y-74698457D02*
X147908922Y-74571795D01*
X147908922Y-74571795D02*
X147962080Y-74459941D01*
X147962080Y-74459941D02*
X148034233Y-74364001D01*
X148034233Y-74364001D02*
X148122083Y-74285076D01*
X148122083Y-74285076D02*
X148222335Y-74224270D01*
X148222335Y-74224270D02*
X148331690Y-74182687D01*
X148331690Y-74182687D02*
X148446853Y-74161428D01*
X148446853Y-74161428D02*
X148564525Y-74161599D01*
X148564525Y-74161599D02*
X148681410Y-74184301D01*
X148681410Y-74184301D02*
X148794211Y-74230638D01*
X148794211Y-74230638D02*
X148899631Y-74301713D01*
X148899631Y-74301713D02*
X148943632Y-74341911D01*
X148943632Y-74341911D02*
X149028021Y-74445129D01*
X149028021Y-74445129D02*
X149086778Y-74557925D01*
X149086778Y-74557925D02*
X149120296Y-74677010D01*
X149120296Y-74677010D02*
X149128965Y-74799095D01*
X149128965Y-74799095D02*
X149113177Y-74920893D01*
X149113177Y-74920893D02*
X149073322Y-75039116D01*
X149073322Y-75039116D02*
X149009793Y-75150475D01*
X149009793Y-75150475D02*
X148922979Y-75251684D01*
X148922979Y-75251684D02*
X148825971Y-75330887D01*
X148825971Y-75330887D02*
X148785563Y-75361162D01*
X148785563Y-75361162D02*
X148757018Y-75387219D01*
X148757018Y-75387219D02*
X148746743Y-75402825D01*
X148746743Y-75402825D02*
X148752123Y-75419843D01*
X148752123Y-75419843D02*
X148767425Y-75460500D01*
X148767425Y-75460500D02*
X148791388Y-75521642D01*
X148791388Y-75521642D02*
X148822756Y-75600119D01*
X148822756Y-75600119D02*
X148860268Y-75692780D01*
X148860268Y-75692780D02*
X148902667Y-75796472D01*
X148902667Y-75796472D02*
X148944337Y-75897526D01*
X148944337Y-75897526D02*
X148990310Y-76008607D01*
X148990310Y-76008607D02*
X149032893Y-76111541D01*
X149032893Y-76111541D02*
X149070779Y-76203165D01*
X149070779Y-76203165D02*
X149102660Y-76280316D01*
X149102660Y-76280316D02*
X149127229Y-76339831D01*
X149127229Y-76339831D02*
X149143180Y-76378544D01*
X149143180Y-76378544D02*
X149149090Y-76393000D01*
X149149090Y-76393000D02*
X149163052Y-76407685D01*
X149163052Y-76407685D02*
X149190060Y-76407642D01*
X149190060Y-76407642D02*
X149233587Y-76392099D01*
X149233587Y-76392099D02*
X149297110Y-76360284D01*
X149297110Y-76360284D02*
X149297612Y-76360013D01*
X149297612Y-76360013D02*
X149345440Y-76335323D01*
X149345440Y-76335323D02*
X149384103Y-76317338D01*
X149384103Y-76317338D02*
X149405905Y-76309614D01*
X149405905Y-76309614D02*
X149406867Y-76309543D01*
X149406867Y-76309543D02*
X149423279Y-76317378D01*
X149423279Y-76317378D02*
X149459513Y-76339165D01*
X149459513Y-76339165D02*
X149511526Y-76372328D01*
X149511526Y-76372328D02*
X149575275Y-76414291D01*
X149575275Y-76414291D02*
X149645940Y-76461943D01*
X149645940Y-76461943D02*
X149717884Y-76510191D01*
X149717884Y-76510191D02*
X149782726Y-76552151D01*
X149782726Y-76552151D02*
X149836265Y-76585227D01*
X149836265Y-76585227D02*
X149874303Y-76606821D01*
X149874303Y-76606821D02*
X149892467Y-76614343D01*
X149892467Y-76614343D02*
X149909192Y-76604457D01*
X149909192Y-76604457D02*
X149942820Y-76576826D01*
X149942820Y-76576826D02*
X149989990Y-76534495D01*
X149989990Y-76534495D02*
X150047342Y-76480505D01*
X150047342Y-76480505D02*
X150111516Y-76417899D01*
X150111516Y-76417899D02*
X150132503Y-76396983D01*
X150132503Y-76396983D02*
X150349501Y-76179623D01*
X150349501Y-76179623D02*
X150184332Y-75937220D01*
X150184332Y-75937220D02*
X150134136Y-75862781D01*
X150134136Y-75862781D02*
X150090081Y-75795972D01*
X150090081Y-75795972D02*
X150054638Y-75740665D01*
X150054638Y-75740665D02*
X150030281Y-75700729D01*
X150030281Y-75700729D02*
X150019478Y-75680036D01*
X150019478Y-75680036D02*
X150019162Y-75678563D01*
X150019162Y-75678563D02*
X150024857Y-75659058D01*
X150024857Y-75659058D02*
X150040174Y-75619822D01*
X150040174Y-75619822D02*
X150062463Y-75567430D01*
X150062463Y-75567430D02*
X150078107Y-75532355D01*
X150078107Y-75532355D02*
X150107359Y-75465201D01*
X150107359Y-75465201D02*
X150134906Y-75397358D01*
X150134906Y-75397358D02*
X150156263Y-75340034D01*
X150156263Y-75340034D02*
X150162065Y-75322572D01*
X150162065Y-75322572D02*
X150178548Y-75275938D01*
X150178548Y-75275938D02*
X150194660Y-75239905D01*
X150194660Y-75239905D02*
X150203510Y-75226287D01*
X150203510Y-75226287D02*
X150223040Y-75217952D01*
X150223040Y-75217952D02*
X150265666Y-75206137D01*
X150265666Y-75206137D02*
X150325855Y-75192181D01*
X150325855Y-75192181D02*
X150398078Y-75177422D01*
X150398078Y-75177422D02*
X150430400Y-75171355D01*
X150430400Y-75171355D02*
X150512478Y-75156273D01*
X150512478Y-75156273D02*
X150591205Y-75141669D01*
X150591205Y-75141669D02*
X150658891Y-75128980D01*
X150658891Y-75128980D02*
X150707840Y-75119642D01*
X150707840Y-75119642D02*
X150717057Y-75117839D01*
X150717057Y-75117839D02*
X150793257Y-75102799D01*
X150793257Y-75102799D02*
X150793257Y-74785492D01*
X150793257Y-74785492D02*
X150793086Y-74681154D01*
X150793086Y-74681154D02*
X150792384Y-74602213D01*
X150792384Y-74602213D02*
X150790866Y-74545038D01*
X150790866Y-74545038D02*
X150788251Y-74505999D01*
X150788251Y-74505999D02*
X150784254Y-74481465D01*
X150784254Y-74481465D02*
X150778591Y-74467805D01*
X150778591Y-74467805D02*
X150770980Y-74461389D01*
X150770980Y-74461389D02*
X150767857Y-74460199D01*
X150767857Y-74460199D02*
X150749022Y-74455980D01*
X150749022Y-74455980D02*
X150707412Y-74447562D01*
X150707412Y-74447562D02*
X150648370Y-74435961D01*
X150648370Y-74435961D02*
X150577243Y-74422195D01*
X150577243Y-74422195D02*
X150499375Y-74407280D01*
X150499375Y-74407280D02*
X150420113Y-74392232D01*
X150420113Y-74392232D02*
X150344802Y-74378069D01*
X150344802Y-74378069D02*
X150278787Y-74365806D01*
X150278787Y-74365806D02*
X150227413Y-74356461D01*
X150227413Y-74356461D02*
X150196025Y-74351050D01*
X150196025Y-74351050D02*
X150189041Y-74350114D01*
X150189041Y-74350114D02*
X150182715Y-74337596D01*
X150182715Y-74337596D02*
X150168710Y-74304246D01*
X150168710Y-74304246D02*
X150149645Y-74256377D01*
X150149645Y-74256377D02*
X150142366Y-74237629D01*
X150142366Y-74237629D02*
X150113004Y-74165195D01*
X150113004Y-74165195D02*
X150078429Y-74085170D01*
X150078429Y-74085170D02*
X150047463Y-74017728D01*
X150047463Y-74017728D02*
X150024677Y-73966159D01*
X150024677Y-73966159D02*
X150009518Y-73923785D01*
X150009518Y-73923785D02*
X150004458Y-73897834D01*
X150004458Y-73897834D02*
X150005264Y-73894356D01*
X150005264Y-73894356D02*
X150015959Y-73877936D01*
X150015959Y-73877936D02*
X150040380Y-73841417D01*
X150040380Y-73841417D02*
X150075905Y-73788687D01*
X150075905Y-73788687D02*
X150119913Y-73723635D01*
X150119913Y-73723635D02*
X150169783Y-73650151D01*
X150169783Y-73650151D02*
X150179644Y-73635645D01*
X150179644Y-73635645D02*
X150237508Y-73549704D01*
X150237508Y-73549704D02*
X150280044Y-73484261D01*
X150280044Y-73484261D02*
X150308946Y-73436304D01*
X150308946Y-73436304D02*
X150325910Y-73402820D01*
X150325910Y-73402820D02*
X150332633Y-73380795D01*
X150332633Y-73380795D02*
X150330810Y-73367217D01*
X150330810Y-73367217D02*
X150330764Y-73367131D01*
X150330764Y-73367131D02*
X150316414Y-73349297D01*
X150316414Y-73349297D02*
X150284677Y-73314817D01*
X150284677Y-73314817D02*
X150238990Y-73267268D01*
X150238990Y-73267268D02*
X150182796Y-73210222D01*
X150182796Y-73210222D02*
X150119532Y-73147255D01*
X150119532Y-73147255D02*
X150112398Y-73140227D01*
X150112398Y-73140227D02*
X150032670Y-73063020D01*
X150032670Y-73063020D02*
X149971143Y-73006330D01*
X149971143Y-73006330D02*
X149926579Y-72969110D01*
X149926579Y-72969110D02*
X149897743Y-72950315D01*
X149897743Y-72950315D02*
X149885042Y-72947889D01*
X149885042Y-72947889D02*
X149866506Y-72958471D01*
X149866506Y-72958471D02*
X149828039Y-72982916D01*
X149828039Y-72982916D02*
X149773614Y-73018612D01*
X149773614Y-73018612D02*
X149707202Y-73062947D01*
X149707202Y-73062947D02*
X149632775Y-73113311D01*
X149632775Y-73113311D02*
X149615399Y-73125160D01*
X149615399Y-73125160D02*
X149368703Y-73293626D01*
X149368703Y-73293626D02*
X149257294Y-73243062D01*
X149257294Y-73243062D02*
X149189543Y-73213595D01*
X149189543Y-73213595D02*
X149116817Y-73183959D01*
X149116817Y-73183959D02*
X149054297Y-73160330D01*
X149054297Y-73160330D02*
X149051543Y-73159358D01*
X149051543Y-73159358D02*
X149002640Y-73141457D01*
X149002640Y-73141457D02*
X148964943Y-73126320D01*
X148964943Y-73126320D02*
X148946575Y-73117210D01*
X148946575Y-73117210D02*
X148946544Y-73117184D01*
X148946544Y-73117184D02*
X148940715Y-73100717D01*
X148940715Y-73100717D02*
X148930808Y-73060219D01*
X148930808Y-73060219D02*
X148917805Y-73000242D01*
X148917805Y-73000242D02*
X148902691Y-72925340D01*
X148902691Y-72925340D02*
X148886448Y-72840064D01*
X148886448Y-72840064D02*
X148885119Y-72832875D01*
X148885119Y-72832875D02*
X148868825Y-72745014D01*
X148868825Y-72745014D02*
X148853867Y-72665260D01*
X148853867Y-72665260D02*
X148841209Y-72598681D01*
X148841209Y-72598681D02*
X148831814Y-72550347D01*
X148831814Y-72550347D02*
X148826646Y-72525325D01*
X148826646Y-72525325D02*
X148826556Y-72524943D01*
X148826556Y-72524943D02*
X148823411Y-72514299D01*
X148823411Y-72514299D02*
X148817296Y-72506262D01*
X148817296Y-72506262D02*
X148804547Y-72500467D01*
X148804547Y-72500467D02*
X148781500Y-72496547D01*
X148781500Y-72496547D02*
X148744491Y-72494135D01*
X148744491Y-72494135D02*
X148689856Y-72492865D01*
X148689856Y-72492865D02*
X148613933Y-72492371D01*
X148613933Y-72492371D02*
X148513056Y-72492286D01*
X148513056Y-72492286D02*
X148500000Y-72492286D01*
X148500000Y-72492286D02*
X148396090Y-72492348D01*
X148396090Y-72492348D02*
X148396090Y-72492348D01*
G36*
X148613933Y-72492371D02*
G01*
X148689856Y-72492865D01*
X148744491Y-72494135D01*
X148781500Y-72496547D01*
X148804547Y-72500467D01*
X148817296Y-72506262D01*
X148823411Y-72514299D01*
X148826556Y-72524943D01*
X148826646Y-72525325D01*
X148831814Y-72550347D01*
X148841209Y-72598681D01*
X148853867Y-72665260D01*
X148868825Y-72745014D01*
X148885119Y-72832875D01*
X148886448Y-72840064D01*
X148902691Y-72925340D01*
X148917805Y-73000242D01*
X148930808Y-73060219D01*
X148940715Y-73100717D01*
X148946544Y-73117184D01*
X148946575Y-73117210D01*
X148964943Y-73126320D01*
X149002640Y-73141457D01*
X149051543Y-73159358D01*
X149054297Y-73160330D01*
X149116817Y-73183959D01*
X149189543Y-73213595D01*
X149257294Y-73243062D01*
X149368703Y-73293626D01*
X149615399Y-73125160D01*
X149632775Y-73113311D01*
X149707202Y-73062947D01*
X149773614Y-73018612D01*
X149828039Y-72982916D01*
X149866506Y-72958471D01*
X149885042Y-72947889D01*
X149897743Y-72950315D01*
X149926579Y-72969110D01*
X149971143Y-73006330D01*
X150032670Y-73063020D01*
X150112398Y-73140227D01*
X150119532Y-73147255D01*
X150182796Y-73210222D01*
X150238990Y-73267268D01*
X150284677Y-73314817D01*
X150316414Y-73349297D01*
X150330764Y-73367131D01*
X150330810Y-73367217D01*
X150332633Y-73380795D01*
X150325910Y-73402820D01*
X150308946Y-73436304D01*
X150280044Y-73484261D01*
X150237508Y-73549704D01*
X150179644Y-73635645D01*
X150169783Y-73650151D01*
X150119913Y-73723635D01*
X150075905Y-73788687D01*
X150040380Y-73841417D01*
X150015959Y-73877936D01*
X150005264Y-73894356D01*
X150004458Y-73897834D01*
X150009518Y-73923785D01*
X150024677Y-73966159D01*
X150047463Y-74017728D01*
X150078429Y-74085170D01*
X150113004Y-74165195D01*
X150142366Y-74237629D01*
X150149645Y-74256377D01*
X150168710Y-74304246D01*
X150182715Y-74337596D01*
X150189041Y-74350114D01*
X150196025Y-74351050D01*
X150227413Y-74356461D01*
X150278787Y-74365806D01*
X150344802Y-74378069D01*
X150420113Y-74392232D01*
X150499375Y-74407280D01*
X150577243Y-74422195D01*
X150648370Y-74435961D01*
X150707412Y-74447562D01*
X150749022Y-74455980D01*
X150767857Y-74460199D01*
X150770980Y-74461389D01*
X150778591Y-74467805D01*
X150784254Y-74481465D01*
X150788251Y-74505999D01*
X150790866Y-74545038D01*
X150792384Y-74602213D01*
X150793086Y-74681154D01*
X150793257Y-74785492D01*
X150793257Y-75102799D01*
X150717057Y-75117839D01*
X150707840Y-75119642D01*
X150658891Y-75128980D01*
X150591205Y-75141669D01*
X150512478Y-75156273D01*
X150430400Y-75171355D01*
X150398078Y-75177422D01*
X150325855Y-75192181D01*
X150265666Y-75206137D01*
X150223040Y-75217952D01*
X150203510Y-75226287D01*
X150194660Y-75239905D01*
X150178548Y-75275938D01*
X150162065Y-75322572D01*
X150156263Y-75340034D01*
X150134906Y-75397358D01*
X150107359Y-75465201D01*
X150078107Y-75532355D01*
X150062463Y-75567430D01*
X150040174Y-75619822D01*
X150024857Y-75659058D01*
X150019162Y-75678563D01*
X150019478Y-75680036D01*
X150030281Y-75700729D01*
X150054638Y-75740665D01*
X150090081Y-75795972D01*
X150134136Y-75862781D01*
X150184332Y-75937220D01*
X150349501Y-76179623D01*
X150132503Y-76396983D01*
X150111516Y-76417899D01*
X150047342Y-76480505D01*
X149989990Y-76534495D01*
X149942820Y-76576826D01*
X149909192Y-76604457D01*
X149892467Y-76614343D01*
X149874303Y-76606821D01*
X149836265Y-76585227D01*
X149782726Y-76552151D01*
X149717884Y-76510191D01*
X149645940Y-76461943D01*
X149575275Y-76414291D01*
X149511526Y-76372328D01*
X149459513Y-76339165D01*
X149423279Y-76317378D01*
X149406867Y-76309543D01*
X149405905Y-76309614D01*
X149384103Y-76317338D01*
X149345440Y-76335323D01*
X149297612Y-76360013D01*
X149297110Y-76360284D01*
X149233587Y-76392099D01*
X149190060Y-76407642D01*
X149163052Y-76407685D01*
X149149090Y-76393000D01*
X149143180Y-76378544D01*
X149127229Y-76339831D01*
X149102660Y-76280316D01*
X149070779Y-76203165D01*
X149032893Y-76111541D01*
X148990310Y-76008607D01*
X148944337Y-75897526D01*
X148902667Y-75796472D01*
X148860268Y-75692780D01*
X148822756Y-75600119D01*
X148791388Y-75521642D01*
X148767425Y-75460500D01*
X148752123Y-75419843D01*
X148746743Y-75402825D01*
X148757018Y-75387219D01*
X148785563Y-75361162D01*
X148825971Y-75330887D01*
X148922979Y-75251684D01*
X149009793Y-75150475D01*
X149073322Y-75039116D01*
X149113177Y-74920893D01*
X149128965Y-74799095D01*
X149120296Y-74677010D01*
X149086778Y-74557925D01*
X149028021Y-74445129D01*
X148943632Y-74341911D01*
X148899631Y-74301713D01*
X148794211Y-74230638D01*
X148681410Y-74184301D01*
X148564525Y-74161599D01*
X148446853Y-74161428D01*
X148331690Y-74182687D01*
X148222335Y-74224270D01*
X148122083Y-74285076D01*
X148034233Y-74364001D01*
X147962080Y-74459941D01*
X147908922Y-74571795D01*
X147878057Y-74698457D01*
X147872392Y-74759507D01*
X147880185Y-74891776D01*
X147915284Y-75017266D01*
X147976649Y-75133759D01*
X148063243Y-75239039D01*
X148174029Y-75330887D01*
X148212931Y-75359930D01*
X148242104Y-75386272D01*
X148253257Y-75402800D01*
X148248810Y-75417209D01*
X148234378Y-75455815D01*
X148211173Y-75515201D01*
X148180452Y-75592215D01*
X148143474Y-75683703D01*
X148101496Y-75786516D01*
X148055778Y-75897502D01*
X148014178Y-75998072D01*
X147971222Y-76101947D01*
X147932829Y-76194819D01*
X147900305Y-76273525D01*
X147874958Y-76334899D01*
X147858095Y-76375779D01*
X147851025Y-76393000D01*
X147850943Y-76393204D01*
X147836798Y-76407745D01*
X147809659Y-76407579D01*
X147766023Y-76391927D01*
X147702388Y-76360013D01*
X147697379Y-76357326D01*
X147650125Y-76333150D01*
X147612811Y-76316037D01*
X147593133Y-76309543D01*
X147577005Y-76317218D01*
X147540959Y-76338871D01*
X147489092Y-76371928D01*
X147425445Y-76413810D01*
X147354060Y-76461943D01*
X147283724Y-76509131D01*
X147218670Y-76551267D01*
X147164820Y-76584578D01*
X147126374Y-76606469D01*
X147107534Y-76614343D01*
X147104325Y-76613343D01*
X147081954Y-76597584D01*
X147043733Y-76565033D01*
X146993021Y-76518733D01*
X146933181Y-76461726D01*
X146867571Y-76397058D01*
X146650648Y-76179772D01*
X146819601Y-75931253D01*
X146988553Y-75682733D01*
X146937183Y-75571595D01*
X146937031Y-75571266D01*
X146906183Y-75500418D01*
X146874661Y-75421523D01*
X146849266Y-75351600D01*
X146845423Y-75340322D01*
X146826047Y-75287967D01*
X146808574Y-75247283D01*
X146796388Y-75226287D01*
X146791426Y-75223322D01*
X146761634Y-75213375D01*
X146711047Y-75200505D01*
X146645194Y-75186053D01*
X146569600Y-75171355D01*
X146546957Y-75167210D01*
X146465038Y-75152116D01*
X146388600Y-75137899D01*
X146325337Y-75125995D01*
X146282943Y-75117839D01*
X146206743Y-75102799D01*
X146206743Y-74785492D01*
X146206760Y-74746476D01*
X146207082Y-74651292D01*
X146208033Y-74580255D01*
X146209896Y-74529734D01*
X146212955Y-74496098D01*
X146217494Y-74475718D01*
X146223795Y-74464962D01*
X146232143Y-74460199D01*
X146240224Y-74458270D01*
X146273172Y-74451445D01*
X146325736Y-74441022D01*
X146392569Y-74428018D01*
X146468328Y-74413449D01*
X146547665Y-74398333D01*
X146625237Y-74383685D01*
X146695698Y-74370523D01*
X146753702Y-74359863D01*
X146793904Y-74352721D01*
X146810959Y-74350114D01*
X146812112Y-74348541D01*
X146821385Y-74328119D01*
X146837432Y-74289045D01*
X146857635Y-74237629D01*
X146885672Y-74168353D01*
X146920186Y-74088290D01*
X146952538Y-74017728D01*
X146959952Y-74001889D01*
X146980755Y-73952293D01*
X146993219Y-73914038D01*
X146994863Y-73894356D01*
X146994015Y-73892962D01*
X146980548Y-73872420D01*
X146953850Y-73832516D01*
X146916539Y-73777140D01*
X146871234Y-73710177D01*
X146820552Y-73635517D01*
X146763445Y-73550692D01*
X146720607Y-73484800D01*
X146691460Y-73436478D01*
X146674317Y-73402733D01*
X146667495Y-73380572D01*
X146669306Y-73367002D01*
X146669915Y-73365984D01*
X146686297Y-73346210D01*
X146719695Y-73310175D01*
X146766671Y-73261451D01*
X146823786Y-73203612D01*
X146887603Y-73140227D01*
X146953802Y-73075905D01*
X147018648Y-73015447D01*
X147066299Y-72974655D01*
X147097990Y-72952484D01*
X147114958Y-72947889D01*
X147117175Y-72948921D01*
X147140524Y-72962837D01*
X147182912Y-72990030D01*
X147240369Y-73027889D01*
X147308923Y-73073803D01*
X147384601Y-73125160D01*
X147631298Y-73293626D01*
X147742706Y-73243062D01*
X147745943Y-73241597D01*
X147814343Y-73211965D01*
X147886907Y-73182493D01*
X147948457Y-73159358D01*
X147948729Y-73159262D01*
X147997595Y-73141367D01*
X148035212Y-73126253D01*
X148053457Y-73117184D01*
X148053752Y-73116855D01*
X148059946Y-73098282D01*
X148070139Y-73056045D01*
X148083348Y-72994696D01*
X148098590Y-72918789D01*
X148114881Y-72832875D01*
X148115449Y-72829796D01*
X148131713Y-72742128D01*
X148146608Y-72662741D01*
X148159171Y-72596701D01*
X148168438Y-72549079D01*
X148173444Y-72524943D01*
X148173764Y-72523605D01*
X148177060Y-72513273D01*
X148183738Y-72505506D01*
X148197462Y-72499940D01*
X148221895Y-72496207D01*
X148260702Y-72493942D01*
X148317546Y-72492778D01*
X148396090Y-72492348D01*
X148500000Y-72492286D01*
X148513056Y-72492286D01*
X148613933Y-72492371D01*
G37*
X148613933Y-72492371D02*
X148689856Y-72492865D01*
X148744491Y-72494135D01*
X148781500Y-72496547D01*
X148804547Y-72500467D01*
X148817296Y-72506262D01*
X148823411Y-72514299D01*
X148826556Y-72524943D01*
X148826646Y-72525325D01*
X148831814Y-72550347D01*
X148841209Y-72598681D01*
X148853867Y-72665260D01*
X148868825Y-72745014D01*
X148885119Y-72832875D01*
X148886448Y-72840064D01*
X148902691Y-72925340D01*
X148917805Y-73000242D01*
X148930808Y-73060219D01*
X148940715Y-73100717D01*
X148946544Y-73117184D01*
X148946575Y-73117210D01*
X148964943Y-73126320D01*
X149002640Y-73141457D01*
X149051543Y-73159358D01*
X149054297Y-73160330D01*
X149116817Y-73183959D01*
X149189543Y-73213595D01*
X149257294Y-73243062D01*
X149368703Y-73293626D01*
X149615399Y-73125160D01*
X149632775Y-73113311D01*
X149707202Y-73062947D01*
X149773614Y-73018612D01*
X149828039Y-72982916D01*
X149866506Y-72958471D01*
X149885042Y-72947889D01*
X149897743Y-72950315D01*
X149926579Y-72969110D01*
X149971143Y-73006330D01*
X150032670Y-73063020D01*
X150112398Y-73140227D01*
X150119532Y-73147255D01*
X150182796Y-73210222D01*
X150238990Y-73267268D01*
X150284677Y-73314817D01*
X150316414Y-73349297D01*
X150330764Y-73367131D01*
X150330810Y-73367217D01*
X150332633Y-73380795D01*
X150325910Y-73402820D01*
X150308946Y-73436304D01*
X150280044Y-73484261D01*
X150237508Y-73549704D01*
X150179644Y-73635645D01*
X150169783Y-73650151D01*
X150119913Y-73723635D01*
X150075905Y-73788687D01*
X150040380Y-73841417D01*
X150015959Y-73877936D01*
X150005264Y-73894356D01*
X150004458Y-73897834D01*
X150009518Y-73923785D01*
X150024677Y-73966159D01*
X150047463Y-74017728D01*
X150078429Y-74085170D01*
X150113004Y-74165195D01*
X150142366Y-74237629D01*
X150149645Y-74256377D01*
X150168710Y-74304246D01*
X150182715Y-74337596D01*
X150189041Y-74350114D01*
X150196025Y-74351050D01*
X150227413Y-74356461D01*
X150278787Y-74365806D01*
X150344802Y-74378069D01*
X150420113Y-74392232D01*
X150499375Y-74407280D01*
X150577243Y-74422195D01*
X150648370Y-74435961D01*
X150707412Y-74447562D01*
X150749022Y-74455980D01*
X150767857Y-74460199D01*
X150770980Y-74461389D01*
X150778591Y-74467805D01*
X150784254Y-74481465D01*
X150788251Y-74505999D01*
X150790866Y-74545038D01*
X150792384Y-74602213D01*
X150793086Y-74681154D01*
X150793257Y-74785492D01*
X150793257Y-75102799D01*
X150717057Y-75117839D01*
X150707840Y-75119642D01*
X150658891Y-75128980D01*
X150591205Y-75141669D01*
X150512478Y-75156273D01*
X150430400Y-75171355D01*
X150398078Y-75177422D01*
X150325855Y-75192181D01*
X150265666Y-75206137D01*
X150223040Y-75217952D01*
X150203510Y-75226287D01*
X150194660Y-75239905D01*
X150178548Y-75275938D01*
X150162065Y-75322572D01*
X150156263Y-75340034D01*
X150134906Y-75397358D01*
X150107359Y-75465201D01*
X150078107Y-75532355D01*
X150062463Y-75567430D01*
X150040174Y-75619822D01*
X150024857Y-75659058D01*
X150019162Y-75678563D01*
X150019478Y-75680036D01*
X150030281Y-75700729D01*
X150054638Y-75740665D01*
X150090081Y-75795972D01*
X150134136Y-75862781D01*
X150184332Y-75937220D01*
X150349501Y-76179623D01*
X150132503Y-76396983D01*
X150111516Y-76417899D01*
X150047342Y-76480505D01*
X149989990Y-76534495D01*
X149942820Y-76576826D01*
X149909192Y-76604457D01*
X149892467Y-76614343D01*
X149874303Y-76606821D01*
X149836265Y-76585227D01*
X149782726Y-76552151D01*
X149717884Y-76510191D01*
X149645940Y-76461943D01*
X149575275Y-76414291D01*
X149511526Y-76372328D01*
X149459513Y-76339165D01*
X149423279Y-76317378D01*
X149406867Y-76309543D01*
X149405905Y-76309614D01*
X149384103Y-76317338D01*
X149345440Y-76335323D01*
X149297612Y-76360013D01*
X149297110Y-76360284D01*
X149233587Y-76392099D01*
X149190060Y-76407642D01*
X149163052Y-76407685D01*
X149149090Y-76393000D01*
X149143180Y-76378544D01*
X149127229Y-76339831D01*
X149102660Y-76280316D01*
X149070779Y-76203165D01*
X149032893Y-76111541D01*
X148990310Y-76008607D01*
X148944337Y-75897526D01*
X148902667Y-75796472D01*
X148860268Y-75692780D01*
X148822756Y-75600119D01*
X148791388Y-75521642D01*
X148767425Y-75460500D01*
X148752123Y-75419843D01*
X148746743Y-75402825D01*
X148757018Y-75387219D01*
X148785563Y-75361162D01*
X148825971Y-75330887D01*
X148922979Y-75251684D01*
X149009793Y-75150475D01*
X149073322Y-75039116D01*
X149113177Y-74920893D01*
X149128965Y-74799095D01*
X149120296Y-74677010D01*
X149086778Y-74557925D01*
X149028021Y-74445129D01*
X148943632Y-74341911D01*
X148899631Y-74301713D01*
X148794211Y-74230638D01*
X148681410Y-74184301D01*
X148564525Y-74161599D01*
X148446853Y-74161428D01*
X148331690Y-74182687D01*
X148222335Y-74224270D01*
X148122083Y-74285076D01*
X148034233Y-74364001D01*
X147962080Y-74459941D01*
X147908922Y-74571795D01*
X147878057Y-74698457D01*
X147872392Y-74759507D01*
X147880185Y-74891776D01*
X147915284Y-75017266D01*
X147976649Y-75133759D01*
X148063243Y-75239039D01*
X148174029Y-75330887D01*
X148212931Y-75359930D01*
X148242104Y-75386272D01*
X148253257Y-75402800D01*
X148248810Y-75417209D01*
X148234378Y-75455815D01*
X148211173Y-75515201D01*
X148180452Y-75592215D01*
X148143474Y-75683703D01*
X148101496Y-75786516D01*
X148055778Y-75897502D01*
X148014178Y-75998072D01*
X147971222Y-76101947D01*
X147932829Y-76194819D01*
X147900305Y-76273525D01*
X147874958Y-76334899D01*
X147858095Y-76375779D01*
X147851025Y-76393000D01*
X147850943Y-76393204D01*
X147836798Y-76407745D01*
X147809659Y-76407579D01*
X147766023Y-76391927D01*
X147702388Y-76360013D01*
X147697379Y-76357326D01*
X147650125Y-76333150D01*
X147612811Y-76316037D01*
X147593133Y-76309543D01*
X147577005Y-76317218D01*
X147540959Y-76338871D01*
X147489092Y-76371928D01*
X147425445Y-76413810D01*
X147354060Y-76461943D01*
X147283724Y-76509131D01*
X147218670Y-76551267D01*
X147164820Y-76584578D01*
X147126374Y-76606469D01*
X147107534Y-76614343D01*
X147104325Y-76613343D01*
X147081954Y-76597584D01*
X147043733Y-76565033D01*
X146993021Y-76518733D01*
X146933181Y-76461726D01*
X146867571Y-76397058D01*
X146650648Y-76179772D01*
X146819601Y-75931253D01*
X146988553Y-75682733D01*
X146937183Y-75571595D01*
X146937031Y-75571266D01*
X146906183Y-75500418D01*
X146874661Y-75421523D01*
X146849266Y-75351600D01*
X146845423Y-75340322D01*
X146826047Y-75287967D01*
X146808574Y-75247283D01*
X146796388Y-75226287D01*
X146791426Y-75223322D01*
X146761634Y-75213375D01*
X146711047Y-75200505D01*
X146645194Y-75186053D01*
X146569600Y-75171355D01*
X146546957Y-75167210D01*
X146465038Y-75152116D01*
X146388600Y-75137899D01*
X146325337Y-75125995D01*
X146282943Y-75117839D01*
X146206743Y-75102799D01*
X146206743Y-74785492D01*
X146206760Y-74746476D01*
X146207082Y-74651292D01*
X146208033Y-74580255D01*
X146209896Y-74529734D01*
X146212955Y-74496098D01*
X146217494Y-74475718D01*
X146223795Y-74464962D01*
X146232143Y-74460199D01*
X146240224Y-74458270D01*
X146273172Y-74451445D01*
X146325736Y-74441022D01*
X146392569Y-74428018D01*
X146468328Y-74413449D01*
X146547665Y-74398333D01*
X146625237Y-74383685D01*
X146695698Y-74370523D01*
X146753702Y-74359863D01*
X146793904Y-74352721D01*
X146810959Y-74350114D01*
X146812112Y-74348541D01*
X146821385Y-74328119D01*
X146837432Y-74289045D01*
X146857635Y-74237629D01*
X146885672Y-74168353D01*
X146920186Y-74088290D01*
X146952538Y-74017728D01*
X146959952Y-74001889D01*
X146980755Y-73952293D01*
X146993219Y-73914038D01*
X146994863Y-73894356D01*
X146994015Y-73892962D01*
X146980548Y-73872420D01*
X146953850Y-73832516D01*
X146916539Y-73777140D01*
X146871234Y-73710177D01*
X146820552Y-73635517D01*
X146763445Y-73550692D01*
X146720607Y-73484800D01*
X146691460Y-73436478D01*
X146674317Y-73402733D01*
X146667495Y-73380572D01*
X146669306Y-73367002D01*
X146669915Y-73365984D01*
X146686297Y-73346210D01*
X146719695Y-73310175D01*
X146766671Y-73261451D01*
X146823786Y-73203612D01*
X146887603Y-73140227D01*
X146953802Y-73075905D01*
X147018648Y-73015447D01*
X147066299Y-72974655D01*
X147097990Y-72952484D01*
X147114958Y-72947889D01*
X147117175Y-72948921D01*
X147140524Y-72962837D01*
X147182912Y-72990030D01*
X147240369Y-73027889D01*
X147308923Y-73073803D01*
X147384601Y-73125160D01*
X147631298Y-73293626D01*
X147742706Y-73243062D01*
X147745943Y-73241597D01*
X147814343Y-73211965D01*
X147886907Y-73182493D01*
X147948457Y-73159358D01*
X147948729Y-73159262D01*
X147997595Y-73141367D01*
X148035212Y-73126253D01*
X148053457Y-73117184D01*
X148053752Y-73116855D01*
X148059946Y-73098282D01*
X148070139Y-73056045D01*
X148083348Y-72994696D01*
X148098590Y-72918789D01*
X148114881Y-72832875D01*
X148115449Y-72829796D01*
X148131713Y-72742128D01*
X148146608Y-72662741D01*
X148159171Y-72596701D01*
X148168438Y-72549079D01*
X148173444Y-72524943D01*
X148173764Y-72523605D01*
X148177060Y-72513273D01*
X148183738Y-72505506D01*
X148197462Y-72499940D01*
X148221895Y-72496207D01*
X148260702Y-72493942D01*
X148317546Y-72492778D01*
X148396090Y-72492348D01*
X148500000Y-72492286D01*
X148513056Y-72492286D01*
X148613933Y-72492371D01*
X146355124Y-77206335D02*
X146313333Y-77225344D01*
X146313333Y-77225344D02*
X146280531Y-77248378D01*
X146280531Y-77248378D02*
X146256497Y-77274133D01*
X146256497Y-77274133D02*
X146239903Y-77307358D01*
X146239903Y-77307358D02*
X146229423Y-77352800D01*
X146229423Y-77352800D02*
X146223729Y-77415207D01*
X146223729Y-77415207D02*
X146221493Y-77499327D01*
X146221493Y-77499327D02*
X146221257Y-77554721D01*
X146221257Y-77554721D02*
X146221257Y-77770826D01*
X146221257Y-77770826D02*
X146258226Y-77787670D01*
X146258226Y-77787670D02*
X146287344Y-77799981D01*
X146287344Y-77799981D02*
X146301769Y-77804514D01*
X146301769Y-77804514D02*
X146304528Y-77791025D01*
X146304528Y-77791025D02*
X146306718Y-77754653D01*
X146306718Y-77754653D02*
X146308058Y-77701542D01*
X146308058Y-77701542D02*
X146308343Y-77659372D01*
X146308343Y-77659372D02*
X146309566Y-77598447D01*
X146309566Y-77598447D02*
X146312864Y-77550115D01*
X146312864Y-77550115D02*
X146317679Y-77520518D01*
X146317679Y-77520518D02*
X146321504Y-77514229D01*
X146321504Y-77514229D02*
X146347217Y-77520652D01*
X146347217Y-77520652D02*
X146387582Y-77537125D01*
X146387582Y-77537125D02*
X146434321Y-77559458D01*
X146434321Y-77559458D02*
X146479155Y-77583457D01*
X146479155Y-77583457D02*
X146513807Y-77604930D01*
X146513807Y-77604930D02*
X146529998Y-77619685D01*
X146529998Y-77619685D02*
X146530062Y-77619845D01*
X146530062Y-77619845D02*
X146528670Y-77647152D01*
X146528670Y-77647152D02*
X146516182Y-77673219D01*
X146516182Y-77673219D02*
X146494257Y-77694392D01*
X146494257Y-77694392D02*
X146462257Y-77701474D01*
X146462257Y-77701474D02*
X146434908Y-77700649D01*
X146434908Y-77700649D02*
X146396174Y-77700042D01*
X146396174Y-77700042D02*
X146375842Y-77709116D01*
X146375842Y-77709116D02*
X146363631Y-77733092D01*
X146363631Y-77733092D02*
X146362091Y-77737613D01*
X146362091Y-77737613D02*
X146356797Y-77771806D01*
X146356797Y-77771806D02*
X146370953Y-77792568D01*
X146370953Y-77792568D02*
X146407852Y-77802462D01*
X146407852Y-77802462D02*
X146447711Y-77804292D01*
X146447711Y-77804292D02*
X146519438Y-77790727D01*
X146519438Y-77790727D02*
X146556568Y-77771355D01*
X146556568Y-77771355D02*
X146602424Y-77725845D01*
X146602424Y-77725845D02*
X146626744Y-77669983D01*
X146626744Y-77669983D02*
X146628927Y-77610957D01*
X146628927Y-77610957D02*
X146608371Y-77555953D01*
X146608371Y-77555953D02*
X146577451Y-77521486D01*
X146577451Y-77521486D02*
X146546580Y-77502189D01*
X146546580Y-77502189D02*
X146498058Y-77477759D01*
X146498058Y-77477759D02*
X146441515Y-77452985D01*
X146441515Y-77452985D02*
X146432090Y-77449199D01*
X146432090Y-77449199D02*
X146369981Y-77421791D01*
X146369981Y-77421791D02*
X146334178Y-77397634D01*
X146334178Y-77397634D02*
X146322663Y-77373619D01*
X146322663Y-77373619D02*
X146333420Y-77346635D01*
X146333420Y-77346635D02*
X146351886Y-77325543D01*
X146351886Y-77325543D02*
X146395531Y-77299572D01*
X146395531Y-77299572D02*
X146443554Y-77297624D01*
X146443554Y-77297624D02*
X146487594Y-77317637D01*
X146487594Y-77317637D02*
X146519291Y-77357551D01*
X146519291Y-77357551D02*
X146523451Y-77367848D01*
X146523451Y-77367848D02*
X146547673Y-77405724D01*
X146547673Y-77405724D02*
X146583035Y-77433842D01*
X146583035Y-77433842D02*
X146627657Y-77456917D01*
X146627657Y-77456917D02*
X146627657Y-77391485D01*
X146627657Y-77391485D02*
X146625031Y-77351506D01*
X146625031Y-77351506D02*
X146613770Y-77319997D01*
X146613770Y-77319997D02*
X146588801Y-77286378D01*
X146588801Y-77286378D02*
X146564831Y-77260484D01*
X146564831Y-77260484D02*
X146527559Y-77223817D01*
X146527559Y-77223817D02*
X146498599Y-77204121D01*
X146498599Y-77204121D02*
X146467495Y-77196220D01*
X146467495Y-77196220D02*
X146432287Y-77194914D01*
X146432287Y-77194914D02*
X146355124Y-77206335D01*
X146355124Y-77206335D02*
X146355124Y-77206335D01*
G36*
X146467495Y-77196220D02*
G01*
X146498599Y-77204121D01*
X146527559Y-77223817D01*
X146564831Y-77260484D01*
X146588801Y-77286378D01*
X146613770Y-77319997D01*
X146625031Y-77351506D01*
X146627657Y-77391485D01*
X146627657Y-77456917D01*
X146583035Y-77433842D01*
X146547673Y-77405724D01*
X146523451Y-77367848D01*
X146519291Y-77357551D01*
X146487594Y-77317637D01*
X146443554Y-77297624D01*
X146395531Y-77299572D01*
X146351886Y-77325543D01*
X146333420Y-77346635D01*
X146322663Y-77373619D01*
X146334178Y-77397634D01*
X146369981Y-77421791D01*
X146432090Y-77449199D01*
X146441515Y-77452985D01*
X146498058Y-77477759D01*
X146546580Y-77502189D01*
X146577451Y-77521486D01*
X146608371Y-77555953D01*
X146628927Y-77610957D01*
X146626744Y-77669983D01*
X146602424Y-77725845D01*
X146556568Y-77771355D01*
X146519438Y-77790727D01*
X146447711Y-77804292D01*
X146407852Y-77802462D01*
X146370953Y-77792568D01*
X146356797Y-77771806D01*
X146362091Y-77737613D01*
X146363631Y-77733092D01*
X146375842Y-77709116D01*
X146396174Y-77700042D01*
X146434908Y-77700649D01*
X146462257Y-77701474D01*
X146494257Y-77694392D01*
X146516182Y-77673219D01*
X146528670Y-77647152D01*
X146530062Y-77619845D01*
X146529998Y-77619685D01*
X146513807Y-77604930D01*
X146479155Y-77583457D01*
X146434321Y-77559458D01*
X146387582Y-77537125D01*
X146347217Y-77520652D01*
X146321504Y-77514229D01*
X146317679Y-77520518D01*
X146312864Y-77550115D01*
X146309566Y-77598447D01*
X146308343Y-77659372D01*
X146308058Y-77701542D01*
X146306718Y-77754653D01*
X146304528Y-77791025D01*
X146301769Y-77804514D01*
X146287344Y-77799981D01*
X146258226Y-77787670D01*
X146221257Y-77770826D01*
X146221257Y-77554721D01*
X146221493Y-77499327D01*
X146223729Y-77415207D01*
X146229423Y-77352800D01*
X146239903Y-77307358D01*
X146256497Y-77274133D01*
X146280531Y-77248378D01*
X146313333Y-77225344D01*
X146355124Y-77206335D01*
X146432287Y-77194914D01*
X146467495Y-77196220D01*
G37*
X146467495Y-77196220D02*
X146498599Y-77204121D01*
X146527559Y-77223817D01*
X146564831Y-77260484D01*
X146588801Y-77286378D01*
X146613770Y-77319997D01*
X146625031Y-77351506D01*
X146627657Y-77391485D01*
X146627657Y-77456917D01*
X146583035Y-77433842D01*
X146547673Y-77405724D01*
X146523451Y-77367848D01*
X146519291Y-77357551D01*
X146487594Y-77317637D01*
X146443554Y-77297624D01*
X146395531Y-77299572D01*
X146351886Y-77325543D01*
X146333420Y-77346635D01*
X146322663Y-77373619D01*
X146334178Y-77397634D01*
X146369981Y-77421791D01*
X146432090Y-77449199D01*
X146441515Y-77452985D01*
X146498058Y-77477759D01*
X146546580Y-77502189D01*
X146577451Y-77521486D01*
X146608371Y-77555953D01*
X146628927Y-77610957D01*
X146626744Y-77669983D01*
X146602424Y-77725845D01*
X146556568Y-77771355D01*
X146519438Y-77790727D01*
X146447711Y-77804292D01*
X146407852Y-77802462D01*
X146370953Y-77792568D01*
X146356797Y-77771806D01*
X146362091Y-77737613D01*
X146363631Y-77733092D01*
X146375842Y-77709116D01*
X146396174Y-77700042D01*
X146434908Y-77700649D01*
X146462257Y-77701474D01*
X146494257Y-77694392D01*
X146516182Y-77673219D01*
X146528670Y-77647152D01*
X146530062Y-77619845D01*
X146529998Y-77619685D01*
X146513807Y-77604930D01*
X146479155Y-77583457D01*
X146434321Y-77559458D01*
X146387582Y-77537125D01*
X146347217Y-77520652D01*
X146321504Y-77514229D01*
X146317679Y-77520518D01*
X146312864Y-77550115D01*
X146309566Y-77598447D01*
X146308343Y-77659372D01*
X146308058Y-77701542D01*
X146306718Y-77754653D01*
X146304528Y-77791025D01*
X146301769Y-77804514D01*
X146287344Y-77799981D01*
X146258226Y-77787670D01*
X146221257Y-77770826D01*
X146221257Y-77554721D01*
X146221493Y-77499327D01*
X146223729Y-77415207D01*
X146229423Y-77352800D01*
X146239903Y-77307358D01*
X146256497Y-77274133D01*
X146280531Y-77248378D01*
X146313333Y-77225344D01*
X146355124Y-77206335D01*
X146432287Y-77194914D01*
X146467495Y-77196220D01*
X145346405Y-77216966D02*
X145288979Y-77254497D01*
X145288979Y-77254497D02*
X145261281Y-77288096D01*
X145261281Y-77288096D02*
X145239338Y-77349064D01*
X145239338Y-77349064D02*
X145237595Y-77397308D01*
X145237595Y-77397308D02*
X145241543Y-77461816D01*
X145241543Y-77461816D02*
X145390314Y-77526934D01*
X145390314Y-77526934D02*
X145462651Y-77560202D01*
X145462651Y-77560202D02*
X145509916Y-77586964D01*
X145509916Y-77586964D02*
X145534493Y-77610144D01*
X145534493Y-77610144D02*
X145538763Y-77632667D01*
X145538763Y-77632667D02*
X145525111Y-77657455D01*
X145525111Y-77657455D02*
X145510057Y-77673886D01*
X145510057Y-77673886D02*
X145466254Y-77700235D01*
X145466254Y-77700235D02*
X145418611Y-77702081D01*
X145418611Y-77702081D02*
X145374855Y-77681546D01*
X145374855Y-77681546D02*
X145342711Y-77640752D01*
X145342711Y-77640752D02*
X145336962Y-77626347D01*
X145336962Y-77626347D02*
X145309424Y-77581356D01*
X145309424Y-77581356D02*
X145277742Y-77562182D01*
X145277742Y-77562182D02*
X145234286Y-77545779D01*
X145234286Y-77545779D02*
X145234286Y-77607966D01*
X145234286Y-77607966D02*
X145238128Y-77650283D01*
X145238128Y-77650283D02*
X145253177Y-77685969D01*
X145253177Y-77685969D02*
X145284720Y-77726943D01*
X145284720Y-77726943D02*
X145289408Y-77732267D01*
X145289408Y-77732267D02*
X145324494Y-77768720D01*
X145324494Y-77768720D02*
X145354653Y-77788283D01*
X145354653Y-77788283D02*
X145392385Y-77797283D01*
X145392385Y-77797283D02*
X145423665Y-77800230D01*
X145423665Y-77800230D02*
X145479615Y-77800965D01*
X145479615Y-77800965D02*
X145519445Y-77791660D01*
X145519445Y-77791660D02*
X145544292Y-77777846D01*
X145544292Y-77777846D02*
X145583344Y-77747467D01*
X145583344Y-77747467D02*
X145610375Y-77714613D01*
X145610375Y-77714613D02*
X145627483Y-77673294D01*
X145627483Y-77673294D02*
X145636762Y-77617521D01*
X145636762Y-77617521D02*
X145640307Y-77541305D01*
X145640307Y-77541305D02*
X145640590Y-77502622D01*
X145640590Y-77502622D02*
X145639628Y-77456247D01*
X145639628Y-77456247D02*
X145551993Y-77456247D01*
X145551993Y-77456247D02*
X145550977Y-77481126D01*
X145550977Y-77481126D02*
X145548444Y-77485200D01*
X145548444Y-77485200D02*
X145531726Y-77479665D01*
X145531726Y-77479665D02*
X145495751Y-77465017D01*
X145495751Y-77465017D02*
X145447669Y-77444190D01*
X145447669Y-77444190D02*
X145437614Y-77439714D01*
X145437614Y-77439714D02*
X145376848Y-77408814D01*
X145376848Y-77408814D02*
X145343368Y-77381657D01*
X145343368Y-77381657D02*
X145336010Y-77356220D01*
X145336010Y-77356220D02*
X145353609Y-77330481D01*
X145353609Y-77330481D02*
X145368144Y-77319109D01*
X145368144Y-77319109D02*
X145420590Y-77296364D01*
X145420590Y-77296364D02*
X145469678Y-77300122D01*
X145469678Y-77300122D02*
X145510773Y-77327884D01*
X145510773Y-77327884D02*
X145539242Y-77377152D01*
X145539242Y-77377152D02*
X145548369Y-77416257D01*
X145548369Y-77416257D02*
X145551993Y-77456247D01*
X145551993Y-77456247D02*
X145639628Y-77456247D01*
X145639628Y-77456247D02*
X145638715Y-77412249D01*
X145638715Y-77412249D02*
X145631804Y-77345384D01*
X145631804Y-77345384D02*
X145618116Y-77296695D01*
X145618116Y-77296695D02*
X145595904Y-77260849D01*
X145595904Y-77260849D02*
X145563426Y-77232513D01*
X145563426Y-77232513D02*
X145549267Y-77223355D01*
X145549267Y-77223355D02*
X145484947Y-77199507D01*
X145484947Y-77199507D02*
X145414527Y-77198006D01*
X145414527Y-77198006D02*
X145346405Y-77216966D01*
X145346405Y-77216966D02*
X145346405Y-77216966D01*
G36*
X145640307Y-77541305D02*
G01*
X145636762Y-77617521D01*
X145627483Y-77673294D01*
X145610375Y-77714613D01*
X145583344Y-77747467D01*
X145544292Y-77777846D01*
X145519445Y-77791660D01*
X145479615Y-77800965D01*
X145423665Y-77800230D01*
X145392385Y-77797283D01*
X145354653Y-77788283D01*
X145324494Y-77768720D01*
X145289408Y-77732267D01*
X145284720Y-77726943D01*
X145253177Y-77685969D01*
X145238128Y-77650283D01*
X145234286Y-77607966D01*
X145234286Y-77545779D01*
X145277742Y-77562182D01*
X145309424Y-77581356D01*
X145336962Y-77626347D01*
X145342711Y-77640752D01*
X145374855Y-77681546D01*
X145418611Y-77702081D01*
X145466254Y-77700235D01*
X145510057Y-77673886D01*
X145525111Y-77657455D01*
X145538763Y-77632667D01*
X145534493Y-77610144D01*
X145509916Y-77586964D01*
X145462651Y-77560202D01*
X145390314Y-77526934D01*
X145241543Y-77461816D01*
X145237595Y-77397308D01*
X145239079Y-77356220D01*
X145336010Y-77356220D01*
X145343368Y-77381657D01*
X145376848Y-77408814D01*
X145437614Y-77439714D01*
X145447669Y-77444190D01*
X145495751Y-77465017D01*
X145531726Y-77479665D01*
X145548444Y-77485200D01*
X145550977Y-77481126D01*
X145551993Y-77456247D01*
X145548369Y-77416257D01*
X145539242Y-77377152D01*
X145510773Y-77327884D01*
X145469678Y-77300122D01*
X145420590Y-77296364D01*
X145368144Y-77319109D01*
X145353609Y-77330481D01*
X145336010Y-77356220D01*
X145239079Y-77356220D01*
X145239338Y-77349064D01*
X145261281Y-77288096D01*
X145288979Y-77254497D01*
X145346405Y-77216966D01*
X145414527Y-77198006D01*
X145484947Y-77199507D01*
X145549267Y-77223355D01*
X145563426Y-77232513D01*
X145595904Y-77260849D01*
X145618116Y-77296695D01*
X145631804Y-77345384D01*
X145638715Y-77412249D01*
X145639628Y-77456247D01*
X145640590Y-77502622D01*
X145640307Y-77541305D01*
G37*
X145640307Y-77541305D02*
X145636762Y-77617521D01*
X145627483Y-77673294D01*
X145610375Y-77714613D01*
X145583344Y-77747467D01*
X145544292Y-77777846D01*
X145519445Y-77791660D01*
X145479615Y-77800965D01*
X145423665Y-77800230D01*
X145392385Y-77797283D01*
X145354653Y-77788283D01*
X145324494Y-77768720D01*
X145289408Y-77732267D01*
X145284720Y-77726943D01*
X145253177Y-77685969D01*
X145238128Y-77650283D01*
X145234286Y-77607966D01*
X145234286Y-77545779D01*
X145277742Y-77562182D01*
X145309424Y-77581356D01*
X145336962Y-77626347D01*
X145342711Y-77640752D01*
X145374855Y-77681546D01*
X145418611Y-77702081D01*
X145466254Y-77700235D01*
X145510057Y-77673886D01*
X145525111Y-77657455D01*
X145538763Y-77632667D01*
X145534493Y-77610144D01*
X145509916Y-77586964D01*
X145462651Y-77560202D01*
X145390314Y-77526934D01*
X145241543Y-77461816D01*
X145237595Y-77397308D01*
X145239079Y-77356220D01*
X145336010Y-77356220D01*
X145343368Y-77381657D01*
X145376848Y-77408814D01*
X145437614Y-77439714D01*
X145447669Y-77444190D01*
X145495751Y-77465017D01*
X145531726Y-77479665D01*
X145548444Y-77485200D01*
X145550977Y-77481126D01*
X145551993Y-77456247D01*
X145548369Y-77416257D01*
X145539242Y-77377152D01*
X145510773Y-77327884D01*
X145469678Y-77300122D01*
X145420590Y-77296364D01*
X145368144Y-77319109D01*
X145353609Y-77330481D01*
X145336010Y-77356220D01*
X145239079Y-77356220D01*
X145239338Y-77349064D01*
X145261281Y-77288096D01*
X145288979Y-77254497D01*
X145346405Y-77216966D01*
X145414527Y-77198006D01*
X145484947Y-77199507D01*
X145549267Y-77223355D01*
X145563426Y-77232513D01*
X145595904Y-77260849D01*
X145618116Y-77296695D01*
X145631804Y-77345384D01*
X145638715Y-77412249D01*
X145639628Y-77456247D01*
X145640590Y-77502622D01*
X145640307Y-77541305D01*
X150900256Y-77169918D02*
X150844799Y-77197568D01*
X150844799Y-77197568D02*
X150795852Y-77248480D01*
X150795852Y-77248480D02*
X150782371Y-77267338D01*
X150782371Y-77267338D02*
X150767686Y-77292015D01*
X150767686Y-77292015D02*
X150758158Y-77318816D01*
X150758158Y-77318816D02*
X150752707Y-77354587D01*
X150752707Y-77354587D02*
X150750253Y-77406169D01*
X150750253Y-77406169D02*
X150749714Y-77474267D01*
X150749714Y-77474267D02*
X150752148Y-77567588D01*
X150752148Y-77567588D02*
X150760606Y-77637657D01*
X150760606Y-77637657D02*
X150776826Y-77689931D01*
X150776826Y-77689931D02*
X150802546Y-77729869D01*
X150802546Y-77729869D02*
X150839503Y-77762929D01*
X150839503Y-77762929D02*
X150842218Y-77764886D01*
X150842218Y-77764886D02*
X150878640Y-77784908D01*
X150878640Y-77784908D02*
X150922498Y-77794815D01*
X150922498Y-77794815D02*
X150978276Y-77797257D01*
X150978276Y-77797257D02*
X151068952Y-77797257D01*
X151068952Y-77797257D02*
X151068990Y-77885283D01*
X151068990Y-77885283D02*
X151069834Y-77934308D01*
X151069834Y-77934308D02*
X151074976Y-77963065D01*
X151074976Y-77963065D02*
X151088413Y-77980311D01*
X151088413Y-77980311D02*
X151114142Y-77994808D01*
X151114142Y-77994808D02*
X151120321Y-77997769D01*
X151120321Y-77997769D02*
X151149236Y-78011648D01*
X151149236Y-78011648D02*
X151171624Y-78020414D01*
X151171624Y-78020414D02*
X151188271Y-78021171D01*
X151188271Y-78021171D02*
X151199964Y-78011023D01*
X151199964Y-78011023D02*
X151207490Y-77987073D01*
X151207490Y-77987073D02*
X151211634Y-77946426D01*
X151211634Y-77946426D02*
X151213185Y-77886186D01*
X151213185Y-77886186D02*
X151212929Y-77803455D01*
X151212929Y-77803455D02*
X151211651Y-77695339D01*
X151211651Y-77695339D02*
X151211252Y-77663000D01*
X151211252Y-77663000D02*
X151209815Y-77551524D01*
X151209815Y-77551524D02*
X151208528Y-77478603D01*
X151208528Y-77478603D02*
X151069029Y-77478603D01*
X151069029Y-77478603D02*
X151068245Y-77540499D01*
X151068245Y-77540499D02*
X151064760Y-77580997D01*
X151064760Y-77580997D02*
X151056876Y-77607708D01*
X151056876Y-77607708D02*
X151042895Y-77628244D01*
X151042895Y-77628244D02*
X151033403Y-77638260D01*
X151033403Y-77638260D02*
X150994596Y-77667567D01*
X150994596Y-77667567D02*
X150960237Y-77669952D01*
X150960237Y-77669952D02*
X150924784Y-77645750D01*
X150924784Y-77645750D02*
X150923886Y-77644857D01*
X150923886Y-77644857D02*
X150909461Y-77626153D01*
X150909461Y-77626153D02*
X150900687Y-77600732D01*
X150900687Y-77600732D02*
X150896261Y-77561584D01*
X150896261Y-77561584D02*
X150894882Y-77501697D01*
X150894882Y-77501697D02*
X150894857Y-77488430D01*
X150894857Y-77488430D02*
X150898188Y-77405901D01*
X150898188Y-77405901D02*
X150909031Y-77348691D01*
X150909031Y-77348691D02*
X150928660Y-77313766D01*
X150928660Y-77313766D02*
X150958350Y-77298094D01*
X150958350Y-77298094D02*
X150975509Y-77296514D01*
X150975509Y-77296514D02*
X151016234Y-77303926D01*
X151016234Y-77303926D02*
X151044168Y-77328330D01*
X151044168Y-77328330D02*
X151060983Y-77372980D01*
X151060983Y-77372980D02*
X151068350Y-77441130D01*
X151068350Y-77441130D02*
X151069029Y-77478603D01*
X151069029Y-77478603D02*
X151208528Y-77478603D01*
X151208528Y-77478603D02*
X151208292Y-77465245D01*
X151208292Y-77465245D02*
X151206323Y-77400333D01*
X151206323Y-77400333D02*
X151203550Y-77352958D01*
X151203550Y-77352958D02*
X151199612Y-77319290D01*
X151199612Y-77319290D02*
X151194151Y-77295498D01*
X151194151Y-77295498D02*
X151186808Y-77277753D01*
X151186808Y-77277753D02*
X151177223Y-77262224D01*
X151177223Y-77262224D02*
X151173113Y-77256381D01*
X151173113Y-77256381D02*
X151118595Y-77201185D01*
X151118595Y-77201185D02*
X151049664Y-77169890D01*
X151049664Y-77169890D02*
X150969928Y-77161165D01*
X150969928Y-77161165D02*
X150900256Y-77169918D01*
X150900256Y-77169918D02*
X150900256Y-77169918D01*
G36*
X151211252Y-77663000D02*
G01*
X151211651Y-77695339D01*
X151212929Y-77803455D01*
X151213185Y-77886186D01*
X151211634Y-77946426D01*
X151207490Y-77987073D01*
X151199964Y-78011023D01*
X151188271Y-78021171D01*
X151171624Y-78020414D01*
X151149236Y-78011648D01*
X151120321Y-77997769D01*
X151114142Y-77994808D01*
X151088413Y-77980311D01*
X151074976Y-77963065D01*
X151069834Y-77934308D01*
X151068990Y-77885283D01*
X151068952Y-77797257D01*
X150978276Y-77797257D01*
X150922498Y-77794815D01*
X150878640Y-77784908D01*
X150842218Y-77764886D01*
X150839503Y-77762929D01*
X150802546Y-77729869D01*
X150776826Y-77689931D01*
X150760606Y-77637657D01*
X150752148Y-77567588D01*
X150750083Y-77488430D01*
X150894857Y-77488430D01*
X150894882Y-77501697D01*
X150896261Y-77561584D01*
X150900687Y-77600732D01*
X150909461Y-77626153D01*
X150923886Y-77644857D01*
X150924784Y-77645750D01*
X150960237Y-77669952D01*
X150994596Y-77667567D01*
X151033403Y-77638260D01*
X151042895Y-77628244D01*
X151056876Y-77607708D01*
X151064760Y-77580997D01*
X151068245Y-77540499D01*
X151069029Y-77478603D01*
X151068350Y-77441130D01*
X151060983Y-77372980D01*
X151044168Y-77328330D01*
X151016234Y-77303926D01*
X150975509Y-77296514D01*
X150958350Y-77298094D01*
X150928660Y-77313766D01*
X150909031Y-77348691D01*
X150898188Y-77405901D01*
X150894857Y-77488430D01*
X150750083Y-77488430D01*
X150749714Y-77474267D01*
X150750253Y-77406169D01*
X150752707Y-77354587D01*
X150758158Y-77318816D01*
X150767686Y-77292015D01*
X150782371Y-77267338D01*
X150795852Y-77248480D01*
X150844799Y-77197568D01*
X150900256Y-77169918D01*
X150969928Y-77161165D01*
X151049664Y-77169890D01*
X151118595Y-77201185D01*
X151173113Y-77256381D01*
X151177223Y-77262224D01*
X151186808Y-77277753D01*
X151194151Y-77295498D01*
X151199612Y-77319290D01*
X151203550Y-77352958D01*
X151206323Y-77400333D01*
X151208292Y-77465245D01*
X151208528Y-77478603D01*
X151209815Y-77551524D01*
X151211252Y-77663000D01*
G37*
X151211252Y-77663000D02*
X151211651Y-77695339D01*
X151212929Y-77803455D01*
X151213185Y-77886186D01*
X151211634Y-77946426D01*
X151207490Y-77987073D01*
X151199964Y-78011023D01*
X151188271Y-78021171D01*
X151171624Y-78020414D01*
X151149236Y-78011648D01*
X151120321Y-77997769D01*
X151114142Y-77994808D01*
X151088413Y-77980311D01*
X151074976Y-77963065D01*
X151069834Y-77934308D01*
X151068990Y-77885283D01*
X151068952Y-77797257D01*
X150978276Y-77797257D01*
X150922498Y-77794815D01*
X150878640Y-77784908D01*
X150842218Y-77764886D01*
X150839503Y-77762929D01*
X150802546Y-77729869D01*
X150776826Y-77689931D01*
X150760606Y-77637657D01*
X150752148Y-77567588D01*
X150750083Y-77488430D01*
X150894857Y-77488430D01*
X150894882Y-77501697D01*
X150896261Y-77561584D01*
X150900687Y-77600732D01*
X150909461Y-77626153D01*
X150923886Y-77644857D01*
X150924784Y-77645750D01*
X150960237Y-77669952D01*
X150994596Y-77667567D01*
X151033403Y-77638260D01*
X151042895Y-77628244D01*
X151056876Y-77607708D01*
X151064760Y-77580997D01*
X151068245Y-77540499D01*
X151069029Y-77478603D01*
X151068350Y-77441130D01*
X151060983Y-77372980D01*
X151044168Y-77328330D01*
X151016234Y-77303926D01*
X150975509Y-77296514D01*
X150958350Y-77298094D01*
X150928660Y-77313766D01*
X150909031Y-77348691D01*
X150898188Y-77405901D01*
X150894857Y-77488430D01*
X150750083Y-77488430D01*
X150749714Y-77474267D01*
X150750253Y-77406169D01*
X150752707Y-77354587D01*
X150758158Y-77318816D01*
X150767686Y-77292015D01*
X150782371Y-77267338D01*
X150795852Y-77248480D01*
X150844799Y-77197568D01*
X150900256Y-77169918D01*
X150969928Y-77161165D01*
X151049664Y-77169890D01*
X151118595Y-77201185D01*
X151173113Y-77256381D01*
X151177223Y-77262224D01*
X151186808Y-77277753D01*
X151194151Y-77295498D01*
X151199612Y-77319290D01*
X151203550Y-77352958D01*
X151206323Y-77400333D01*
X151208292Y-77465245D01*
X151208528Y-77478603D01*
X151209815Y-77551524D01*
X151211252Y-77663000D01*
X151458885Y-77171962D02*
X151390855Y-77207733D01*
X151390855Y-77207733D02*
X151340649Y-77265301D01*
X151340649Y-77265301D02*
X151322815Y-77302312D01*
X151322815Y-77302312D02*
X151308937Y-77357882D01*
X151308937Y-77357882D02*
X151301833Y-77428096D01*
X151301833Y-77428096D02*
X151301160Y-77504727D01*
X151301160Y-77504727D02*
X151306573Y-77579552D01*
X151306573Y-77579552D02*
X151317730Y-77644342D01*
X151317730Y-77644342D02*
X151334286Y-77690873D01*
X151334286Y-77690873D02*
X151339374Y-77698887D01*
X151339374Y-77698887D02*
X151399645Y-77758707D01*
X151399645Y-77758707D02*
X151471231Y-77794535D01*
X151471231Y-77794535D02*
X151548908Y-77805020D01*
X151548908Y-77805020D02*
X151627452Y-77788810D01*
X151627452Y-77788810D02*
X151649311Y-77779092D01*
X151649311Y-77779092D02*
X151691878Y-77749143D01*
X151691878Y-77749143D02*
X151729237Y-77709433D01*
X151729237Y-77709433D02*
X151732768Y-77704397D01*
X151732768Y-77704397D02*
X151747119Y-77680124D01*
X151747119Y-77680124D02*
X151756606Y-77654178D01*
X151756606Y-77654178D02*
X151762210Y-77620022D01*
X151762210Y-77620022D02*
X151764914Y-77571119D01*
X151764914Y-77571119D02*
X151765701Y-77500935D01*
X151765701Y-77500935D02*
X151765714Y-77485200D01*
X151765714Y-77485200D02*
X151765678Y-77480192D01*
X151765678Y-77480192D02*
X151620571Y-77480192D01*
X151620571Y-77480192D02*
X151619727Y-77546430D01*
X151619727Y-77546430D02*
X151616404Y-77590386D01*
X151616404Y-77590386D02*
X151609417Y-77618779D01*
X151609417Y-77618779D02*
X151597584Y-77638325D01*
X151597584Y-77638325D02*
X151591543Y-77644857D01*
X151591543Y-77644857D02*
X151556814Y-77669680D01*
X151556814Y-77669680D02*
X151523097Y-77668548D01*
X151523097Y-77668548D02*
X151489005Y-77647016D01*
X151489005Y-77647016D02*
X151468671Y-77624029D01*
X151468671Y-77624029D02*
X151456629Y-77590478D01*
X151456629Y-77590478D02*
X151449866Y-77537569D01*
X151449866Y-77537569D02*
X151449402Y-77531399D01*
X151449402Y-77531399D02*
X151448248Y-77435513D01*
X151448248Y-77435513D02*
X151460312Y-77364299D01*
X151460312Y-77364299D02*
X151485430Y-77318194D01*
X151485430Y-77318194D02*
X151523440Y-77297635D01*
X151523440Y-77297635D02*
X151537008Y-77296514D01*
X151537008Y-77296514D02*
X151572636Y-77302152D01*
X151572636Y-77302152D02*
X151597006Y-77321686D01*
X151597006Y-77321686D02*
X151611907Y-77359042D01*
X151611907Y-77359042D02*
X151619125Y-77418150D01*
X151619125Y-77418150D02*
X151620571Y-77480192D01*
X151620571Y-77480192D02*
X151765678Y-77480192D01*
X151765678Y-77480192D02*
X151765174Y-77410413D01*
X151765174Y-77410413D02*
X151762904Y-77358159D01*
X151762904Y-77358159D02*
X151757932Y-77321949D01*
X151757932Y-77321949D02*
X151749287Y-77295299D01*
X151749287Y-77295299D02*
X151735995Y-77271722D01*
X151735995Y-77271722D02*
X151733057Y-77267338D01*
X151733057Y-77267338D02*
X151683687Y-77208249D01*
X151683687Y-77208249D02*
X151629891Y-77173947D01*
X151629891Y-77173947D02*
X151564398Y-77160331D01*
X151564398Y-77160331D02*
X151542158Y-77159665D01*
X151542158Y-77159665D02*
X151458885Y-77171962D01*
X151458885Y-77171962D02*
X151458885Y-77171962D01*
G36*
X151765701Y-77500935D02*
G01*
X151764914Y-77571119D01*
X151762210Y-77620022D01*
X151756606Y-77654178D01*
X151747119Y-77680124D01*
X151732768Y-77704397D01*
X151729237Y-77709433D01*
X151691878Y-77749143D01*
X151649311Y-77779092D01*
X151627452Y-77788810D01*
X151548908Y-77805020D01*
X151471231Y-77794535D01*
X151399645Y-77758707D01*
X151339374Y-77698887D01*
X151334286Y-77690873D01*
X151317730Y-77644342D01*
X151306573Y-77579552D01*
X151301160Y-77504727D01*
X151301768Y-77435513D01*
X151448248Y-77435513D01*
X151449402Y-77531399D01*
X151449866Y-77537569D01*
X151456629Y-77590478D01*
X151468671Y-77624029D01*
X151489005Y-77647016D01*
X151523097Y-77668548D01*
X151556814Y-77669680D01*
X151591543Y-77644857D01*
X151597584Y-77638325D01*
X151609417Y-77618779D01*
X151616404Y-77590386D01*
X151619727Y-77546430D01*
X151620571Y-77480192D01*
X151619125Y-77418150D01*
X151611907Y-77359042D01*
X151597006Y-77321686D01*
X151572636Y-77302152D01*
X151537008Y-77296514D01*
X151523440Y-77297635D01*
X151485430Y-77318194D01*
X151460312Y-77364299D01*
X151448248Y-77435513D01*
X151301768Y-77435513D01*
X151301833Y-77428096D01*
X151308937Y-77357882D01*
X151322815Y-77302312D01*
X151340649Y-77265301D01*
X151390855Y-77207733D01*
X151458885Y-77171962D01*
X151542158Y-77159665D01*
X151564398Y-77160331D01*
X151629891Y-77173947D01*
X151683687Y-77208249D01*
X151733057Y-77267338D01*
X151735995Y-77271722D01*
X151749287Y-77295299D01*
X151757932Y-77321949D01*
X151762904Y-77358159D01*
X151765174Y-77410413D01*
X151765678Y-77480192D01*
X151765714Y-77485200D01*
X151765701Y-77500935D01*
G37*
X151765701Y-77500935D02*
X151764914Y-77571119D01*
X151762210Y-77620022D01*
X151756606Y-77654178D01*
X151747119Y-77680124D01*
X151732768Y-77704397D01*
X151729237Y-77709433D01*
X151691878Y-77749143D01*
X151649311Y-77779092D01*
X151627452Y-77788810D01*
X151548908Y-77805020D01*
X151471231Y-77794535D01*
X151399645Y-77758707D01*
X151339374Y-77698887D01*
X151334286Y-77690873D01*
X151317730Y-77644342D01*
X151306573Y-77579552D01*
X151301160Y-77504727D01*
X151301768Y-77435513D01*
X151448248Y-77435513D01*
X151449402Y-77531399D01*
X151449866Y-77537569D01*
X151456629Y-77590478D01*
X151468671Y-77624029D01*
X151489005Y-77647016D01*
X151523097Y-77668548D01*
X151556814Y-77669680D01*
X151591543Y-77644857D01*
X151597584Y-77638325D01*
X151609417Y-77618779D01*
X151616404Y-77590386D01*
X151619727Y-77546430D01*
X151620571Y-77480192D01*
X151619125Y-77418150D01*
X151611907Y-77359042D01*
X151597006Y-77321686D01*
X151572636Y-77302152D01*
X151537008Y-77296514D01*
X151523440Y-77297635D01*
X151485430Y-77318194D01*
X151460312Y-77364299D01*
X151448248Y-77435513D01*
X151301768Y-77435513D01*
X151301833Y-77428096D01*
X151308937Y-77357882D01*
X151322815Y-77302312D01*
X151340649Y-77265301D01*
X151390855Y-77207733D01*
X151458885Y-77171962D01*
X151542158Y-77159665D01*
X151564398Y-77160331D01*
X151629891Y-77173947D01*
X151683687Y-77208249D01*
X151733057Y-77267338D01*
X151735995Y-77271722D01*
X151749287Y-77295299D01*
X151757932Y-77321949D01*
X151762904Y-77358159D01*
X151765174Y-77410413D01*
X151765678Y-77480192D01*
X151765714Y-77485200D01*
X151765701Y-77500935D01*
X149783907Y-77177780D02*
X149737328Y-77204723D01*
X149737328Y-77204723D02*
X149704943Y-77231466D01*
X149704943Y-77231466D02*
X149681258Y-77259484D01*
X149681258Y-77259484D02*
X149664941Y-77293748D01*
X149664941Y-77293748D02*
X149654661Y-77339227D01*
X149654661Y-77339227D02*
X149649086Y-77400892D01*
X149649086Y-77400892D02*
X149646884Y-77483711D01*
X149646884Y-77483711D02*
X149646629Y-77543246D01*
X149646629Y-77543246D02*
X149646629Y-77762391D01*
X149646629Y-77762391D02*
X149708314Y-77790044D01*
X149708314Y-77790044D02*
X149770000Y-77817697D01*
X149770000Y-77817697D02*
X149777257Y-77577670D01*
X149777257Y-77577670D02*
X149780256Y-77488028D01*
X149780256Y-77488028D02*
X149783402Y-77422962D01*
X149783402Y-77422962D02*
X149787299Y-77378026D01*
X149787299Y-77378026D02*
X149792553Y-77348770D01*
X149792553Y-77348770D02*
X149799769Y-77330748D01*
X149799769Y-77330748D02*
X149809550Y-77319511D01*
X149809550Y-77319511D02*
X149812688Y-77317079D01*
X149812688Y-77317079D02*
X149860239Y-77298083D01*
X149860239Y-77298083D02*
X149908303Y-77305600D01*
X149908303Y-77305600D02*
X149936914Y-77325543D01*
X149936914Y-77325543D02*
X149948553Y-77339675D01*
X149948553Y-77339675D02*
X149956609Y-77358220D01*
X149956609Y-77358220D02*
X149961729Y-77386334D01*
X149961729Y-77386334D02*
X149964559Y-77429173D01*
X149964559Y-77429173D02*
X149965744Y-77491895D01*
X149965744Y-77491895D02*
X149965943Y-77557261D01*
X149965943Y-77557261D02*
X149965982Y-77639268D01*
X149965982Y-77639268D02*
X149967386Y-77697316D01*
X149967386Y-77697316D02*
X149972086Y-77736465D01*
X149972086Y-77736465D02*
X149982013Y-77761780D01*
X149982013Y-77761780D02*
X149999097Y-77778323D01*
X149999097Y-77778323D02*
X150025268Y-77791156D01*
X150025268Y-77791156D02*
X150060225Y-77804491D01*
X150060225Y-77804491D02*
X150098404Y-77819007D01*
X150098404Y-77819007D02*
X150093859Y-77561389D01*
X150093859Y-77561389D02*
X150092029Y-77468519D01*
X150092029Y-77468519D02*
X150089888Y-77399889D01*
X150089888Y-77399889D02*
X150086819Y-77350711D01*
X150086819Y-77350711D02*
X150082206Y-77316198D01*
X150082206Y-77316198D02*
X150075432Y-77291562D01*
X150075432Y-77291562D02*
X150065881Y-77272016D01*
X150065881Y-77272016D02*
X150054366Y-77254770D01*
X150054366Y-77254770D02*
X149998810Y-77199680D01*
X149998810Y-77199680D02*
X149931020Y-77167822D01*
X149931020Y-77167822D02*
X149857287Y-77160191D01*
X149857287Y-77160191D02*
X149783907Y-77177780D01*
X149783907Y-77177780D02*
X149783907Y-77177780D01*
G36*
X149931020Y-77167822D02*
G01*
X149998810Y-77199680D01*
X150054366Y-77254770D01*
X150065881Y-77272016D01*
X150075432Y-77291562D01*
X150082206Y-77316198D01*
X150086819Y-77350711D01*
X150089888Y-77399889D01*
X150092029Y-77468519D01*
X150093859Y-77561389D01*
X150098404Y-77819007D01*
X150060225Y-77804491D01*
X150025268Y-77791156D01*
X149999097Y-77778323D01*
X149982013Y-77761780D01*
X149972086Y-77736465D01*
X149967386Y-77697316D01*
X149965982Y-77639268D01*
X149965943Y-77557261D01*
X149965744Y-77491895D01*
X149964559Y-77429173D01*
X149961729Y-77386334D01*
X149956609Y-77358220D01*
X149948553Y-77339675D01*
X149936914Y-77325543D01*
X149908303Y-77305600D01*
X149860239Y-77298083D01*
X149812688Y-77317079D01*
X149809550Y-77319511D01*
X149799769Y-77330748D01*
X149792553Y-77348770D01*
X149787299Y-77378026D01*
X149783402Y-77422962D01*
X149780256Y-77488028D01*
X149777257Y-77577670D01*
X149770000Y-77817697D01*
X149708314Y-77790044D01*
X149646629Y-77762391D01*
X149646629Y-77543246D01*
X149646884Y-77483711D01*
X149649086Y-77400892D01*
X149654661Y-77339227D01*
X149664941Y-77293748D01*
X149681258Y-77259484D01*
X149704943Y-77231466D01*
X149737328Y-77204723D01*
X149783907Y-77177780D01*
X149857287Y-77160191D01*
X149931020Y-77167822D01*
G37*
X149931020Y-77167822D02*
X149998810Y-77199680D01*
X150054366Y-77254770D01*
X150065881Y-77272016D01*
X150075432Y-77291562D01*
X150082206Y-77316198D01*
X150086819Y-77350711D01*
X150089888Y-77399889D01*
X150092029Y-77468519D01*
X150093859Y-77561389D01*
X150098404Y-77819007D01*
X150060225Y-77804491D01*
X150025268Y-77791156D01*
X149999097Y-77778323D01*
X149982013Y-77761780D01*
X149972086Y-77736465D01*
X149967386Y-77697316D01*
X149965982Y-77639268D01*
X149965943Y-77557261D01*
X149965744Y-77491895D01*
X149964559Y-77429173D01*
X149961729Y-77386334D01*
X149956609Y-77358220D01*
X149948553Y-77339675D01*
X149936914Y-77325543D01*
X149908303Y-77305600D01*
X149860239Y-77298083D01*
X149812688Y-77317079D01*
X149809550Y-77319511D01*
X149799769Y-77330748D01*
X149792553Y-77348770D01*
X149787299Y-77378026D01*
X149783402Y-77422962D01*
X149780256Y-77488028D01*
X149777257Y-77577670D01*
X149770000Y-77817697D01*
X149708314Y-77790044D01*
X149646629Y-77762391D01*
X149646629Y-77543246D01*
X149646884Y-77483711D01*
X149649086Y-77400892D01*
X149654661Y-77339227D01*
X149664941Y-77293748D01*
X149681258Y-77259484D01*
X149704943Y-77231466D01*
X149737328Y-77204723D01*
X149783907Y-77177780D01*
X149857287Y-77160191D01*
X149931020Y-77167822D01*
X145847400Y-77208752D02*
X145830052Y-77216334D01*
X145830052Y-77216334D02*
X145788644Y-77249128D01*
X145788644Y-77249128D02*
X145753235Y-77296547D01*
X145753235Y-77296547D02*
X145731336Y-77347151D01*
X145731336Y-77347151D02*
X145727771Y-77372098D01*
X145727771Y-77372098D02*
X145739721Y-77406927D01*
X145739721Y-77406927D02*
X145765933Y-77425357D01*
X145765933Y-77425357D02*
X145794036Y-77436516D01*
X145794036Y-77436516D02*
X145806905Y-77438572D01*
X145806905Y-77438572D02*
X145813171Y-77423649D01*
X145813171Y-77423649D02*
X145825544Y-77391175D01*
X145825544Y-77391175D02*
X145830972Y-77376502D01*
X145830972Y-77376502D02*
X145861410Y-77325744D01*
X145861410Y-77325744D02*
X145905480Y-77300427D01*
X145905480Y-77300427D02*
X145961990Y-77301206D01*
X145961990Y-77301206D02*
X145966175Y-77302203D01*
X145966175Y-77302203D02*
X145996345Y-77316507D01*
X145996345Y-77316507D02*
X146018524Y-77344393D01*
X146018524Y-77344393D02*
X146033673Y-77389287D01*
X146033673Y-77389287D02*
X146042750Y-77454615D01*
X146042750Y-77454615D02*
X146046714Y-77543804D01*
X146046714Y-77543804D02*
X146047086Y-77591261D01*
X146047086Y-77591261D02*
X146047270Y-77666071D01*
X146047270Y-77666071D02*
X146048478Y-77717069D01*
X146048478Y-77717069D02*
X146051691Y-77749471D01*
X146051691Y-77749471D02*
X146057891Y-77768495D01*
X146057891Y-77768495D02*
X146068060Y-77779356D01*
X146068060Y-77779356D02*
X146083181Y-77787272D01*
X146083181Y-77787272D02*
X146084054Y-77787670D01*
X146084054Y-77787670D02*
X146113172Y-77799981D01*
X146113172Y-77799981D02*
X146127597Y-77804514D01*
X146127597Y-77804514D02*
X146129814Y-77790809D01*
X146129814Y-77790809D02*
X146131711Y-77752925D01*
X146131711Y-77752925D02*
X146133153Y-77695715D01*
X146133153Y-77695715D02*
X146134002Y-77624027D01*
X146134002Y-77624027D02*
X146134171Y-77571565D01*
X146134171Y-77571565D02*
X146133308Y-77470047D01*
X146133308Y-77470047D02*
X146129930Y-77393032D01*
X146129930Y-77393032D02*
X146122858Y-77336023D01*
X146122858Y-77336023D02*
X146110912Y-77294526D01*
X146110912Y-77294526D02*
X146092910Y-77264043D01*
X146092910Y-77264043D02*
X146067673Y-77240080D01*
X146067673Y-77240080D02*
X146042753Y-77223355D01*
X146042753Y-77223355D02*
X145982829Y-77201097D01*
X145982829Y-77201097D02*
X145913089Y-77196076D01*
X145913089Y-77196076D02*
X145847400Y-77208752D01*
X145847400Y-77208752D02*
X145847400Y-77208752D01*
G36*
X145982829Y-77201097D02*
G01*
X146042753Y-77223355D01*
X146067673Y-77240080D01*
X146092910Y-77264043D01*
X146110912Y-77294526D01*
X146122858Y-77336023D01*
X146129930Y-77393032D01*
X146133308Y-77470047D01*
X146134171Y-77571565D01*
X146134002Y-77624027D01*
X146133153Y-77695715D01*
X146131711Y-77752925D01*
X146129814Y-77790809D01*
X146127597Y-77804514D01*
X146113172Y-77799981D01*
X146084054Y-77787670D01*
X146083181Y-77787272D01*
X146068060Y-77779356D01*
X146057891Y-77768495D01*
X146051691Y-77749471D01*
X146048478Y-77717069D01*
X146047270Y-77666071D01*
X146047086Y-77591261D01*
X146046714Y-77543804D01*
X146042750Y-77454615D01*
X146033673Y-77389287D01*
X146018524Y-77344393D01*
X145996345Y-77316507D01*
X145966175Y-77302203D01*
X145961990Y-77301206D01*
X145905480Y-77300427D01*
X145861410Y-77325744D01*
X145830972Y-77376502D01*
X145825544Y-77391175D01*
X145813171Y-77423649D01*
X145806905Y-77438572D01*
X145794036Y-77436516D01*
X145765933Y-77425357D01*
X145739721Y-77406927D01*
X145727771Y-77372098D01*
X145731336Y-77347151D01*
X145753235Y-77296547D01*
X145788644Y-77249128D01*
X145830052Y-77216334D01*
X145847400Y-77208752D01*
X145913089Y-77196076D01*
X145982829Y-77201097D01*
G37*
X145982829Y-77201097D02*
X146042753Y-77223355D01*
X146067673Y-77240080D01*
X146092910Y-77264043D01*
X146110912Y-77294526D01*
X146122858Y-77336023D01*
X146129930Y-77393032D01*
X146133308Y-77470047D01*
X146134171Y-77571565D01*
X146134002Y-77624027D01*
X146133153Y-77695715D01*
X146131711Y-77752925D01*
X146129814Y-77790809D01*
X146127597Y-77804514D01*
X146113172Y-77799981D01*
X146084054Y-77787670D01*
X146083181Y-77787272D01*
X146068060Y-77779356D01*
X146057891Y-77768495D01*
X146051691Y-77749471D01*
X146048478Y-77717069D01*
X146047270Y-77666071D01*
X146047086Y-77591261D01*
X146046714Y-77543804D01*
X146042750Y-77454615D01*
X146033673Y-77389287D01*
X146018524Y-77344393D01*
X145996345Y-77316507D01*
X145966175Y-77302203D01*
X145961990Y-77301206D01*
X145905480Y-77300427D01*
X145861410Y-77325744D01*
X145830972Y-77376502D01*
X145825544Y-77391175D01*
X145813171Y-77423649D01*
X145806905Y-77438572D01*
X145794036Y-77436516D01*
X145765933Y-77425357D01*
X145739721Y-77406927D01*
X145727771Y-77372098D01*
X145731336Y-77347151D01*
X145753235Y-77296547D01*
X145788644Y-77249128D01*
X145830052Y-77216334D01*
X145847400Y-77208752D01*
X145913089Y-77196076D01*
X145982829Y-77201097D01*
X150331697Y-77181239D02*
X150274473Y-77219735D01*
X150274473Y-77219735D02*
X150230251Y-77275335D01*
X150230251Y-77275335D02*
X150203833Y-77346086D01*
X150203833Y-77346086D02*
X150198490Y-77398162D01*
X150198490Y-77398162D02*
X150199097Y-77419893D01*
X150199097Y-77419893D02*
X150204178Y-77436531D01*
X150204178Y-77436531D02*
X150218145Y-77451437D01*
X150218145Y-77451437D02*
X150245411Y-77467973D01*
X150245411Y-77467973D02*
X150290388Y-77489498D01*
X150290388Y-77489498D02*
X150357489Y-77519374D01*
X150357489Y-77519374D02*
X150357829Y-77519524D01*
X150357829Y-77519524D02*
X150419593Y-77547813D01*
X150419593Y-77547813D02*
X150470241Y-77572933D01*
X150470241Y-77572933D02*
X150504596Y-77592179D01*
X150504596Y-77592179D02*
X150517482Y-77602848D01*
X150517482Y-77602848D02*
X150517486Y-77602934D01*
X150517486Y-77602934D02*
X150506128Y-77626166D01*
X150506128Y-77626166D02*
X150479569Y-77651774D01*
X150479569Y-77651774D02*
X150449077Y-77670221D01*
X150449077Y-77670221D02*
X150433630Y-77673886D01*
X150433630Y-77673886D02*
X150391485Y-77661212D01*
X150391485Y-77661212D02*
X150355192Y-77629471D01*
X150355192Y-77629471D02*
X150337483Y-77594572D01*
X150337483Y-77594572D02*
X150320448Y-77568845D01*
X150320448Y-77568845D02*
X150287078Y-77539546D01*
X150287078Y-77539546D02*
X150247851Y-77514235D01*
X150247851Y-77514235D02*
X150213244Y-77500471D01*
X150213244Y-77500471D02*
X150206007Y-77499714D01*
X150206007Y-77499714D02*
X150197861Y-77512160D01*
X150197861Y-77512160D02*
X150197370Y-77543972D01*
X150197370Y-77543972D02*
X150203357Y-77586866D01*
X150203357Y-77586866D02*
X150214643Y-77632558D01*
X150214643Y-77632558D02*
X150230050Y-77672761D01*
X150230050Y-77672761D02*
X150230829Y-77674322D01*
X150230829Y-77674322D02*
X150277196Y-77739062D01*
X150277196Y-77739062D02*
X150337289Y-77783097D01*
X150337289Y-77783097D02*
X150405535Y-77804711D01*
X150405535Y-77804711D02*
X150476362Y-77802185D01*
X150476362Y-77802185D02*
X150544196Y-77773804D01*
X150544196Y-77773804D02*
X150547212Y-77771808D01*
X150547212Y-77771808D02*
X150600573Y-77723448D01*
X150600573Y-77723448D02*
X150635660Y-77660352D01*
X150635660Y-77660352D02*
X150655078Y-77577387D01*
X150655078Y-77577387D02*
X150657684Y-77554078D01*
X150657684Y-77554078D02*
X150662299Y-77444055D01*
X150662299Y-77444055D02*
X150656767Y-77392748D01*
X150656767Y-77392748D02*
X150517486Y-77392748D01*
X150517486Y-77392748D02*
X150515676Y-77424753D01*
X150515676Y-77424753D02*
X150505778Y-77434093D01*
X150505778Y-77434093D02*
X150481102Y-77427105D01*
X150481102Y-77427105D02*
X150442205Y-77410587D01*
X150442205Y-77410587D02*
X150398725Y-77389881D01*
X150398725Y-77389881D02*
X150397644Y-77389333D01*
X150397644Y-77389333D02*
X150360791Y-77369949D01*
X150360791Y-77369949D02*
X150346000Y-77357013D01*
X150346000Y-77357013D02*
X150349647Y-77343451D01*
X150349647Y-77343451D02*
X150365005Y-77325632D01*
X150365005Y-77325632D02*
X150404077Y-77299845D01*
X150404077Y-77299845D02*
X150446154Y-77297950D01*
X150446154Y-77297950D02*
X150483897Y-77316717D01*
X150483897Y-77316717D02*
X150509966Y-77352915D01*
X150509966Y-77352915D02*
X150517486Y-77392748D01*
X150517486Y-77392748D02*
X150656767Y-77392748D01*
X150656767Y-77392748D02*
X150652806Y-77356027D01*
X150652806Y-77356027D02*
X150628450Y-77286212D01*
X150628450Y-77286212D02*
X150594544Y-77237302D01*
X150594544Y-77237302D02*
X150533347Y-77187878D01*
X150533347Y-77187878D02*
X150465937Y-77163359D01*
X150465937Y-77163359D02*
X150397120Y-77161797D01*
X150397120Y-77161797D02*
X150331697Y-77181239D01*
X150331697Y-77181239D02*
X150331697Y-77181239D01*
G36*
X150657684Y-77554078D02*
G01*
X150655078Y-77577387D01*
X150635660Y-77660352D01*
X150600573Y-77723448D01*
X150547212Y-77771808D01*
X150544196Y-77773804D01*
X150476362Y-77802185D01*
X150405535Y-77804711D01*
X150337289Y-77783097D01*
X150277196Y-77739062D01*
X150230829Y-77674322D01*
X150230050Y-77672761D01*
X150214643Y-77632558D01*
X150203357Y-77586866D01*
X150197370Y-77543972D01*
X150197861Y-77512160D01*
X150206007Y-77499714D01*
X150213244Y-77500471D01*
X150247851Y-77514235D01*
X150287078Y-77539546D01*
X150320448Y-77568845D01*
X150337483Y-77594572D01*
X150355192Y-77629471D01*
X150391485Y-77661212D01*
X150433630Y-77673886D01*
X150449077Y-77670221D01*
X150479569Y-77651774D01*
X150506128Y-77626166D01*
X150517486Y-77602934D01*
X150517482Y-77602848D01*
X150504596Y-77592179D01*
X150470241Y-77572933D01*
X150419593Y-77547813D01*
X150357829Y-77519524D01*
X150357489Y-77519374D01*
X150290388Y-77489498D01*
X150245411Y-77467973D01*
X150218145Y-77451437D01*
X150204178Y-77436531D01*
X150199097Y-77419893D01*
X150198490Y-77398162D01*
X150202712Y-77357013D01*
X150346000Y-77357013D01*
X150360791Y-77369949D01*
X150397644Y-77389333D01*
X150398725Y-77389881D01*
X150442205Y-77410587D01*
X150481102Y-77427105D01*
X150505778Y-77434093D01*
X150515676Y-77424753D01*
X150517486Y-77392748D01*
X150509966Y-77352915D01*
X150483897Y-77316717D01*
X150446154Y-77297950D01*
X150404077Y-77299845D01*
X150365005Y-77325632D01*
X150349647Y-77343451D01*
X150346000Y-77357013D01*
X150202712Y-77357013D01*
X150203833Y-77346086D01*
X150230251Y-77275335D01*
X150274473Y-77219735D01*
X150331697Y-77181239D01*
X150397120Y-77161797D01*
X150465937Y-77163359D01*
X150533347Y-77187878D01*
X150594544Y-77237302D01*
X150628450Y-77286212D01*
X150652806Y-77356027D01*
X150656767Y-77392748D01*
X150662299Y-77444055D01*
X150657684Y-77554078D01*
G37*
X150657684Y-77554078D02*
X150655078Y-77577387D01*
X150635660Y-77660352D01*
X150600573Y-77723448D01*
X150547212Y-77771808D01*
X150544196Y-77773804D01*
X150476362Y-77802185D01*
X150405535Y-77804711D01*
X150337289Y-77783097D01*
X150277196Y-77739062D01*
X150230829Y-77674322D01*
X150230050Y-77672761D01*
X150214643Y-77632558D01*
X150203357Y-77586866D01*
X150197370Y-77543972D01*
X150197861Y-77512160D01*
X150206007Y-77499714D01*
X150213244Y-77500471D01*
X150247851Y-77514235D01*
X150287078Y-77539546D01*
X150320448Y-77568845D01*
X150337483Y-77594572D01*
X150355192Y-77629471D01*
X150391485Y-77661212D01*
X150433630Y-77673886D01*
X150449077Y-77670221D01*
X150479569Y-77651774D01*
X150506128Y-77626166D01*
X150517486Y-77602934D01*
X150517482Y-77602848D01*
X150504596Y-77592179D01*
X150470241Y-77572933D01*
X150419593Y-77547813D01*
X150357829Y-77519524D01*
X150357489Y-77519374D01*
X150290388Y-77489498D01*
X150245411Y-77467973D01*
X150218145Y-77451437D01*
X150204178Y-77436531D01*
X150199097Y-77419893D01*
X150198490Y-77398162D01*
X150202712Y-77357013D01*
X150346000Y-77357013D01*
X150360791Y-77369949D01*
X150397644Y-77389333D01*
X150398725Y-77389881D01*
X150442205Y-77410587D01*
X150481102Y-77427105D01*
X150505778Y-77434093D01*
X150515676Y-77424753D01*
X150517486Y-77392748D01*
X150509966Y-77352915D01*
X150483897Y-77316717D01*
X150446154Y-77297950D01*
X150404077Y-77299845D01*
X150365005Y-77325632D01*
X150349647Y-77343451D01*
X150346000Y-77357013D01*
X150202712Y-77357013D01*
X150203833Y-77346086D01*
X150230251Y-77275335D01*
X150274473Y-77219735D01*
X150331697Y-77181239D01*
X150397120Y-77161797D01*
X150465937Y-77163359D01*
X150533347Y-77187878D01*
X150594544Y-77237302D01*
X150628450Y-77286212D01*
X150652806Y-77356027D01*
X150656767Y-77392748D01*
X150662299Y-77444055D01*
X150657684Y-77554078D01*
%TD*%
M02*
